/* XPM */
static char * BryceLeft2_xpm[] = {
"32 32 5 1",
" 	c None",
".	c #000000",
"+	c #AC5A5A",
"@	c #824040",
"#	c #FFFFFF",
"                                ",
"                                ",
"                                ",
"              ..                ",
"             .++.               ",
"            .++.     ..         ",
"           .++.    ..++.        ",
"         ..++......+++.         ",
"       ..+++++++++++...         ",
"      .++++++++++++++++..       ",
"     .+++++++++++++++++++.      ",
"    .++++++++++++++++++@@+.     ",
"   .++++++++++++++++++++@@+.    ",
"  .++##++++++++##+++++++@@@+.   ",
" .++####++++++####+++++++@@+.   ",
" .++####++++++####++++++++@+.   ",
" .++#..#++++++#..#++++++++@+.   ",
" .++#.##++++++#.##++++++++@+..  ",
" .+++##++++++++##+++++++++@++.  ",
" .++++++++++++++++++++++++@@+.  ",
" .+++++++++++++++++++++++++@+.  ",
" .+++++++++++++++++++++++++@+.  ",
" .+++++++...+++++++++++++++@+.  ",
" .++++++++.++++++++++++++++@+.  ",
"  .+++++++++++++++++++++++@++.  ",
"  .++++++++++++++++++++++@++.   ",
"   .++++++++++++++++++++@@@+..  ",
"   .+++++++++++++++++++@@@@++.  ",
"   ..++++++++++++++++@@@@@@@+.  ",
"     ..++++++++++@@@@@@@@@@@@+. ",
"       ..@@@@@@@@@....@@@@@@@@. ",
"        ..........    ......... "};
