/* XPM */
static const char *new_down_3[] = {
/* columns rows colors chars-per-pixel */
"64 64 5 1 ",
"  c black",
". c #824040",
"X c #AC5A5A",
"o c white",
"O c None",
/* pixels */
"OOOOOOOOOOOOOOOOOOOOOOOOOOOOOOOOOOOOOOOOOOOOOOOOOOOOOOOOOOOOOOOO",
"OOOOOOOOOOOOOOOOOOOOOOOOOOOOOOOOOOOOOOOOOOOOOOOOOOOOOOOOOOOOOOOO",
"OOOOOOOOOOOOOOOOOOOOOOOO    OOOOOOOOOO    OOOOOOOOOOOOOOOOOOOOOO",
"OOOOOOOOOOOOOOOOOOOOOOOO    OOOOOOOOOO    OOOOOOOOOOOOOOOOOOOOOO",
"OOOOOOOOOOOOOOOOOOOOOO  XXXX  OOOOOO  XXXX  OOOOOOOOOOOOOOOOOOOO",
"OOOOOOOOOOOOOOOOOOOOOO  XXXX  OOOOOO  XXXX  OOOOOOOOOOOOOOOOOOOO",
"OOOOOOOOOOOOOOOOOOOOOO  XX  OOOOOOOO  XX  OOOOOOOOOOOOOOOOOOOOOO",
"OOOOOOOOOOOOOOOOOOOOOO  XX  OOOOOOOO  XX  OOOOOOOOOOOOOOOOOOOOOO",
"OOOOOOOOOOOOOOOOOOOOOO    OOOOOOOOOO    OOOOOOOOOOOOOOOOOOOOOOOO",
"OOOOOOOOOOOOOOOOOOOOOO    OOOOOOOOOO    OOOOOOOOOOOOOOOOOOOOOOOO",
"OOOOOOOOOOOOOOOOOOOOOO    OOOOOOOOOO    OOOOOOOOOOOOOOOOOOOOOOOO",
"OOOOOOOOOOOOOOOOOOOOOO    OOOOOOOOOO    OOOOOOOOOOOOOOOOOOOOOOOO",
"OOOOOOOOOOOOOOOOOO                            OOOOOOOOOOOOOOOOOO",
"OOOOOOOOOOOOOOOOOO                            OOOOOOOOOOOOOOOOOO",
"OOOOOOOOOOOOOO    XXXXXXXXXXXXXXXXXXXXXXXXXX    OOOOOOOOOOOOOOOO",
"OOOOOOOOOOOOOO    XXXXXXXXXXXXXXXXXXXXXXXXXX    OOOOOOOOOOOOOOOO",
"OOOOOOOOOOOO  XXXXXXXXXXXXXXXXXXXXXXXXXXXXXXXXXX    OOOOOOOOOOOO",
"OOOOOOOOOOOO  XXXXXXXXXXXXXXXXXXXXXXXXXXXXXXXXXX    OOOOOOOOOOOO",
"OOOOOOOOOO  XXXXXXXXXXXXXXXXXXXXXXXXXXXXXXXXXXXXXXXX  OOOOOOOOOO",
"OOOOOOOOOO  XXXXXXXXXXXXXXXXXXXXXXXXXXXXXXXXXXXXXXXX  OOOOOOOOOO",
"OOOOOOOO  XXXXXXXXXXXXXXXXXXXXXXXXXXXXXXXXXXXXXX....XX  OOOOOOOO",
"OOOOOOOO  XXXXXXXXXXXXXXXXXXXXXXXXXXXXXXXXXXXXXX....XX  OOOOOOOO",
"OOOOOO  XXXXXXXXXXXXXXXXXXXXXXXXXXXXXXXXXXXXXXXXXX....XX  OOOOOO",
"OOOOOO  XXXXXXXXXXXXXXXXXXXXXXXXXXXXXXXXXXXXXXXXXX....XX  OOOOOO",
"OOOO  XXXXXXXXXXXXooooXXXXXXXXXXXXXXXXXXooooXXXXXXXX....XX  OOOO",
"OOOO  XXXXXXXXXXXXooooXXXXXXXXXXXXXXXXXXooooXXXXXXXX....XX  OOOO",
"OO  XXXXXXXXXXXXooooooooXXXXXXXXXXXXXXooooooooXXXXXXXX....XX  OO",
"OO  XXXXXXXXXXXXooooooooXXXXXXXXXXXXXXooooooooXXXXXXXX....XX  OO",
"OO  XXXXXXXXXXXXooooooooXXXXXXXXXXXXXXooooooooXXXXXXXXXX..XX  OO",
"OO  XXXXXXXXXXXXooooooooXXXXXXXXXXXXXXooooooooXXXXXXXXXX..XX  OO",
"OO  XXXXXXXXXXXXoo    ooXXXXXXXXXXXXXXoo    ooXXXXXXXXXX..XX  OO",
"OO  XXXXXXXXXXXXoo    ooXXXXXXXXXXXXXXoo    ooXXXXXXXXXX..XX  OO",
"OO  XXXXXXXXXXXXoo  ooooXXXXXXXXXXXXXXoo  ooooXXXXXXXXXX..XX  OO",
"OO  XXXXXXXXXXXXoo  ooooXXXXXXXXXXXXXXoo  ooooXXXXXXXXXX..XX  OO",
"OO  XXXXXXXXXXXXXXooooXXXXXXXXXXXXXXXXXXooooXXXXXXXXXXXX..XX  OO",
"OO  XXXXXXXXXXXXXXooooXXXXXXXXXXXXXXXXXXooooXXXXXXXXXXXX..XX  OO",
"OO  XXXXXXXXXXXXXXXXXXXXXXXXXXXXXXXXXXXXXXXXXXXXXXXXXXXX..XX  OO",
"OO  XXXXXXXXXXXXXXXXXXXXXXXXXXXXXXXXXXXXXXXXXXXXXXXXXXXX..XX  OO",
"OO  XXXXXXXXXXXXXXXXXXXXXXXXXXXXXXXXXXXXXXXXXXXXXXXXXXXX..XX  OO",
"OO  XXXXXXXXXXXXXXXXXXXXXXXXXXXXXXXXXXXXXXXXXXXXXXXXXXXX..XX  OO",
"OO  XXXXXXXXXXXXXXXXXXXXXXXXXXXXXXXXXXXXXXXXXXXXXXXXXXXX..XX  OO",
"OO  XXXXXXXXXXXXXXXXXXXXXXXXXXXXXXXXXXXXXXXXXXXXXXXXXXXX..XX  OO",
"OO  XXXXXXXXXXXXXXXXXXXXXXXX      XXXXXXXXXXXXXXXXXXXXXX..XX  OO",
"OO  XXXXXXXXXXXXXXXXXXXXXXXX      XXXXXXXXXXXXXXXXXXXXXX..XX  OO",
"OO  XXXXXXXXXXXXXXXXXXXXXXXXXX  XXXXXXXXXXXXXXXXXXXXXXXX..XX  OO",
"OO  XXXXXXXXXXXXXXXXXXXXXXXXXX  XXXXXXXXXXXXXXXXXXXXXXXX..XX  OO",
"OO  XXXXXXXXXXXXXXXXXXXXXXXXXXXXXXXXXXXXXXXXXXXXXXXXXX..XXXX  OO",
"OO  XXXXXXXXXXXXXXXXXXXXXXXXXXXXXXXXXXXXXXXXXXXXXXXXXX..XXXX  OO",
"OOOO  XXXXXXXXXXXXXXXXXXXXXXXXXXXXXXXXXXXXXXXXXXXXXXXX..XX  OOOO",
"OOOO  XXXXXXXXXXXXXXXXXXXXXXXXXXXXXXXXXXXXXXXXXXXXXXXX..XX  OOOO",
"OOOO  XXXXXXXXXXXXXXXXXXXXXXXXXXXXXXXXXXXXXXXXXXXXXX..XXXX  OOOO",
"OOOO  XXXXXXXXXXXXXXXXXXXXXXXXXXXXXXXXXXXXXXXXXXXXXX..XXXX  OOOO",
"OOOOOO  XXXXXXXXXXXXXXXXXXXXXXXXXXXXXXXXXXXXXXXXXXXX..XX  OOOOOO",
"OOOOOO  XXXXXXXXXXXXXXXXXXXXXXXXXXXXXXXXXXXXXXXXXXXX..XX  OOOOOO",
"OOOOOO  XXXXXXXXXXXXXXXXXXXXXXXXXXXXXXXXXXXXXXXXXX....XX  OOOOOO",
"OOOOOO  XXXXXXXXXXXXXXXXXXXXXXXXXXXXXXXXXXXXXXXXXX....XX  OOOOOO",
"OOOOOO  XX..XXXXXXXXXXXXXXXXXXXXXXXXXXXXXXXXXXXX......XX  OOOOOO",
"OOOOOO  XX..XXXXXXXXXXXXXXXXXXXXXXXXXXXXXXXXXXXX......XX  OOOOOO",
"OOOO  XXXX....XXXXXXXXXXXXXXXXXXXXXXXXXXXXXX..........XXXX  OOOO",
"OOOO  XXXX....XXXXXXXXXXXXXXXXXXXXXXXXXXXXXX..........XXXX  OOOO",
"OO  XXXX................................................XXXX  OO",
"OO  XXXX................................................XXXX  OO",
"OO                                                            OO",
"OO                                                            OO"
};
