/* XPM */
static const char *new_down_1[] = {
/* columns rows colors chars-per-pixel */
"64 64 5 1 ",
"  c black",
". c #824040",
"X c #AC5A5A",
"o c white",
"O c None",
/* pixels */
"OOOOOOOOOOOOOOOOOOOOOOOOOOOOOOOOOOOOOOOOOOOOOOOOOOOOOOOOOOOOOOOO",
"OOOOOOOOOOOOOOOOOOOOOOOOOOOOOOOOOOOOOOOOOOOOOOOOOOOOOOOOOOOOOOOO",
"OOOOOOOOOOOOOOOOOOOOOOOOOOOOOOOOOOOOOOOOOOOOOOOOOOOOOOOOOOOOOOOO",
"OOOOOOOOOOOOOOOOOOOOOOOOOOOOOOOOOOOOOOOOOOOOOOOOOOOOOOOOOOOOOOOO",
"OOOOOOOOOOOOOOOOOOOOOOOO    OOOOOOOO    OOOOOOOOOOOOOOOOOOOOOOOO",
"OOOOOOOOOOOOOOOOOOOOOOOO    OOOOOOOO    OOOOOOOOOOOOOOOOOOOOOOOO",
"OOOOOOOOOOOOOOOOOOOOOO  XXXX  OOOO  XXXX  OOOOOOOOOOOOOOOOOOOOOO",
"OOOOOOOOOOOOOOOOOOOOOO  XXXX  OOOO  XXXX  OOOOOOOOOOOOOOOOOOOOOO",
"OOOOOOOOOOOOOOOOOOOOOO  XX  OOOOOO  XX  OOOOOOOOOOOOOOOOOOOOOOOO",
"OOOOOOOOOOOOOOOOOOOOOO  XX  OOOOOO  XX  OOOOOOOOOOOOOOOOOOOOOOOO",
"OOOOOOOOOOOOOOOOOOOOOO    OOOOOOOO    OOOOOOOOOOOOOOOOOOOOOOOOOO",
"OOOOOOOOOOOOOOOOOOOOOO    OOOOOOOO    OOOOOOOOOOOOOOOOOOOOOOOOOO",
"OOOOOOOOOOOOOOOOOOOOOO    OOOOOOOO    OOOOOOOOOOOOOOOOOOOOOOOOOO",
"OOOOOOOOOOOOOOOOOOOOOO    OOOOOOOO    OOOOOOOOOOOOOOOOOOOOOOOOOO",
"OOOOOOOOOOOOOOOOOO                          OOOOOOOOOOOOOOOOOOOO",
"OOOOOOOOOOOOOOOOOO                          OOOOOOOOOOOOOOOOOOOO",
"OOOOOOOOOOOOOO    XXXXXXXXXXXXXXXXXXXXXXXX    OOOOOOOOOOOOOOOOOO",
"OOOOOOOOOOOOOO    XXXXXXXXXXXXXXXXXXXXXXXX    OOOOOOOOOOOOOOOOOO",
"OOOOOOOOOOOO  XXXXXXXXXXXXXXXXXXXXXXXXXXXXXXXX    OOOOOOOOOOOOOO",
"OOOOOOOOOOOO  XXXXXXXXXXXXXXXXXXXXXXXXXXXXXXXX    OOOOOOOOOOOOOO",
"OOOOOOOOOO  XXXXXXXXXXXXXXXXXXXXXXXXXXXXXXXXXXXXXX  OOOOOOOOOOOO",
"OOOOOOOOOO  XXXXXXXXXXXXXXXXXXXXXXXXXXXXXXXXXXXXXX  OOOOOOOOOOOO",
"OOOOOOOO  XXXXXXXXXXXXXXXXXXXXXXXXXXXXXXXXXXXX....XX  OOOOOOOOOO",
"OOOOOOOO  XXXXXXXXXXXXXXXXXXXXXXXXXXXXXXXXXXXX....XX  OOOOOOOOOO",
"OOOOOO  XXXXXXXXXXXXXXXXXXXXXXXXXXXXXXXXXXXXXXXX....XX  OOOOOOOO",
"OOOOOO  XXXXXXXXXXXXXXXXXXXXXXXXXXXXXXXXXXXXXXXX....XX  OOOOOOOO",
"OOOO  XXXXXXXXXXXXooooXXXXXXXXXXXXXXXXooooXXXXXXXX....XX  OOOOOO",
"OOOO  XXXXXXXXXXXXooooXXXXXXXXXXXXXXXXooooXXXXXXXX....XX  OOOOOO",
"OO  XXXXXXXXXXXXooooooooXXXXXXXXXXXXooooooooXXXXXXXX....XX  OOOO",
"OO  XXXXXXXXXXXXooooooooXXXXXXXXXXXXooooooooXXXXXXXX....XX  OOOO",
"OO  XXXXXXXXXXXXooooooooXXXXXXXXXXXXooooooooXXXXXXXXXX..XX  OOOO",
"OO  XXXXXXXXXXXXooooooooXXXXXXXXXXXXooooooooXXXXXXXXXX..XX  OOOO",
"OO  XXXXXXXXXXXXoo    ooXXXXXXXXXXXXoo    ooXXXXXXXXXX..XX  OOOO",
"OO  XXXXXXXXXXXXoo    ooXXXXXXXXXXXXoo    ooXXXXXXXXXX..XX  OOOO",
"OO  XXXXXXXXXXXXoo  ooooXXXXXXXXXXXXoo  ooooXXXXXXXXXX..XX  OOOO",
"OO  XXXXXXXXXXXXoo  ooooXXXXXXXXXXXXoo  ooooXXXXXXXXXX..XX  OOOO",
"OO  XXXXXXXXXXXXXXooooXXXXXXXXXXXXXXXXooooXXXXXXXXXXXX..XX  OOOO",
"OO  XXXXXXXXXXXXXXooooXXXXXXXXXXXXXXXXooooXXXXXXXXXXXX..XX  OOOO",
"OO  XXXXXXXXXXXXXXXXXXXXXXXXXXXXXXXXXXXXXXXXXXXXXXXXXX..XX  OOOO",
"OO  XXXXXXXXXXXXXXXXXXXXXXXXXXXXXXXXXXXXXXXXXXXXXXXXXX..XX  OOOO",
"OO  XXXXXXXXXXXXXXXXXXXXXXXXXXXXXXXXXXXXXXXXXXXXXXXXXX..XX  OOOO",
"OO  XXXXXXXXXXXXXXXXXXXXXXXXXXXXXXXXXXXXXXXXXXXXXXXXXX..XX  OOOO",
"OO  XXXXXXXXXXXXXXXXXXXXXXXXXXXXXXXXXXXXXXXXXXXXXXXXXX..XX  OOOO",
"OO  XXXXXXXXXXXXXXXXXXXXXXXXXXXXXXXXXXXXXXXXXXXXXXXXXX..XX  OOOO",
"OO  XXXXXXXXXXXXXXXXXXXXXX      XXXXXXXXXXXXXXXXXXXXXX..XX  OOOO",
"OO  XXXXXXXXXXXXXXXXXXXXXX      XXXXXXXXXXXXXXXXXXXXXX..XX  OOOO",
"OO  XXXXXXXXXXXXXXXXXXXXXXXX  XXXXXXXXXXXXXXXXXXXXXXXX..XX  OOOO",
"OO  XXXXXXXXXXXXXXXXXXXXXXXX  XXXXXXXXXXXXXXXXXXXXXXXX..XX  OOOO",
"OO  XXXXXXXXXXXXXXXXXXXXXXXXXXXXXXXXXXXXXXXXXXXXXXXX..XXXX  OOOO",
"OO  XXXXXXXXXXXXXXXXXXXXXXXXXXXXXXXXXXXXXXXXXXXXXXXX..XXXX  OOOO",
"OOOO  XXXXXXXXXXXXXXXXXXXXXXXXXXXXXXXXXXXXXXXXXXXX....XX  OOOOOO",
"OOOO  XXXXXXXXXXXXXXXXXXXXXXXXXXXXXXXXXXXXXXXXXXXX....XX  OOOOOO",
"OOOOOO  XXXXXXXXXXXXXXXXXXXXXXXXXXXXXXXXXXXXXXXX....XX  OOOOOOOO",
"OOOOOO  XXXXXXXXXXXXXXXXXXXXXXXXXXXXXXXXXXXXXXXX....XX  OOOOOOOO",
"OOOOOO  XX..XXXXXXXXXXXXXXXXXXXXXXXXXXXXXXXXXX......XX  OOOOOOOO",
"OOOOOO  XX..XXXXXXXXXXXXXXXXXXXXXXXXXXXXXXXXXX......XX  OOOOOOOO",
"OOOO  XXXX....XXXXXXXXXXXXXXXXXXXXXXXXXXXX..........XXXX  OOOOOO",
"OOOO  XXXX....XXXXXXXXXXXXXXXXXXXXXXXXXXXX..........XXXX  OOOOOO",
"OO  XXXX............................................XXXXXX  OOOO",
"OO  XXXX............................................XXXXXX  OOOO",
"OO  XXXX..............................................XXXX  OOOO",
"OO  XXXX..............................................XXXX  OOOO",
"OO                                                          OOOO",
"OO                                                          OOOO"
};
