/* XPM */
static const char *new_left_0[] = {
/* columns rows colors chars-per-pixel */
"64 64 5 1 ",
"  c black",
". c #824040",
"X c #AC5A5A",
"o c white",
"O c None",
/* pixels */
"OOOOOOOOOOOOOOOOOOOOOOOOOOOOOOOOOOOOOOOOOOOOOOOOOOOOOOOOOOOOOOOO",
"OOOOOOOOOOOOOOOOOOOOOOOOOOOOOOOOOOOOOOOOOOOOOOOOOOOOOOOOOOOOOOOO",
"OOOOOOOOOOOOOOOOOOOOOOOOOOOOOOOOOOOOOOOOOOOOOOOOOOOOOOOOOOOOOOOO",
"OOOOOOOOOOOOOOOOOOOOOOOOOOOOOOOOOOOOOOOOOOOOOOOOOOOOOOOOOOOOOOOO",
"OOOOOOOOOOOOOOOOOOOOOOOOOOOO    OOOOOOOOOOOOOOOOOOOOOOOOOOOOOOOO",
"OOOOOOOOOOOOOOOOOOOOOOOOOOOO    OOOOOOOOOOOOOOOOOOOOOOOOOOOOOOOO",
"OOOOOOOOOOOOOOOOOOOOOOOOOO  XXXX  OOOOOOOO    OOOOOOOOOOOOOOOOOO",
"OOOOOOOOOOOOOOOOOOOOOOOOOO  XXXX  OOOOOOOO    OOOOOOOOOOOOOOOOOO",
"OOOOOOOOOOOOOOOOOOOOOOOO  XXXX  OOOOOOOO  XXXX  OOOOOOOOOOOOOOOO",
"OOOOOOOOOOOOOOOOOOOOOOOO  XXXX  OOOOOOOO  XXXX  OOOOOOOOOOOOOOOO",
"OOOOOOOOOOOOOOOOOOOOOO  XXXX  OOOOOOOO  XXXX  OOOOOOOOOOOOOOOOOO",
"OOOOOOOOOOOOOOOOOOOOOO  XXXX  OOOOOOOO  XXXX  OOOOOOOOOOOOOOOOOO",
"OOOOOOOOOOOOOOOOOO    XXXX            XXXX  OOOOOOOOOOOOOOOOOOOO",
"OOOOOOOOOOOOOOOOOO    XXXX            XXXX  OOOOOOOOOOOOOOOOOOOO",
"OOOOOOOOOOOOOO    XXXXXXXXXXXXXXXXXXXXXX      OOOOOOOOOOOOOOOOOO",
"OOOOOOOOOOOOOO    XXXXXXXXXXXXXXXXXXXXXX      OOOOOOOOOOOOOOOOOO",
"OOOOOOOOOOOO  XXXXXXXXXXXXXXXXXXXXXXXXXXXXXXXX    OOOOOOOOOOOOOO",
"OOOOOOOOOOOO  XXXXXXXXXXXXXXXXXXXXXXXXXXXXXXXX    OOOOOOOOOOOOOO",
"OOOOOOOOOO  XXXXXXXXXXXXXXXXXXXXXXXXXXXXXXXXXXXXXX  OOOOOOOOOOOO",
"OOOOOOOOOO  XXXXXXXXXXXXXXXXXXXXXXXXXXXXXXXXXXXXXX  OOOOOOOOOOOO",
"OOOOOOOO  XXXXXXXXXXXXXXXXXXXXXXXXXXXXXXXXXXXX....XX  OOOOOOOOOO",
"OOOOOOOO  XXXXXXXXXXXXXXXXXXXXXXXXXXXXXXXXXXXX....XX  OOOOOOOOOO",
"OOOOOO  XXXXXXXXXXXXXXXXXXXXXXXXXXXXXXXXXXXXXXXX....XX  OOOOOOOO",
"OOOOOO  XXXXXXXXXXXXXXXXXXXXXXXXXXXXXXXXXXXXXXXX....XX  OOOOOOOO",
"OOOO  XXXXooooXXXXXXXXXXXXXXXXooooXXXXXXXXXXXXXX......XX  OOOOOO",
"OOOO  XXXXooooXXXXXXXXXXXXXXXXooooXXXXXXXXXXXXXX......XX  OOOOOO",
"OO  XXXXooooooooXXXXXXXXXXXXooooooooXXXXXXXXXXXXXX....XX  OOOOOO",
"OO  XXXXooooooooXXXXXXXXXXXXooooooooXXXXXXXXXXXXXX....XX  OOOOOO",
"OO  XXXXooooooooXXXXXXXXXXXXooooooooXXXXXXXXXXXXXXXX..XX  OOOOOO",
"OO  XXXXooooooooXXXXXXXXXXXXooooooooXXXXXXXXXXXXXXXX..XX  OOOOOO",
"OO  XXXXoo    ooXXXXXXXXXXXXoo    ooXXXXXXXXXXXXXXXX..XX  OOOOOO",
"OO  XXXXoo    ooXXXXXXXXXXXXoo    ooXXXXXXXXXXXXXXXX..XX  OOOOOO",
"OO  XXXXoo  ooooXXXXXXXXXXXXoo  ooooXXXXXXXXXXXXXXXX..XX    OOOO",
"OO  XXXXoo  ooooXXXXXXXXXXXXoo  ooooXXXXXXXXXXXXXXXX..XX    OOOO",
"OO  XXXXXXooooXXXXXXXXXXXXXXXXooooXXXXXXXXXXXXXXXXXX..XXXX  OOOO",
"OO  XXXXXXooooXXXXXXXXXXXXXXXXooooXXXXXXXXXXXXXXXXXX..XXXX  OOOO",
"OO  XXXXXXXXXXXXXXXXXXXXXXXXXXXXXXXXXXXXXXXXXXXXXXXX....XX  OOOO",
"OO  XXXXXXXXXXXXXXXXXXXXXXXXXXXXXXXXXXXXXXXXXXXXXXXX....XX  OOOO",
"OO  XXXXXXXXXXXXXXXXXXXXXXXXXXXXXXXXXXXXXXXXXXXXXXXXXX..XX  OOOO",
"OO  XXXXXXXXXXXXXXXXXXXXXXXXXXXXXXXXXXXXXXXXXXXXXXXXXX..XX  OOOO",
"OO  XXXXXXXXXXXXXXXXXXXXXXXXXXXXXXXXXXXXXXXXXXXXXXXXXX..XX  OOOO",
"OO  XXXXXXXXXXXXXXXXXXXXXXXXXXXXXXXXXXXXXXXXXXXXXXXXXX..XX  OOOO",
"OO  XXXXXXXXXXXXXX      XXXXXXXXXXXXXXXXXXXXXXXXXXXXXX..XX  OOOO",
"OO  XXXXXXXXXXXXXX      XXXXXXXXXXXXXXXXXXXXXXXXXXXXXX..XX  OOOO",
"OO  XXXXXXXXXXXXXXXX  XXXXXXXXXXXXXXXXXXXXXXXXXXXXXXXX..XX  OOOO",
"OO  XXXXXXXXXXXXXXXX  XXXXXXXXXXXXXXXXXXXXXXXXXXXXXXXX..XX  OOOO",
"OOOO  XXXXXXXXXXXXXXXXXXXXXXXXXXXXXXXXXXXXXXXXXXXXXXXX..XX  OOOO",
"OOOO  XXXXXXXXXXXXXXXXXXXXXXXXXXXXXXXXXXXXXXXXXXXXXXXX..XX  OOOO",
"OOOO  XXXXXXXXXXXXXXXXXXXXXXXXXXXXXXXXXXXXXXXXXXXXXXXX..XX  OOOO",
"OOOO  XXXXXXXXXXXXXXXXXXXXXXXXXXXXXXXXXXXXXXXXXXXXXXXX..XX  OOOO",
"OOOOOO  XXXXXXXXXXXXXXXXXXXXXXXXXXXXXXXXXXXXXXXXXXXXXX..XX    OO",
"OOOOOO  XXXXXXXXXXXXXXXXXXXXXXXXXXXXXXXXXXXXXXXXXXXXXX..XX    OO",
"OOOOOO  XXXXXXXXXXXXXXXXXXXXXXXXXXXXXXXXXXXXXXXXXXXXXX..XXXX  OO",
"OOOOOO  XXXXXXXXXXXXXXXXXXXXXXXXXXXXXXXXXXXXXXXXXXXXXX..XXXX  OO",
"OOOOOOOO  XXXXXXXXXXXXXXXXXXXXXXXXXXXXXXXXXXXXXXXX........XX  OO",
"OOOOOOOO  XXXXXXXXXXXXXXXXXXXXXXXXXXXXXXXXXXXXXXXX........XX  OO",
"OOOOOOOOOO  XXXXXXXXXXXXXXXXXXXXXXXXXXXXXXXXXX............XX  OO",
"OOOOOOOOOO  XXXXXXXXXXXXXXXXXXXXXXXXXXXXXXXXXX............XX  OO",
"OOOOOOOOOOOO    XXXXXXXXXXXXXXXXXXXXXX......................XX  ",
"OOOOOOOOOOOO    XXXXXXXXXXXXXXXXXXXXXX......................XX  ",
"OOOOOOOOOOOOOOOO  ..........................................XX  ",
"OOOOOOOOOOOOOOOO  ..........................................XX  ",
"OOOOOOOOOOOOOOOOOO                                              ",
"OOOOOOOOOOOOOOOOOO                                              "
};
