/* XPM */
static const char *new_left_2[] = {
/* columns rows colors chars-per-pixel */
"64 64 5 1 ",
"  c black",
". c #824040",
"X c #AC5A5A",
"o c white",
"O c None",
/* pixels */
"OOOOOOOOOOOOOOOOOOOOOOOOOOOOOOOOOOOOOOOOOOOOOOOOOOOOOOOOOOOOOOOO",
"OOOOOOOOOOOOOOOOOOOOOOOOOOOOOOOOOOOOOOOOOOOOOOOOOOOOOOOOOOOOOOOO",
"OOOOOOOOOOOOOOOOOOOOOOOOOOOOOOOOOOOOOOOOOOOOOOOOOOOOOOOOOOOOOOOO",
"OOOOOOOOOOOOOOOOOOOOOOOOOOOOOOOOOOOOOOOOOOOOOOOOOOOOOOOOOOOOOOOO",
"OOOOOOOOOOOOOOOOOOOOOOOOOOOOOOOOOOOOOOOOOOOOOOOOOOOOOOOOOOOOOOOO",
"OOOOOOOOOOOOOOOOOOOOOOOOOOOOOOOOOOOOOOOOOOOOOOOOOOOOOOOOOOOOOOOO",
"OOOOOOOOOOOOOOOOOOOOOOOOOOOOOOOOOOOOOOOOOOOOOOOOOOOOOOOOOOOOOOOO",
"OOOOOOOOOOOOOOOOOOOOOOOOOOOOOOOOOOOOOOOOOOOOOOOOOOOOOOOOOOOOOOOO",
"OOOOOOOOOOOOOOOOOOOOOOOOOOOOOOOOOOOOOOOOOOOOOOOOOOOOOOOOOOOOOOOO",
"OOOOOOOOOOOOOOOOOOOOOOOOOOOOOOOOOOOOOOOOOOOOOOOOOOOOOOOOOOOOOOOO",
"OOOOOOOOOOOOOOOOOOOOOOOOOOOO    OOOOOOOOOO    OOOOOOOOOOOOOOOOOO",
"OOOOOOOOOOOOOOOOOOOOOOOOOOOO    OOOOOOOOOO    OOOOOOOOOOOOOOOOOO",
"OOOOOOOOOOOOOOOOOOOOOOOOOO  XXXX  OOOOOO  XXXX  OOOOOOOOOOOOOOOO",
"OOOOOOOOOOOOOOOOOOOOOOOOOO  XXXX  OOOOOO  XXXX  OOOOOOOOOOOOOOOO",
"OOOOOOOOOOOOOOOOOOOOOO    XXXX  OOOOOO  XXXX  OOOOOOOOOOOOOOOOOO",
"OOOOOOOOOOOOOOOOOOOOOO    XXXX  OOOOOO  XXXX  OOOOOOOOOOOOOOOOOO",
"OOOOOOOOOOOOOOOOOO    XXXX            XXXX  OOOOOOOOOOOOOOOOOOOO",
"OOOOOOOOOOOOOOOOOO    XXXX            XXXX  OOOOOOOOOOOOOOOOOOOO",
"OOOOOOOOOOOOOO    XXXXXXXXXXXXXXXXXXXXXX      OOOOOOOOOOOOOOOOOO",
"OOOOOOOOOOOOOO    XXXXXXXXXXXXXXXXXXXXXX      OOOOOOOOOOOOOOOOOO",
"OOOOOOOOOOOO  XXXXXXXXXXXXXXXXXXXXXXXXXXXXXXXX    OOOOOOOOOOOOOO",
"OOOOOOOOOOOO  XXXXXXXXXXXXXXXXXXXXXXXXXXXXXXXX    OOOOOOOOOOOOOO",
"OOOOOOOOOO  XXXXXXXXXXXXXXXXXXXXXXXXXXXXXXXXXXXXXX  OOOOOOOOOOOO",
"OOOOOOOOOO  XXXXXXXXXXXXXXXXXXXXXXXXXXXXXXXXXXXXXX  OOOOOOOOOOOO",
"OOOOOOOO  XXXXXXXXXXXXXXXXXXXXXXXXXXXXXXXXXXXX....XX  OOOOOOOOOO",
"OOOOOOOO  XXXXXXXXXXXXXXXXXXXXXXXXXXXXXXXXXXXX....XX  OOOOOOOOOO",
"OOOOOO  XXXXXXXXXXXXXXXXXXXXXXXXXXXXXXXXXXXXXXXX....XX  OOOOOOOO",
"OOOOOO  XXXXXXXXXXXXXXXXXXXXXXXXXXXXXXXXXXXXXXXX....XX  OOOOOOOO",
"OOOO  XXXXooooXXXXXXXXXXXXXXXXooooXXXXXXXXXXXXXX......XX  OOOOOO",
"OOOO  XXXXooooXXXXXXXXXXXXXXXXooooXXXXXXXXXXXXXX......XX  OOOOOO",
"OO  XXXXooooooooXXXXXXXXXXXXooooooooXXXXXXXXXXXXXX....XX  OOOOOO",
"OO  XXXXooooooooXXXXXXXXXXXXooooooooXXXXXXXXXXXXXX....XX  OOOOOO",
"OO  XXXXooooooooXXXXXXXXXXXXooooooooXXXXXXXXXXXXXXXX..XX  OOOOOO",
"OO  XXXXooooooooXXXXXXXXXXXXooooooooXXXXXXXXXXXXXXXX..XX  OOOOOO",
"OO  XXXXoo    ooXXXXXXXXXXXXoo    ooXXXXXXXXXXXXXXXX..XX  OOOOOO",
"OO  XXXXoo    ooXXXXXXXXXXXXoo    ooXXXXXXXXXXXXXXXX..XX  OOOOOO",
"OO  XXXXoo  ooooXXXXXXXXXXXXoo  ooooXXXXXXXXXXXXXXXX..XX    OOOO",
"OO  XXXXoo  ooooXXXXXXXXXXXXoo  ooooXXXXXXXXXXXXXXXX..XX    OOOO",
"OO  XXXXXXooooXXXXXXXXXXXXXXXXooooXXXXXXXXXXXXXXXXXX..XXXX  OOOO",
"OO  XXXXXXooooXXXXXXXXXXXXXXXXooooXXXXXXXXXXXXXXXXXX..XXXX  OOOO",
"OO  XXXXXXXXXXXXXXXXXXXXXXXXXXXXXXXXXXXXXXXXXXXXXXXX....XX  OOOO",
"OO  XXXXXXXXXXXXXXXXXXXXXXXXXXXXXXXXXXXXXXXXXXXXXXXX....XX  OOOO",
"OO  XXXXXXXXXXXXXXXXXXXXXXXXXXXXXXXXXXXXXXXXXXXXXXXXXX..XX  OOOO",
"OO  XXXXXXXXXXXXXXXXXXXXXXXXXXXXXXXXXXXXXXXXXXXXXXXXXX..XX  OOOO",
"OO  XXXXXXXXXXXXXXXXXXXXXXXXXXXXXXXXXXXXXXXXXXXXXXXXXX..XX  OOOO",
"OO  XXXXXXXXXXXXXXXXXXXXXXXXXXXXXXXXXXXXXXXXXXXXXXXXXX..XX  OOOO",
"OO  XXXXXXXXXXXXXX      XXXXXXXXXXXXXXXXXXXXXXXXXXXXXX..XX  OOOO",
"OO  XXXXXXXXXXXXXX      XXXXXXXXXXXXXXXXXXXXXXXXXXXXXX..XX  OOOO",
"OO  XXXXXXXXXXXXXXXX  XXXXXXXXXXXXXXXXXXXXXXXXXXXXXXXX..XX  OOOO",
"OO  XXXXXXXXXXXXXXXX  XXXXXXXXXXXXXXXXXXXXXXXXXXXXXXXX..XX  OOOO",
"OOOO  XXXXXXXXXXXXXXXXXXXXXXXXXXXXXXXXXXXXXXXXXXXXXX..XXXX  OOOO",
"OOOO  XXXXXXXXXXXXXXXXXXXXXXXXXXXXXXXXXXXXXXXXXXXXXX..XXXX  OOOO",
"OOOO  XXXXXXXXXXXXXXXXXXXXXXXXXXXXXXXXXXXXXXXXXXXX....XX  OOOOOO",
"OOOO  XXXXXXXXXXXXXXXXXXXXXXXXXXXXXXXXXXXXXXXXXXXX....XX  OOOOOO",
"OOOOOO  XXXXXXXXXXXXXXXXXXXXXXXXXXXXXXXXXXXXXXXX......XX    OOOO",
"OOOOOO  XXXXXXXXXXXXXXXXXXXXXXXXXXXXXXXXXXXXXXXX......XX    OOOO",
"OOOOOO  XXXXXXXXXXXXXXXXXXXXXXXXXXXX....................XX  OOOO",
"OOOOOO  XXXXXXXXXXXXXXXXXXXXXXXXXXXX....................XX  OOOO",
"OOOOOOOO      XXXXXXXXXXXXXXXXXXXX....    ................XX  OO",
"OOOOOOOO      XXXXXXXXXXXXXXXXXXXX....    ................XX  OO",
"OOOOOOOOOOOOOO      ................  OOOO  ................  OO",
"OOOOOOOOOOOOOO      ................  OOOO  ................  OO",
"OOOOOOOOOOOOOOOOOO                  OOOOOOOO                  OO",
"OOOOOOOOOOOOOOOOOO                  OOOOOOOO                  OO"
};
