/* XPM */
static const char *new_right_2[] = {
/* columns rows colors chars-per-pixel */
"64 64 5 1 ",
"  c black",
". c #824040",
"X c #AC5A5A",
"o c white",
"O c None",
/* pixels */
"OOOOOOOOOOOOOOOOOOOOOOOOOOOOOOOOOOOOOOOOOOOOOOOOOOOOOOOOOOOOOOOO",
"OOOOOOOOOOOOOOOOOOOOOOOOOOOOOOOOOOOOOOOOOOOOOOOOOOOOOOOOOOOOOOOO",
"OOOOOOOOOOOOOOOOOOOOOOOOOOOOOOOOOOOOOOOOOOOOOOOOOOOOOOOOOOOOOOOO",
"OOOOOOOOOOOOOOOOOOOOOOOOOOOOOOOOOOOOOOOOOOOOOOOOOOOOOOOOOOOOOOOO",
"OOOOOOOOOOOOOOOOOOOOOOOOOOOOOOOOOOOOOOOOOOOOOOOOOOOOOOOOOOOOOOOO",
"OOOOOOOOOOOOOOOOOOOOOOOOOOOOOOOOOOOOOOOOOOOOOOOOOOOOOOOOOOOOOOOO",
"OOOOOOOOOOOOOOOOOOOOOOOOOOOOOOOOOOOOOOOOOOOOOOOOOOOOOOOOOOOOOOOO",
"OOOOOOOOOOOOOOOOOOOOOOOOOOOOOOOOOOOOOOOOOOOOOOOOOOOOOOOOOOOOOOOO",
"OOOOOOOOOOOOOOOOOOOOOOOOOOOOOOOOOOOOOOOOOOOOOOOOOOOOOOOOOOOOOOOO",
"OOOOOOOOOOOOOOOOOOOOOOOOOOOOOOOOOOOOOOOOOOOOOOOOOOOOOOOOOOOOOOOO",
"OOOOOOOOOOOOOOOOOO    OOOOOOOOOO    OOOOOOOOOOOOOOOOOOOOOOOOOOOO",
"OOOOOOOOOOOOOOOOOO    OOOOOOOOOO    OOOOOOOOOOOOOOOOOOOOOOOOOOOO",
"OOOOOOOOOOOOOOOO  XXXX  OOOOOO  XXXX  OOOOOOOOOOOOOOOOOOOOOOOOOO",
"OOOOOOOOOOOOOOOO  XXXX  OOOOOO  XXXX  OOOOOOOOOOOOOOOOOOOOOOOOOO",
"OOOOOOOOOOOOOOOOOO  XXXX  OOOOOO  XXXX    OOOOOOOOOOOOOOOOOOOOOO",
"OOOOOOOOOOOOOOOOOO  XXXX  OOOOOO  XXXX    OOOOOOOOOOOOOOOOOOOOOO",
"OOOOOOOOOOOOOOOOOOOO  XXXX            XXXX    OOOOOOOOOOOOOOOOOO",
"OOOOOOOOOOOOOOOOOOOO  XXXX            XXXX    OOOOOOOOOOOOOOOOOO",
"OOOOOOOOOOOOOOOOOO      XXXXXXXXXXXXXXXXXXXXXX    OOOOOOOOOOOOOO",
"OOOOOOOOOOOOOOOOOO      XXXXXXXXXXXXXXXXXXXXXX    OOOOOOOOOOOOOO",
"OOOOOOOOOOOOOO    XXXXXXXXXXXXXXXXXXXXXXXXXXXXXXXX  OOOOOOOOOOOO",
"OOOOOOOOOOOOOO    XXXXXXXXXXXXXXXXXXXXXXXXXXXXXXXX  OOOOOOOOOOOO",
"OOOOOOOOOOOO  XXXXXXXXXXXXXXXXXXXXXXXXXXXXXXXXXXXXXX  OOOOOOOOOO",
"OOOOOOOOOOOO  XXXXXXXXXXXXXXXXXXXXXXXXXXXXXXXXXXXXXX  OOOOOOOOOO",
"OOOOOOOOOO  XX....XXXXXXXXXXXXXXXXXXXXXXXXXXXXXXXXXXXX  OOOOOOOO",
"OOOOOOOOOO  XX....XXXXXXXXXXXXXXXXXXXXXXXXXXXXXXXXXXXX  OOOOOOOO",
"OOOOOOOO  XX....XXXXXXXXXXXXXXXXXXXXXXXXXXXXXXXXXXXXXXXX  OOOOOO",
"OOOOOOOO  XX....XXXXXXXXXXXXXXXXXXXXXXXXXXXXXXXXXXXXXXXX  OOOOOO",
"OOOOOO  XX......XXXXXXXXXXXXXXooooXXXXXXXXXXXXXXXXooooXXXX  OOOO",
"OOOOOO  XX......XXXXXXXXXXXXXXooooXXXXXXXXXXXXXXXXooooXXXX  OOOO",
"OOOOOO  XX....XXXXXXXXXXXXXXooooooooXXXXXXXXXXXXooooooooXXXX  OO",
"OOOOOO  XX....XXXXXXXXXXXXXXooooooooXXXXXXXXXXXXooooooooXXXX  OO",
"OOOOOO  XX..XXXXXXXXXXXXXXXXooooooooXXXXXXXXXXXXooooooooXXXX  OO",
"OOOOOO  XX..XXXXXXXXXXXXXXXXooooooooXXXXXXXXXXXXooooooooXXXX  OO",
"OOOOOO  XX..XXXXXXXXXXXXXXXXoo    ooXXXXXXXXXXXXoo    ooXXXX  OO",
"OOOOOO  XX..XXXXXXXXXXXXXXXXoo    ooXXXXXXXXXXXXoo    ooXXXX  OO",
"OOOO    XX..XXXXXXXXXXXXXXXXoooo  ooXXXXXXXXXXXXoooo  ooXXXX  OO",
"OOOO    XX..XXXXXXXXXXXXXXXXoooo  ooXXXXXXXXXXXXoooo  ooXXXX  OO",
"OOOO  XXXX..XXXXXXXXXXXXXXXXXXooooXXXXXXXXXXXXXXXXooooXXXXXX  OO",
"OOOO  XXXX..XXXXXXXXXXXXXXXXXXooooXXXXXXXXXXXXXXXXooooXXXXXX  OO",
"OOOO  XX....XXXXXXXXXXXXXXXXXXXXXXXXXXXXXXXXXXXXXXXXXXXXXXXX  OO",
"OOOO  XX....XXXXXXXXXXXXXXXXXXXXXXXXXXXXXXXXXXXXXXXXXXXXXXXX  OO",
"OOOO  XX..XXXXXXXXXXXXXXXXXXXXXXXXXXXXXXXXXXXXXXXXXXXXXXXXXX  OO",
"OOOO  XX..XXXXXXXXXXXXXXXXXXXXXXXXXXXXXXXXXXXXXXXXXXXXXXXXXX  OO",
"OOOO  XX..XXXXXXXXXXXXXXXXXXXXXXXXXXXXXXXXXXXXXXXXXXXXXXXXXX  OO",
"OOOO  XX..XXXXXXXXXXXXXXXXXXXXXXXXXXXXXXXXXXXXXXXXXXXXXXXXXX  OO",
"OOOO  XX..XXXXXXXXXXXXXXXXXXXXXXXXXXXXXX      XXXXXXXXXXXXXX  OO",
"OOOO  XX..XXXXXXXXXXXXXXXXXXXXXXXXXXXXXX      XXXXXXXXXXXXXX  OO",
"OOOO  XX..XXXXXXXXXXXXXXXXXXXXXXXXXXXXXXXX  XXXXXXXXXXXXXXXX  OO",
"OOOO  XX..XXXXXXXXXXXXXXXXXXXXXXXXXXXXXXXX  XXXXXXXXXXXXXXXX  OO",
"OOOO  XXXX..XXXXXXXXXXXXXXXXXXXXXXXXXXXXXXXXXXXXXXXXXXXXXX  OOOO",
"OOOO  XXXX..XXXXXXXXXXXXXXXXXXXXXXXXXXXXXXXXXXXXXXXXXXXXXX  OOOO",
"OOOOOO  XX....XXXXXXXXXXXXXXXXXXXXXXXXXXXXXXXXXXXXXXXXXXXX  OOOO",
"OOOOOO  XX....XXXXXXXXXXXXXXXXXXXXXXXXXXXXXXXXXXXXXXXXXXXX  OOOO",
"OOOO    XX......XXXXXXXXXXXXXXXXXXXXXXXXXXXXXXXXXXXXXXXX  OOOOOO",
"OOOO    XX......XXXXXXXXXXXXXXXXXXXXXXXXXXXXXXXXXXXXXXXX  OOOOOO",
"OOOO  XX....................XXXXXXXXXXXXXXXXXXXXXXXXXXXX  OOOOOO",
"OOOO  XX....................XXXXXXXXXXXXXXXXXXXXXXXXXXXX  OOOOOO",
"OO  XX................    ....XXXXXXXXXXXXXXXXXXXX      OOOOOOOO",
"OO  XX................    ....XXXXXXXXXXXXXXXXXXXX      OOOOOOOO",
"OO  ................  OOOO  ................      OOOOOOOOOOOOOO",
"OO  ................  OOOO  ................      OOOOOOOOOOOOOO",
"OO                  OOOOOOOO                  OOOOOOOOOOOOOOOOOO",
"OO                  OOOOOOOO                  OOOOOOOOOOOOOOOOOO"
};
