/* XPM */
static const char *new_right_0[] = {
/* columns rows colors chars-per-pixel */
"64 64 5 1 ",
"  c black",
". c #824040",
"X c #AC5A5A",
"o c white",
"O c None",
/* pixels */
"OOOOOOOOOOOOOOOOOOOOOOOOOOOOOOOOOOOOOOOOOOOOOOOOOOOOOOOOOOOOOOOO",
"OOOOOOOOOOOOOOOOOOOOOOOOOOOOOOOOOOOOOOOOOOOOOOOOOOOOOOOOOOOOOOOO",
"OOOOOOOOOOOOOOOOOOOOOOOOOOOOOOOOOOOOOOOOOOOOOOOOOOOOOOOOOOOOOOOO",
"OOOOOOOOOOOOOOOOOOOOOOOOOOOOOOOOOOOOOOOOOOOOOOOOOOOOOOOOOOOOOOOO",
"OOOOOOOOOOOOOOOOOOOOOOOOOOOOOOOO    OOOOOOOOOOOOOOOOOOOOOOOOOOOO",
"OOOOOOOOOOOOOOOOOOOOOOOOOOOOOOOO    OOOOOOOOOOOOOOOOOOOOOOOOOOOO",
"OOOOOOOOOOOOOOOOOO    OOOOOOOO  XXXX  OOOOOOOOOOOOOOOOOOOOOOOOOO",
"OOOOOOOOOOOOOOOOOO    OOOOOOOO  XXXX  OOOOOOOOOOOOOOOOOOOOOOOOOO",
"OOOOOOOOOOOOOOOO  XXXX  OOOOOOOO  XXXX  OOOOOOOOOOOOOOOOOOOOOOOO",
"OOOOOOOOOOOOOOOO  XXXX  OOOOOOOO  XXXX  OOOOOOOOOOOOOOOOOOOOOOOO",
"OOOOOOOOOOOOOOOOOO  XXXX  OOOOOOOO  XXXX  OOOOOOOOOOOOOOOOOOOOOO",
"OOOOOOOOOOOOOOOOOO  XXXX  OOOOOOOO  XXXX  OOOOOOOOOOOOOOOOOOOOOO",
"OOOOOOOOOOOOOOOOOOOO  XXXX            XXXX    OOOOOOOOOOOOOOOOOO",
"OOOOOOOOOOOOOOOOOOOO  XXXX            XXXX    OOOOOOOOOOOOOOOOOO",
"OOOOOOOOOOOOOOOOOO      XXXXXXXXXXXXXXXXXXXXXX    OOOOOOOOOOOOOO",
"OOOOOOOOOOOOOOOOOO      XXXXXXXXXXXXXXXXXXXXXX    OOOOOOOOOOOOOO",
"OOOOOOOOOOOOOO    XXXXXXXXXXXXXXXXXXXXXXXXXXXXXXXX  OOOOOOOOOOOO",
"OOOOOOOOOOOOOO    XXXXXXXXXXXXXXXXXXXXXXXXXXXXXXXX  OOOOOOOOOOOO",
"OOOOOOOOOOOO  XXXXXXXXXXXXXXXXXXXXXXXXXXXXXXXXXXXXXX  OOOOOOOOOO",
"OOOOOOOOOOOO  XXXXXXXXXXXXXXXXXXXXXXXXXXXXXXXXXXXXXX  OOOOOOOOOO",
"OOOOOOOOOO  XX....XXXXXXXXXXXXXXXXXXXXXXXXXXXXXXXXXXXX  OOOOOOOO",
"OOOOOOOOOO  XX....XXXXXXXXXXXXXXXXXXXXXXXXXXXXXXXXXXXX  OOOOOOOO",
"OOOOOOOO  XX....XXXXXXXXXXXXXXXXXXXXXXXXXXXXXXXXXXXXXXXX  OOOOOO",
"OOOOOOOO  XX....XXXXXXXXXXXXXXXXXXXXXXXXXXXXXXXXXXXXXXXX  OOOOOO",
"OOOOOO  XX......XXXXXXXXXXXXXXooooXXXXXXXXXXXXXXXXooooXXXX  OOOO",
"OOOOOO  XX......XXXXXXXXXXXXXXooooXXXXXXXXXXXXXXXXooooXXXX  OOOO",
"OOOOOO  XX....XXXXXXXXXXXXXXooooooooXXXXXXXXXXXXooooooooXXXX  OO",
"OOOOOO  XX....XXXXXXXXXXXXXXooooooooXXXXXXXXXXXXooooooooXXXX  OO",
"OOOOOO  XX..XXXXXXXXXXXXXXXXooooooooXXXXXXXXXXXXooooooooXXXX  OO",
"OOOOOO  XX..XXXXXXXXXXXXXXXXooooooooXXXXXXXXXXXXooooooooXXXX  OO",
"OOOOOO  XX..XXXXXXXXXXXXXXXXoo    ooXXXXXXXXXXXXoo    ooXXXX  OO",
"OOOOOO  XX..XXXXXXXXXXXXXXXXoo    ooXXXXXXXXXXXXoo    ooXXXX  OO",
"OOOO    XX..XXXXXXXXXXXXXXXXoooo  ooXXXXXXXXXXXXoooo  ooXXXX  OO",
"OOOO    XX..XXXXXXXXXXXXXXXXoooo  ooXXXXXXXXXXXXoooo  ooXXXX  OO",
"OOOO  XXXX..XXXXXXXXXXXXXXXXXXooooXXXXXXXXXXXXXXXXooooXXXXXX  OO",
"OOOO  XXXX..XXXXXXXXXXXXXXXXXXooooXXXXXXXXXXXXXXXXooooXXXXXX  OO",
"OOOO  XX....XXXXXXXXXXXXXXXXXXXXXXXXXXXXXXXXXXXXXXXXXXXXXXXX  OO",
"OOOO  XX....XXXXXXXXXXXXXXXXXXXXXXXXXXXXXXXXXXXXXXXXXXXXXXXX  OO",
"OOOO  XX..XXXXXXXXXXXXXXXXXXXXXXXXXXXXXXXXXXXXXXXXXXXXXXXXXX  OO",
"OOOO  XX..XXXXXXXXXXXXXXXXXXXXXXXXXXXXXXXXXXXXXXXXXXXXXXXXXX  OO",
"OOOO  XX..XXXXXXXXXXXXXXXXXXXXXXXXXXXXXXXXXXXXXXXXXXXXXXXXXX  OO",
"OOOO  XX..XXXXXXXXXXXXXXXXXXXXXXXXXXXXXXXXXXXXXXXXXXXXXXXXXX  OO",
"OOOO  XX..XXXXXXXXXXXXXXXXXXXXXXXXXXXXXX      XXXXXXXXXXXXXX  OO",
"OOOO  XX..XXXXXXXXXXXXXXXXXXXXXXXXXXXXXX      XXXXXXXXXXXXXX  OO",
"OOOO  XX..XXXXXXXXXXXXXXXXXXXXXXXXXXXXXXXX  XXXXXXXXXXXXXXXX  OO",
"OOOO  XX..XXXXXXXXXXXXXXXXXXXXXXXXXXXXXXXX  XXXXXXXXXXXXXXXX  OO",
"OOOO  XX..XXXXXXXXXXXXXXXXXXXXXXXXXXXXXXXXXXXXXXXXXXXXXXXX  OOOO",
"OOOO  XX..XXXXXXXXXXXXXXXXXXXXXXXXXXXXXXXXXXXXXXXXXXXXXXXX  OOOO",
"OOOO  XX..XXXXXXXXXXXXXXXXXXXXXXXXXXXXXXXXXXXXXXXXXXXXXXXX  OOOO",
"OOOO  XX..XXXXXXXXXXXXXXXXXXXXXXXXXXXXXXXXXXXXXXXXXXXXXXXX  OOOO",
"OO    XX..XXXXXXXXXXXXXXXXXXXXXXXXXXXXXXXXXXXXXXXXXXXXXX  OOOOOO",
"OO    XX..XXXXXXXXXXXXXXXXXXXXXXXXXXXXXXXXXXXXXXXXXXXXXX  OOOOOO",
"OO  XXXX..XXXXXXXXXXXXXXXXXXXXXXXXXXXXXXXXXXXXXXXXXXXXXX  OOOOOO",
"OO  XXXX..XXXXXXXXXXXXXXXXXXXXXXXXXXXXXXXXXXXXXXXXXXXXXX  OOOOOO",
"OO  XX........XXXXXXXXXXXXXXXXXXXXXXXXXXXXXXXXXXXXXXXX  OOOOOOOO",
"OO  XX........XXXXXXXXXXXXXXXXXXXXXXXXXXXXXXXXXXXXXXXX  OOOOOOOO",
"OO  XX............XXXXXXXXXXXXXXXXXXXXXXXXXXXXXXXXXX  OOOOOOOOOO",
"OO  XX............XXXXXXXXXXXXXXXXXXXXXXXXXXXXXXXXXX  OOOOOOOOOO",
"  XX......................XXXXXXXXXXXXXXXXXXXXXX    OOOOOOOOOOOO",
"  XX......................XXXXXXXXXXXXXXXXXXXXXX    OOOOOOOOOOOO",
"  XX..........................................  OOOOOOOOOOOOOOOO",
"  XX..........................................  OOOOOOOOOOOOOOOO",
"                                              OOOOOOOOOOOOOOOOOO",
"                                              OOOOOOOOOOOOOOOOOO"
};
