/* XPM */
static const char *new_up_0[] = {
/* columns rows colors chars-per-pixel */
"64 64 4 1 ",
"  c black",
". c #824040",
"X c #AC5A5A",
"o c None",
/* pixels */
"oooooooooooooooooooooooooooooooooooooooooooooooooooooooooooooooo",
"oooooooooooooooooooooooooooooooooooooooooooooooooooooooooooooooo",
"oooooooooooooooooooo    oooooooooo    oooooooooooooooooooooooooo",
"oooooooooooooooooooo    oooooooooo    oooooooooooooooooooooooooo",
"oooooooooooooooooo  XXXX  oooooo  XXXX  oooooooooooooooooooooooo",
"oooooooooooooooooo  XXXX  oooooo  XXXX  oooooooooooooooooooooooo",
"oooooooooooooooooooo  XX  oooooooo  XX  oooooooooooooooooooooooo",
"oooooooooooooooooooo  XX  oooooooo  XX  oooooooooooooooooooooooo",
"oooooooooooooooooooooo    oooooooooo    oooooooooooooooooooooooo",
"oooooooooooooooooooooo    oooooooooo    oooooooooooooooooooooooo",
"oooooooooooooooooooooo    oooooooooo    oooooooooooooooooooooooo",
"oooooooooooooooooooooo    oooooooooo    oooooooooooooooooooooooo",
"oooooooooooooooooo                            oooooooooooooooooo",
"oooooooooooooooooo                            oooooooooooooooooo",
"oooooooooooooo    XXXXXXXXXXXXXXXXXXXXXXXXXX    oooooooooooooooo",
"oooooooooooooo    XXXXXXXXXXXXXXXXXXXXXXXXXX    oooooooooooooooo",
"oooooooooooo  XXXXXXXXXXXXXXXXXXXXXXXXXXXXXXXXXX    oooooooooooo",
"oooooooooooo  XXXXXXXXXXXXXXXXXXXXXXXXXXXXXXXXXX    oooooooooooo",
"oooooooooo  XXXXXXXXXXXXXXXXXXXXXXXXXXXXXXXXXXXXXXXX  oooooooooo",
"oooooooooo  XXXXXXXXXXXXXXXXXXXXXXXXXXXXXXXXXXXXXXXX  oooooooooo",
"oooooooo  XXXXXXXXXXXXXXXXXXXXXXXXXXXXXXXXXXXXXX....XX  oooooooo",
"oooooooo  XXXXXXXXXXXXXXXXXXXXXXXXXXXXXXXXXXXXXX....XX  oooooooo",
"oooooo  XXXXXXXXXXXXXXXXXXXXXXXXXXXXXXXXXXXXXXXXXX....XX  oooooo",
"oooooo  XXXXXXXXXXXXXXXXXXXXXXXXXXXXXXXXXXXXXXXXXX....XX  oooooo",
"oooo  XXXXXXXXXXXXXXXXXXXXXXXXXXXXXXXXXXXXXXXXXXXXXX....XX  oooo",
"oooo  XXXXXXXXXXXXXXXXXXXXXXXXXXXXXXXXXXXXXXXXXXXXXX....XX  oooo",
"oo  XXXXXXXXXXXXXXXXXXXXXXXXXXXXXXXXXXXXXXXXXXXXXXXXXX....XX  oo",
"oo  XXXXXXXXXXXXXXXXXXXXXXXXXXXXXXXXXXXXXXXXXXXXXXXXXX....XX  oo",
"oo  XXXXXXXXXXXXXXXXXXXXXXXXXXXXXXXXXXXXXXXXXXXXXXXXXXXX..XX  oo",
"oo  XXXXXXXXXXXXXXXXXXXXXXXXXXXXXXXXXXXXXXXXXXXXXXXXXXXX..XX  oo",
"oo  XXXXXXXXXXXXXXXXXXXXXXXXXXXXXXXXXXXXXXXXXXXXXXXXXXXX..XX  oo",
"oo  XXXXXXXXXXXXXXXXXXXXXXXXXXXXXXXXXXXXXXXXXXXXXXXXXXXX..XX  oo",
"oo  XXXXXXXXXXXXXXXXXXXXXXXXXXXXXXXXXXXXXXXXXXXXXXXXXXXX..XX  oo",
"oo  XXXXXXXXXXXXXXXXXXXXXXXXXXXXXXXXXXXXXXXXXXXXXXXXXXXX..XX  oo",
"oo  XXXXXXXXXXXXXXXXXXXXXXXXXXXXXXXXXXXXXXXXXXXXXXXXXXXX..XX  oo",
"oo  XXXXXXXXXXXXXXXXXXXXXXXXXXXXXXXXXXXXXXXXXXXXXXXXXXXX..XX  oo",
"oo  XXXXXXXXXXXXXXXXXXXXXXXXXXXXXXXXXXXXXXXXXXXXXXXXXXXX..XX  oo",
"oo  XXXXXXXXXXXXXXXXXXXXXXXXXXXXXXXXXXXXXXXXXXXXXXXXXXXX..XX  oo",
"oo  XXXXXXXXXXXXXXXXXXXXXXXXXXXXXXXXXXXXXXXXXXXXXXXXXXXX..XX  oo",
"oo  XXXXXXXXXXXXXXXXXXXXXXXXXXXXXXXXXXXXXXXXXXXXXXXXXXXX..XX  oo",
"oo  XXXXXXXXXXXXXXXXXXXXXXXXXXXXXXXXXXXXXXXXXXXXXXXXXXXX..XX  oo",
"oo  XXXXXXXXXXXXXXXXXXXXXXXXXXXXXXXXXXXXXXXXXXXXXXXXXXXX..XX  oo",
"oo  XXXXXXXXXXXXXXXXXXXXXXXXXXXXXXXXXXXXXXXXXXXXXXXXXXXX..XX  oo",
"oo  XXXXXXXXXXXXXXXXXXXXXXXXXXXXXXXXXXXXXXXXXXXXXXXXXXXX..XX  oo",
"oo  XXXXXXXXXXXXXXXXXXXXXXXXXXXXXXXXXXXXXXXXXXXXXXXXXXXX..XX  oo",
"oo  XXXXXXXXXXXXXXXXXXXXXXXXXXXXXXXXXXXXXXXXXXXXXXXXXXXX..XX  oo",
"oo  XXXXXXXXXXXXXXXXXXXXXXXXXXXXXXXXXXXXXXXXXXXXXXXXXX..XXXX  oo",
"oo  XXXXXXXXXXXXXXXXXXXXXXXXXXXXXXXXXXXXXXXXXXXXXXXXXX..XXXX  oo",
"oooo  XXXXXXXXXXXXXXXXXXXXXXXXXXXXXXXXXXXXXXXXXXXXXXXX..XX  oooo",
"oooo  XXXXXXXXXXXXXXXXXXXXXXXXXXXXXXXXXXXXXXXXXXXXXXXX..XX  oooo",
"oooo  XXXXXXXXXXXXXXXXXXXXXXXXXXXXXXXXXXXXXXXXXXXXXX..XXXX  oooo",
"oooo  XXXXXXXXXXXXXXXXXXXXXXXXXXXXXXXXXXXXXXXXXXXXXX..XXXX  oooo",
"oooooo  XXXXXXXXXXXXXXXXXXXXXXXXXXXXXXXXXXXXXXXXXXXX..XX  oooooo",
"oooooo  XXXXXXXXXXXXXXXXXXXXXXXXXXXXXXXXXXXXXXXXXXXX..XX  oooooo",
"oooooo  XXXXXXXXXXXXXXXXXXXXXXXXXXXXXXXXXXXXXXXXXX....XX  oooooo",
"oooooo  XXXXXXXXXXXXXXXXXXXXXXXXXXXXXXXXXXXXXXXXXX....XX  oooooo",
"oooooo  XX..XXXXXXXXXXXXXXXXXXXXXXXXXXXXXXXXXXXX......XX  oooooo",
"oooooo  XX..XXXXXXXXXXXXXXXXXXXXXXXXXXXXXXXXXXXX......XX  oooooo",
"oooo  XXXX....XXXXXXXXXXXXXXXXXXXXXXXXXXXXXX..........XXXX  oooo",
"oooo  XXXX....XXXXXXXXXXXXXXXXXXXXXXXXXXXXXX..........XXXX  oooo",
"oo  XXXX................................................XXXX  oo",
"oo  XXXX................................................XXXX  oo",
"oo                                                            oo",
"oo                                                            oo"
};
