/* XPM */
static const char *new_up_1[] = {
/* columns rows colors chars-per-pixel */
"64 64 4 1 ",
"  c black",
". c #824040",
"X c #AC5A5A",
"o c None",
/* pixels */
"oooooooooooooooooooooooooooooooooooooooooooooooooooooooooooooooo",
"oooooooooooooooooooooooooooooooooooooooooooooooooooooooooooooooo",
"oooooooooooooooooooooooooooooooooooooooooooooooooooooooooooooooo",
"oooooooooooooooooooooooooooooooooooooooooooooooooooooooooooooooo",
"oooooooooooooooooooo    oooooooo    oooooooooooooooooooooooooooo",
"oooooooooooooooooooo    oooooooo    oooooooooooooooooooooooooooo",
"oooooooooooooooooo  XXXX  oooo  XXXX  oooooooooooooooooooooooooo",
"oooooooooooooooooo  XXXX  oooo  XXXX  oooooooooooooooooooooooooo",
"oooooooooooooooooooo  XX  oooooo  XX  oooooooooooooooooooooooooo",
"oooooooooooooooooooo  XX  oooooo  XX  oooooooooooooooooooooooooo",
"oooooooooooooooooooooo    oooooooo    oooooooooooooooooooooooooo",
"oooooooooooooooooooooo    oooooooo    oooooooooooooooooooooooooo",
"oooooooooooooooooooooo    oooooooo    oooooooooooooooooooooooooo",
"oooooooooooooooooooooo    oooooooo    oooooooooooooooooooooooooo",
"oooooooooooooooooo                          oooooooooooooooooooo",
"oooooooooooooooooo                          oooooooooooooooooooo",
"oooooooooooooo    XXXXXXXXXXXXXXXXXXXXXXXX    oooooooooooooooooo",
"oooooooooooooo    XXXXXXXXXXXXXXXXXXXXXXXX    oooooooooooooooooo",
"oooooooooooo  XXXXXXXXXXXXXXXXXXXXXXXXXXXXXXXX    oooooooooooooo",
"oooooooooooo  XXXXXXXXXXXXXXXXXXXXXXXXXXXXXXXX    oooooooooooooo",
"oooooooooo  XXXXXXXXXXXXXXXXXXXXXXXXXXXXXXXXXXXXXX  oooooooooooo",
"oooooooooo  XXXXXXXXXXXXXXXXXXXXXXXXXXXXXXXXXXXXXX  oooooooooooo",
"oooooooo  XXXXXXXXXXXXXXXXXXXXXXXXXXXXXXXXXXXX....XX  oooooooooo",
"oooooooo  XXXXXXXXXXXXXXXXXXXXXXXXXXXXXXXXXXXX....XX  oooooooooo",
"oooooo  XXXXXXXXXXXXXXXXXXXXXXXXXXXXXXXXXXXXXXXX....XX  oooooooo",
"oooooo  XXXXXXXXXXXXXXXXXXXXXXXXXXXXXXXXXXXXXXXX....XX  oooooooo",
"oooo  XXXXXXXXXXXXXXXXXXXXXXXXXXXXXXXXXXXXXXXXXXXX....XX  oooooo",
"oooo  XXXXXXXXXXXXXXXXXXXXXXXXXXXXXXXXXXXXXXXXXXXX....XX  oooooo",
"oo  XXXXXXXXXXXXXXXXXXXXXXXXXXXXXXXXXXXXXXXXXXXXXXXX....XX  oooo",
"oo  XXXXXXXXXXXXXXXXXXXXXXXXXXXXXXXXXXXXXXXXXXXXXXXX....XX  oooo",
"oo  XXXXXXXXXXXXXXXXXXXXXXXXXXXXXXXXXXXXXXXXXXXXXXXXXX..XX  oooo",
"oo  XXXXXXXXXXXXXXXXXXXXXXXXXXXXXXXXXXXXXXXXXXXXXXXXXX..XX  oooo",
"oo  XXXXXXXXXXXXXXXXXXXXXXXXXXXXXXXXXXXXXXXXXXXXXXXXXX..XX  oooo",
"oo  XXXXXXXXXXXXXXXXXXXXXXXXXXXXXXXXXXXXXXXXXXXXXXXXXX..XX  oooo",
"oo  XXXXXXXXXXXXXXXXXXXXXXXXXXXXXXXXXXXXXXXXXXXXXXXXXX..XX  oooo",
"oo  XXXXXXXXXXXXXXXXXXXXXXXXXXXXXXXXXXXXXXXXXXXXXXXXXX..XX  oooo",
"oo  XXXXXXXXXXXXXXXXXXXXXXXXXXXXXXXXXXXXXXXXXXXXXXXXXX..XX  oooo",
"oo  XXXXXXXXXXXXXXXXXXXXXXXXXXXXXXXXXXXXXXXXXXXXXXXXXX..XX  oooo",
"oo  XXXXXXXXXXXXXXXXXXXXXXXXXXXXXXXXXXXXXXXXXXXXXXXXXX..XX  oooo",
"oo  XXXXXXXXXXXXXXXXXXXXXXXXXXXXXXXXXXXXXXXXXXXXXXXXXX..XX  oooo",
"oo  XXXXXXXXXXXXXXXXXXXXXXXXXXXXXXXXXXXXXXXXXXXXXXXXXX..XX  oooo",
"oo  XXXXXXXXXXXXXXXXXXXXXXXXXXXXXXXXXXXXXXXXXXXXXXXXXX..XX  oooo",
"oo  XXXXXXXXXXXXXXXXXXXXXXXXXXXXXXXXXXXXXXXXXXXXXXXXXX..XX  oooo",
"oo  XXXXXXXXXXXXXXXXXXXXXXXXXXXXXXXXXXXXXXXXXXXXXXXXXX..XX  oooo",
"oo  XXXXXXXXXXXXXXXXXXXXXXXXXXXXXXXXXXXXXXXXXXXXXXXXXX..XX  oooo",
"oo  XXXXXXXXXXXXXXXXXXXXXXXXXXXXXXXXXXXXXXXXXXXXXXXXXX..XX  oooo",
"oo  XXXXXXXXXXXXXXXXXXXXXXXXXXXXXXXXXXXXXXXXXXXXXXXXXX..XX  oooo",
"oo  XXXXXXXXXXXXXXXXXXXXXXXXXXXXXXXXXXXXXXXXXXXXXXXXXX..XX  oooo",
"oo  XXXXXXXXXXXXXXXXXXXXXXXXXXXXXXXXXXXXXXXXXXXXXXXX..XXXX  oooo",
"oo  XXXXXXXXXXXXXXXXXXXXXXXXXXXXXXXXXXXXXXXXXXXXXXXX..XXXX  oooo",
"oooo  XXXXXXXXXXXXXXXXXXXXXXXXXXXXXXXXXXXXXXXXXXXXXX..XX  oooooo",
"oooo  XXXXXXXXXXXXXXXXXXXXXXXXXXXXXXXXXXXXXXXXXXXXXX..XX  oooooo",
"oooooo  XXXXXXXXXXXXXXXXXXXXXXXXXXXXXXXXXXXXXXXX....XX  oooooooo",
"oooooo  XXXXXXXXXXXXXXXXXXXXXXXXXXXXXXXXXXXXXXXX....XX  oooooooo",
"oooooo  XX..XXXXXXXXXXXXXXXXXXXXXXXXXXXXXXXXXX......XX  oooooooo",
"oooooo  XX..XXXXXXXXXXXXXXXXXXXXXXXXXXXXXXXXXX......XX  oooooooo",
"oooo  XXXX....XXXXXXXXXXXXXXXXXXXXXXXXXXXXXX........XXXX  oooooo",
"oooo  XXXX....XXXXXXXXXXXXXXXXXXXXXXXXXXXXXX........XXXX  oooooo",
"oo  XXXXXX..........................................XXXXXX  oooo",
"oo  XXXXXX..........................................XXXXXX  oooo",
"oo  XXXX..............................................XXXX  oooo",
"oo  XXXX..............................................XXXX  oooo",
"oo                                                          oooo",
"oo                                                          oooo"
};
