/* XPM */
static char * newcoin2_xpm[] = {
"32 32 5 1",
" 	c None",
".	c #F5C94A",
"+	c #F4AA38",
"@	c #E48334",
"#	c #F8E97D",
"                                ",
"                                ",
"                                ",
"            ........            ",
"          ............          ",
"        ....++++++++....        ",
"       ...++@@@@@###++...       ",
"      ..++@@@@@@#++@#@++..      ",
"     ..+@@@@@@@#@.##@#@@+..     ",
"     ..+#######@.###+#@@+..     ",
"    ..+#+@@+++@.####+#@@@+..    ",
"    ..+#@###########@#@@@+..    ",
"   ..+@#+.##########.@#@@@+..   ",
"   ..+@@#+.##########.@@#@+..   ",
"   ..+@@@#@.###########.@#+..   ",
"   ..+@@@@#@.############@#..   ",
"   ..+@@@@#@.############@#..   ",
"   ..+@@@#@.###########.@#+..   ",
"   ..+@@#+.##########.@@#@+..   ",
"   ..+@#+.##########.@#@@@+..   ",
"    ..+#@###########+#@@@+..    ",
"    ..+#+@@+++@.####+#@@@+..    ",
"     ..+#######@.###@#@@+..     ",
"     ..+@@@@@@@#@.##@#@@+..     ",
"      ..++@@@@@@#@@@#@++..      ",
"       ...++@@@@@###++...       ",
"        ....++++++++....        ",
"          ............          ",
"            ........            ",
"                                ",
"                                ",
"                                "};
