/* XPM */
static char * floor3_xpm[] = {
"32 32 11 1",
" 	c #5B3374",
".	c #5C8BA8",
"+	c #4E6679",
"@	c #E3A084",
"#	c #F2A561",
"$	c #80B878",
"%	c #B1D480",
"&	c #D37B86",
"*	c #AF5D8B",
"=	c #F2CB9B",
"-	c #FCEF8D",
" ..++..  @@##@@  $$%%$$  ..++.. ",
".++++++.@######@$%%%%%%$.++++++.",
".++++++.@######@$%%%%%%$.++++++.",
"++++++++########%%%%%%%%++++++++",
"++++++++########%%%%%%%%++++++++",
".++++++.@######@$%%%%%%$.++++++.",
".++++++.@######@$%%%%%%$.++++++.",
" ..++..  @@##@@  $$%%$$  ..++.. ",
" &&**&&  $$%%$$  ..++..  &&**&& ",
"&******&$%%%%%%$.++++++.&******&",
"&******&$%%%%%%$.++++++.&******&",
"********%%%%%%%%++++++++********",
"********%%%%%%%%++++++++********",
"&******&$%%%%%%$.++++++.&******&",
"&******&$%%%%%%$.++++++.&******&",
" &&**&&  $$%%$$  ..++..  &&**&& ",
" ==--==  ..++..  @@##@@  ==--== ",
"=------=.++++++.@######@=------=",
"=------=.++++++.@######@=------=",
"--------++++++++########--------",
"--------++++++++########--------",
"=------=.++++++.@######@=------=",
"=------=.++++++.@######@=------=",
" ==--==  ..++..  @@##@@  ==--== ",
" @@##@@  $$%%$$  ..++..  &&**&& ",
"@######@$%%%%%%$.++++++.&******&",
"@######@$%%%%%%$.++++++.&******&",
"########%%%%%%%%++++++++********",
"########%%%%%%%%++++++++********",
"@######@$%%%%%%$.++++++.&******&",
"@######@$%%%%%%$.++++++.&******&",
" @@##@@  $$%%$$  ..++..  &&**&& "};
