/* XPM */
static char * enemy_1_xpm[] = {
"32 32 5 1",
" 	c None",
".	c #6EE4FF",
"+	c #5ACBFD",
"@	c #98FFF6",
"#	c #FFFFFF",
"           ..........           ",
"       ....++++++++++....       ",
"    ...++++++++++++++++++...    ",
"  ..++++++++++++++++++++++++..  ",
" .++++++++++++++++++++++++++++. ",
".++++++++++++++++++++++++++++++.",
".++++++++++++++++++++++++++++++.",
"@.++++++++++++++++++++++++++++.@",
" @..++++++++++++++++++++++++..@ ",
"  @@...++++++++++++++++++...@@  ",
"   @@##....++++++++++....##@@   ",
"    @@#####..........#####@@    ",
"    @@@##################@@@    ",
"     .@@#################@.     ",
"      .@@@##############@.      ",
"      @@##@@@@##########@@      ",
"       .@@############@@.       ",
"       @@#@@@#@########@@       ",
"      @@################@@      ",
"      @.@@#############@.@      ",
"       @..@@########@@..@       ",
"        @@##@@@@######@@        ",
"         @@@########@@@         ",
"           .@######@.           ",
"            ..@@@@..            ",
"            .@####@.            ",
"            @.@@@@@@            ",
"             @@##@@             ",
"             @####@             ",
"             @@##@@             ",
"              @@@@              ",
"                                "};
