/* XPM */
static char * enemy3_xpm[] = {
"32 32 6 1",
" 	c None",
".	c #624169",
"+	c #7B5480",
"@	c #906C8F",
"#	c #A6859F",
"$	c #D9BDC8",
"                                ",
"             .+++++++.          ",
"          .++++@@#++@@+.        ",
"     .  .+++@@##@@@@+.  +       ",
"    +  +++@@#$#@###@@@+.        ",
"   .@ .++@#$$#@######@@@+ +     ",
"   +  ++@#$$####$$$####@@.+.    ",
"  .+ .++@#$$##$$$$$$$####@++.   ",
"  +@ ++@#$$$#$$$$$$#######@.+   ",
"  +@ +@@#$$$$$$$$$$#$$$$$##@+.  ",
"  +@.@@##$$$$$$$$$$$$$$$$$#@++  ",
" .@@+@###$$$$$$$$$$$$$$###$#@+. ",
" +@@+@#$#$$$$$$$$$$$$$$#@@@#@++ ",
" +@#+@#$$$$$$$$$$$$$$$$$#@+@#@+ ",
" +@#@+#$$$$$$$$$$$$$$$$##@++@@+ ",
" +@##+@$$$$$$$$$$$$$$$####@++@+ ",
" +@@#@@#$$$$$$$$$$$$$$$$##@+ #+ ",
" .+@##@##$$$$$$$$$$$$$$$$##@  + ",
"  +@#$#@$$$$$$$$$$$$$$$$$$#@+ + ",
" +.+#$$#$$$$$$$$$$$$$$$$#$#@+ @ ",
" @ +@#$$$$$$$$$$$$$$$##$$#@@+ # ",
" # .+@#$$$$$$$$$$$$$$$#$$#@@+   ",
"    +@@###$$$#$$$$$$#$##$#@++   ",
"  . .+@@#$$$##@$$$$$#$##$#@++ + ",
"   @ ++@@####@@$$$$###@###@+. . ",
"   .@ .+@@@@@@@$$$$###@+#@++    ",
"    +@  .+@@@@$$$$##@@.+@@+. +  ",
"     +@@++++$$$$##@@@@+@#++     ",
"      .+@@@@@###@@@++. @@.      ",
"        .+++@@@@@++.  #@+       ",
"           .+++++.  #++         ",
"                                "};
