/* XPM */
static char * enemy1_xpm[] = {
"32 32 6 1",
" 	c None",
".	c #7B5480",
"+	c #A6859F",
"@	c #624169",
"#	c #906C8F",
"$	c #D9BDC8",
"                                ",
"         ..+  @.....@           ",
"       .#+  @..#####...@        ",
"      @## @..###+++#####.@      ",
"     ..+#.####++$$$$....##.     ",
"  . @.##.@##++$$$$####.@  #.    ",
"    ..#+.#+++$$$$#######.@ #@   ",
" @ @.#+++#+++$$$$##++++##.. #   ",
" . ..#+$++$+$$$$$#++$$$+##.@ @  ",
"   ..#+$++$+$$$$$$+$$$+++##.    ",
"   .##+$$+$$$$$$$$$$$$$$$+#.@ + ",
" + .##+$$++$$$$$$$$$$$$$$$+#. # ",
" # .#+$+$$$$$$$$$$$$$$$$+$$+.@. ",
" . .#+$$$$$$$$$$$$$$$$$$#+$+#.  ",
" .  #++$$$$$$$$$$$$$$$$++#++#.@ ",
" .+ .#++$$$$$$$$$$$$$$$$+##+##. ",
" .#..#++++$$$$$$$$$$$$$$$#.++#. ",
" .##..#++$$$$$$$$$$$$$$$$+.#+#. ",
" .#+#.#+$$$$$$$$$$$$$$$$$+#.+#. ",
" ..#+###+$$$$$$$$$$$$$$+$+#.##. ",
" @.#+$+++$$$$$$$$$$$$$$+++#.##@ ",
"  ..#+$$$$$$$$$$$$$$$$$++##@#.  ",
"  @.#++$$$$$+$$$$$$$$$$+##. #.  ",
"   .@#+++++++$$$$$$+$$$+#.. #.  ",
"   @..#++++$$$$$$$++$$+#..@ .@  ",
"    @.@##++++$$$++++$$+#..  .   ",
"     . .###++++++#+$$+#..@ #@   ",
"        @.###+++#+$+##...  .    ",
"       .  @.####++##...@  @     ",
"        @.##..+##....@          ",
"          @.......@             ",
"                                "};
