/* XPM */
static char * exit1_xpm[] = {
"32 32 6 1",
" 	c None",
".	c #FCEF8D",
"+	c #FFB879",
"@	c #F48D6D",
"#	c #EA6262",
"$	c #CC425E",
"             .+.+.+             ",
"           .+@+#$$#@.           ",
"         +#$$$@$$$$$$#+         ",
"       +#$$$$$#@$$$$$$$#+       ",
"      .@$$$$$$$#$$$$$$$$@.      ",
"     .+$$$$$$$$+$$$$$$$$$+.     ",
"    +@$$$$$$$$$.#$$$$$$$$$@+    ",
"   .#$$#$$$$$$$$..$$$$$#$$$#.   ",
"   +$$$@$$$$$$$$$+.$$$#@$$$$+   ",
"  +$$$$$$@+@$$$$$$+#$$+$$$$$$+  ",
"  #$$$$$$$$$#$$$$#@$#+.$$$$$$#  ",
" .$$$$$$$$$$$$$$$#$$$$$$$$$$$$. ",
" +$$$$$$$$$$$$$$$@$$$$$$$$$$$$+ ",
".#$$$$$$$#$$$$$##+$$$$$#$$$$$$@.",
"+$$$$$$.+@$$$$@+.+#$$@#$$$$$$$$+",
"@#$$$+.$$@#$$#+...+@#$$@$$#$$$$.",
".+#$@#$$$#+$$+.....+#$$$@#+$#$#@",
"+#$@$$$$#+.+@#+...+@$$$$$+.+$#++",
".@$$$$$$$$+#$$#+.+@$$$$$$$+#$$@.",
" +$$$$$$$$#$$$$+@#$$$$$$$$#$$$. ",
" .$$$$$$$$$$$$$#$$$$$$$$$$$$$$. ",
"  #$$$$$$$$$$#@$$$$$$$$$$$$$$#  ",
"  +$$$$$$$$#++$$$$$#$$$$$$$$$+  ",
"   +$$$$$$$$#+.$$$$+$+.$$$$$+   ",
"   .#$$$$$$$$$+.$$$$#$+$$$$#.   ",
"    +@$$$$$$$$$#+@$$$$#$$$@+    ",
"     .+$$$$$$$$$$#$$$$$$$+.     ",
"      .@$$$$$$$$@$$$$$$$@.      ",
"       +#$$$$$$@$$$$$$$#+       ",
"         +#$$$$#$$$$$#+         ",
"           .+@$+#$@+.           ",
"             +.+.+.             "};
