/* XPM */
static const char *new_coin_1[] = {
/* columns rows colors chars-per-pixel */
"64 64 5 1 ",
"  c #E48334",
". c #F4AA38",
"X c #F5C94A",
"o c #F8E97D",
"O c None",
/* pixels */
"OOOOOOOOOOOOOOOOOOOOOOOOOOOOOOOOOOOOOOOOOOOOOOOOOOOOOOOOOOOOOOOO",
"OOOOOOOOOOOOOOOOOOOOOOOOOOOOOOOOOOOOOOOOOOOOOOOOOOOOOOOOOOOOOOOO",
"OOOOOOOOOOOOOOOOOOOOOOOOOOOOOOOOOOOOOOOOOOOOOOOOOOOOOOOOOOOOOOOO",
"OOOOOOOOOOOOOOOOOOOOOOOOOOOOOOOOOOOOOOOOOOOOOOOOOOOOOOOOOOOOOOOO",
"OOOOOOOOOOOOOOOOOOOOOOOOOOOOOOOOOOOOOOOOOOOOOOOOOOOOOOOOOOOOOOOO",
"OOOOOOOOOOOOOOOOOOOOOOOOOOOOOOOOOOOOOOOOOOOOOOOOOOOOOOOOOOOOOOOO",
"OOOOOOOOOOOOOOOOOOOOOOOOXXXXXXXXXXXXXXXXOOOOOOOOOOOOOOOOOOOOOOOO",
"OOOOOOOOOOOOOOOOOOOOOOOOXXXXXXXXXXXXXXXXOOOOOOOOOOOOOOOOOOOOOOOO",
"OOOOOOOOOOOOOOOOOOOOXXXXXXXXXXXXXXXXXXXXXXXXOOOOOOOOOOOOOOOOOOOO",
"OOOOOOOOOOOOOOOOOOOOXXXXXXXXXXXXXXXXXXXXXXXXOOOOOOOOOOOOOOOOOOOO",
"OOOOOOOOOOOOOOOOXXXXXXXX................XXXXXXXXOOOOOOOOOOOOOOOO",
"OOOOOOOOOOOOOOOOXXXXXXXX................XXXXXXXXOOOOOOOOOOOOOOOO",
"OOOOOOOOOOOOOOXXXXXX....          oooooo....XXXXXXOOOOOOOOOOOOOO",
"OOOOOOOOOOOOOOXXXXXX....          oooooo....XXXXXXOOOOOOOOOOOOOO",
"OOOOOOOOOOOOXXXX....            oo....  oo  ....XXXXOOOOOOOOOOOO",
"OOOOOOOOOOOOXXXX....            oo....  oo  ....XXXXOOOOOOOOOOOO",
"OOOOOOOOOOXXXX..              oo  XXoooo  oo    ..XXXXOOOOOOOOOO",
"OOOOOOOOOOXXXX..              oo  XXoooo  oo    ..XXXXOOOOOOOOOO",
"OOOOOOOOOOXXXX..oooooooooooooo  XXoooooo..oo    ..XXXXOOOOOOOOOO",
"OOOOOOOOOOXXXX..oooooooooooooo  XXoooooo..oo    ..XXXXOOOOOOOOOO",
"OOOOOOOOXXXX..oo..    ......  XXoooooooo..oo      ..XXXXOOOOOOOO",
"OOOOOOOOXXXX..oo..    ......  XXoooooooo..oo      ..XXXXOOOOOOOO",
"OOOOOOOOXXXX..oo  oooooooooooooooooooooo  oo      ..XXXXOOOOOOOO",
"OOOOOOOOXXXX..oo  oooooooooooooooooooooo  oo      ..XXXXOOOOOOOO",
"OOOOOOXXXX..  oo..XXooooooooooooooooooooXX  oo      ..XXXXOOOOOO",
"OOOOOOXXXX..  oo..XXooooooooooooooooooooXX  oo      ..XXXXOOOOOO",
"OOOOOOXXXX..    oo..XXooooooooooooooooooooXX    oo  ..XXXXOOOOOO",
"OOOOOOXXXX..    oo..XXooooooooooooooooooooXX    oo  ..XXXXOOOOOO",
"OOOOOOXXXX..      oo  XXooooooooooooooooooooooXX  oo..XXXXOOOOOO",
"OOOOOOXXXX..      oo  XXooooooooooooooooooooooXX  oo..XXXXOOOOOO",
"OOOOOOXXXX..        oo  XXoooooooooooooooooooooooo  ooXXXXOOOOOO",
"OOOOOOXXXX..        oo  XXoooooooooooooooooooooooo  ooXXXXOOOOOO",
"OOOOOOXXXX..        oo  XXoooooooooooooooooooooooo  ooXXXXOOOOOO",
"OOOOOOXXXX..        oo  XXoooooooooooooooooooooooo  ooXXXXOOOOOO",
"OOOOOOXXXX..      oo  XXooooooooooooooooooooooXX  oo..XXXXOOOOOO",
"OOOOOOXXXX..      oo  XXooooooooooooooooooooooXX  oo..XXXXOOOOOO",
"OOOOOOXXXX..    oo..XXooooooooooooooooooooXX    oo  ..XXXXOOOOOO",
"OOOOOOXXXX..    oo..XXooooooooooooooooooooXX    oo  ..XXXXOOOOOO",
"OOOOOOXXXX..  oo..XXooooooooooooooooooooXX  oo      ..XXXXOOOOOO",
"OOOOOOXXXX..  oo..XXooooooooooooooooooooXX  oo      ..XXXXOOOOOO",
"OOOOOOOOXXXX..oo  oooooooooooooooooooooo..oo      ..XXXXOOOOOOOO",
"OOOOOOOOXXXX..oo  oooooooooooooooooooooo..oo      ..XXXXOOOOOOOO",
"OOOOOOOOXXXX..oo..    ......  XXoooooooo..oo      ..XXXXOOOOOOOO",
"OOOOOOOOXXXX..oo..    ......  XXoooooooo..oo      ..XXXXOOOOOOOO",
"OOOOOOOOOOXXXX..oooooooooooooo  XXoooooo  oo    ..XXXXOOOOOOOOOO",
"OOOOOOOOOOXXXX..oooooooooooooo  XXoooooo  oo    ..XXXXOOOOOOOOOO",
"OOOOOOOOOOXXXX..              oo  XXoooo  oo    ..XXXXOOOOOOOOOO",
"OOOOOOOOOOXXXX..              oo  XXoooo  oo    ..XXXXOOOOOOOOOO",
"OOOOOOOOOOOOXXXX....            oo      oo  ....XXXXOOOOOOOOOOOO",
"OOOOOOOOOOOOXXXX....            oo      oo  ....XXXXOOOOOOOOOOOO",
"OOOOOOOOOOOOOOXXXXXX....          oooooo....XXXXXXOOOOOOOOOOOOOO",
"OOOOOOOOOOOOOOXXXXXX....          oooooo....XXXXXXOOOOOOOOOOOOOO",
"OOOOOOOOOOOOOOOOXXXXXXXX................XXXXXXXXOOOOOOOOOOOOOOOO",
"OOOOOOOOOOOOOOOOXXXXXXXX................XXXXXXXXOOOOOOOOOOOOOOOO",
"OOOOOOOOOOOOOOOOOOOOXXXXXXXXXXXXXXXXXXXXXXXXOOOOOOOOOOOOOOOOOOOO",
"OOOOOOOOOOOOOOOOOOOOXXXXXXXXXXXXXXXXXXXXXXXXOOOOOOOOOOOOOOOOOOOO",
"OOOOOOOOOOOOOOOOOOOOOOOOXXXXXXXXXXXXXXXXOOOOOOOOOOOOOOOOOOOOOOOO",
"OOOOOOOOOOOOOOOOOOOOOOOOXXXXXXXXXXXXXXXXOOOOOOOOOOOOOOOOOOOOOOOO",
"OOOOOOOOOOOOOOOOOOOOOOOOOOOOOOOOOOOOOOOOOOOOOOOOOOOOOOOOOOOOOOOO",
"OOOOOOOOOOOOOOOOOOOOOOOOOOOOOOOOOOOOOOOOOOOOOOOOOOOOOOOOOOOOOOOO",
"OOOOOOOOOOOOOOOOOOOOOOOOOOOOOOOOOOOOOOOOOOOOOOOOOOOOOOOOOOOOOOOO",
"OOOOOOOOOOOOOOOOOOOOOOOOOOOOOOOOOOOOOOOOOOOOOOOOOOOOOOOOOOOOOOOO",
"OOOOOOOOOOOOOOOOOOOOOOOOOOOOOOOOOOOOOOOOOOOOOOOOOOOOOOOOOOOOOOOO",
"OOOOOOOOOOOOOOOOOOOOOOOOOOOOOOOOOOOOOOOOOOOOOOOOOOOOOOOOOOOOOOOO"
};
