/* XPM */
static char * newcoin1_xpm[] = {
"32 32 5 1",
" 	c None",
".	c #F8E97D",
"+	c #E48334",
"@	c #F5C94A",
"#	c #F4AA38",
"                                ",
"                                ",
"            ........            ",
"          ..++++++++..          ",
"        ..++@@@@@@@@++..        ",
"       .++@@@@@..@@@@@++.       ",
"      .+@@@@++.++.++@@@@+.      ",
"     .+@@@+##.+..+.##+@@@+.     ",
"    .+@@+####.#..#.####+@@+.    ",
"    .+@@####.+....+.####@@+.    ",
"   .+@@.....+@....@+.....@@+.   ",
"   .+@.#++##........##++#.@+.   ",
"  .+@.#..................#.@+.  ",
"  .+@.+#................#+.@+.  ",
"  .+@@.+@..............@+.@@+.  ",
"  .+@@+.#@............@#.+@@+.  ",
"  .+@@##.+@..........@+.##@@+.  ",
"  .+@@###.#..........#.###@@+.  ",
"  .+@@+##.#..........#.##+@@+.  ",
"  .+@@+##.#....@@....#.##+@@+.  ",
"   .+@@##.+...@##@...+.##@@+.   ",
"   .+@@+#.+..@#..#@..+.#+@@+.   ",
"    .+@@#.+.#+.##.+#.+.#@@+.    ",
"    .+@@+.+#+.####.+#+.+@@+.    ",
"     .+@@.++.######.++.@@+.     ",
"      .+@@..++####++..@@+.      ",
"       .++@@@@@@@@@@@@++.       ",
"        ..++@@@@@@@@++..        ",
"          ..++++++++..          ",
"            ........            ",
"                                ",
"                                "};
