/* XPM */
static char * newcoin4_xpm[] = {
"32 32 5 1",
" 	c None",
".	c #F5C94A",
"+	c #F4AA38",
"@	c #F8E97D",
"#	c #E48334",
"                                ",
"                                ",
"                                ",
"            ........            ",
"          ............          ",
"        ....++++++++....        ",
"       ...++@@@#####++...       ",
"      ..++#@#++@######++..      ",
"     ..+##@#@@.#@#######+..     ",
"     ..+##@+@@@.#@@@@@@@+..     ",
"    ..+###@+@@@@.#+++##+@+..    ",
"    ..+###@#@@@@@@@@@@@#@+..    ",
"   ..+###@#.@@@@@@@@@@.+@#+..   ",
"   ..+#@##.@@@@@@@@@@.+@##+..   ",
"   ..+@#.@@@@@@@@@@@.#@###+..   ",
"   ..@#@@@@@@@@@@@@.#@####+..   ",
"   ..@#@@@@@@@@@@@@.#@####+..   ",
"   ..+@#.@@@@@@@@@@@.#@###+..   ",
"   ..+#@##.@@@@@@@@@@.+@##+..   ",
"   ..+###@#.@@@@@@@@@@.+@#+..   ",
"    ..+###@+@@@@@@@@@@@#@+..    ",
"    ..+###@+@@@@.#+++##+@+..    ",
"     ..+##@#@@@.#@@@@@@@+..     ",
"     ..+##@#@@.#@#######+..     ",
"      ..++#@###@######++..      ",
"       ...++@@@#####++...       ",
"        ....++++++++....        ",
"          ............          ",
"            ........            ",
"                                ",
"                                ",
"                                "};
