/* XPM */
static const char *new_coin_2[] = {
/* columns rows colors chars-per-pixel */
"64 64 5 1 ",
"  c #E48334",
". c #F4AA38",
"X c #F5C94A",
"o c #F8E97D",
"O c None",
/* pixels */
"OOOOOOOOOOOOOOOOOOOOOOOOOOOOOOOOOOOOOOOOOOOOOOOOOOOOOOOOOOOOOOOO",
"OOOOOOOOOOOOOOOOOOOOOOOOOOOOOOOOOOOOOOOOOOOOOOOOOOOOOOOOOOOOOOOO",
"OOOOOOOOOOOOOOOOOOOOOOOOOOOOOOOOOOOOOOOOOOOOOOOOOOOOOOOOOOOOOOOO",
"OOOOOOOOOOOOOOOOOOOOOOOOOOOOOOOOOOOOOOOOOOOOOOOOOOOOOOOOOOOOOOOO",
"OOOOOOOOOOOOOOOOOOOOOOOOooooooooooooooooOOOOOOOOOOOOOOOOOOOOOOOO",
"OOOOOOOOOOOOOOOOOOOOOOOOooooooooooooooooOOOOOOOOOOOOOOOOOOOOOOOO",
"OOOOOOOOOOOOOOOOOOOOoooo                ooooOOOOOOOOOOOOOOOOOOOO",
"OOOOOOOOOOOOOOOOOOOOoooo                ooooOOOOOOOOOOOOOOOOOOOO",
"OOOOOOOOOOOOOOOOoooo    XXXXXXXXXXXXXXXX    ooooOOOOOOOOOOOOOOOO",
"OOOOOOOOOOOOOOOOoooo    XXXXXXXXXXXXXXXX    ooooOOOOOOOOOOOOOOOO",
"OOOOOOOOOOOOOOoo    XXXXXXXXXXXXXXXXXXXXXXXX    ooOOOOOOOOOOOOOO",
"OOOOOOOOOOOOOOoo    XXXXXXXXXXXXXXXXXXXXXXXX    ooOOOOOOOOOOOOOO",
"OOOOOOOOOOOOoo  XXXXoooo    ........    ooooXXXX  ooOOOOOOOOOOOO",
"OOOOOOOOOOOOoo  XXXXoooo    ........    ooooXXXX  ooOOOOOOOOOOOO",
"OOOOOOOOOOoo  XXXXoo    oo............oo    ooXXXX  ooOOOOOOOOOO",
"OOOOOOOOOOoo  XXXXoo    oo............oo    ooXXXX  ooOOOOOOOOOO",
"OOOOOOOOoo  XXXX  oo  ..  oo........oo  ..  oo  XXXX  ooOOOOOOOO",
"OOOOOOOOoo  XXXX  oo  ..  oo........oo  ..  oo  XXXX  ooOOOOOOOO",
"OOOOOOOOoo  XXXX..oo  oo..  oo....oo  ..oo  oo..XXXX  ooOOOOOOOO",
"OOOOOOOOoo  XXXX..oo  oo..  oo....oo  ..oo  oo..XXXX  ooOOOOOOOO",
"OOOOOOoo  XXXX  ..oo  ooooXX..oooo..XXoooo  oo..  XXXX  ooOOOOOO",
"OOOOOOoo  XXXX  ..oo  ooooXX..oooo..XXoooo  oo..  XXXX  ooOOOOOO",
"OOOOOOoo  XXXX....oo  ooooooXX....XXoooooo  oo....XXXX  ooOOOOOO",
"OOOOOOoo  XXXX....oo  ooooooXX....XXoooooo  oo....XXXX  ooOOOOOO",
"OOOOoo  XXXX  ....oo..ooooooooXXXXoooooooo..oo....  XXXX  ooOOOO",
"OOOOoo  XXXX  ....oo..ooooooooXXXXoooooooo..oo....  XXXX  ooOOOO",
"OOOOoo  XXXX  ....oo..oooooooooooooooooooo..oo....  XXXX  ooOOOO",
"OOOOoo  XXXX  ....oo..oooooooooooooooooooo..oo....  XXXX  ooOOOO",
"OOOOoo  XXXX......oo..oooooooooooooooooooo..oo......XXXX  ooOOOO",
"OOOOoo  XXXX......oo..oooooooooooooooooooo..oo......XXXX  ooOOOO",
"OOOOoo  XXXX....oo  XXooooooooooooooooooooXX  oo....XXXX  ooOOOO",
"OOOOoo  XXXX....oo  XXooooooooooooooooooooXX  oo....XXXX  ooOOOO",
"OOOOoo  XXXX  oo..XXooooooooooooooooooooooooXX..oo  XXXX  ooOOOO",
"OOOOoo  XXXX  oo..XXooooooooooooooooooooooooXX..oo  XXXX  ooOOOO",
"OOOOoo  XXXXoo  XXooooooooooooooooooooooooooooXX  ooXXXX  ooOOOO",
"OOOOoo  XXXXoo  XXooooooooooooooooooooooooooooXX  ooXXXX  ooOOOO",
"OOOOoo  XXoo  ..oooooooooooooooooooooooooooooooo..  ooXX  ooOOOO",
"OOOOoo  XXoo  ..oooooooooooooooooooooooooooooooo..  ooXX  ooOOOO",
"OOOOoo  XXoo..oooooooooooooooooooooooooooooooooooo..ooXX  ooOOOO",
"OOOOoo  XXoo..oooooooooooooooooooooooooooooooooooo..ooXX  ooOOOO",
"OOOOOOoo  XXoo..    ....oooooooooooooooo....    ..ooXX  ooOOOOOO",
"OOOOOOoo  XXoo..    ....oooooooooooooooo....    ..ooXX  ooOOOOOO",
"OOOOOOoo  XXXXoooooooooo  XXooooooooXX  ooooooooooXXXX  ooOOOOOO",
"OOOOOOoo  XXXXoooooooooo  XXooooooooXX  ooooooooooXXXX  ooOOOOOO",
"OOOOOOOOoo  XXXX........oo  oooooooo  oo........XXXX  ooOOOOOOOO",
"OOOOOOOOoo  XXXX........oo  oooooooo  oo........XXXX  ooOOOOOOOO",
"OOOOOOOOoo  XXXX  ........oo..oooo..oo........  XXXX  ooOOOOOOOO",
"OOOOOOOOoo  XXXX  ........oo..oooo..oo........  XXXX  ooOOOOOOOO",
"OOOOOOOOOOoo  XXXXXX  ....oo  oooo  oo....  XXXXXX  ooOOOOOOOOOO",
"OOOOOOOOOOoo  XXXXXX  ....oo  oooo  oo....  XXXXXX  ooOOOOOOOOOO",
"OOOOOOOOOOOOoo  XXXXXXXX    oo    oo    XXXXXXXX  ooOOOOOOOOOOOO",
"OOOOOOOOOOOOoo  XXXXXXXX    oo    oo    XXXXXXXX  ooOOOOOOOOOOOO",
"OOOOOOOOOOOOOOoo    XXXXXXXXXXooooXXXXXXXXXX    ooOOOOOOOOOOOOOO",
"OOOOOOOOOOOOOOoo    XXXXXXXXXXooooXXXXXXXXXX    ooOOOOOOOOOOOOOO",
"OOOOOOOOOOOOOOOOoooo    XXXXXXXXXXXXXXXX    ooooOOOOOOOOOOOOOOOO",
"OOOOOOOOOOOOOOOOoooo    XXXXXXXXXXXXXXXX    ooooOOOOOOOOOOOOOOOO",
"OOOOOOOOOOOOOOOOOOOOoooo                ooooOOOOOOOOOOOOOOOOOOOO",
"OOOOOOOOOOOOOOOOOOOOoooo                ooooOOOOOOOOOOOOOOOOOOOO",
"OOOOOOOOOOOOOOOOOOOOOOOOooooooooooooooooOOOOOOOOOOOOOOOOOOOOOOOO",
"OOOOOOOOOOOOOOOOOOOOOOOOooooooooooooooooOOOOOOOOOOOOOOOOOOOOOOOO",
"OOOOOOOOOOOOOOOOOOOOOOOOOOOOOOOOOOOOOOOOOOOOOOOOOOOOOOOOOOOOOOOO",
"OOOOOOOOOOOOOOOOOOOOOOOOOOOOOOOOOOOOOOOOOOOOOOOOOOOOOOOOOOOOOOOO",
"OOOOOOOOOOOOOOOOOOOOOOOOOOOOOOOOOOOOOOOOOOOOOOOOOOOOOOOOOOOOOOOO",
"OOOOOOOOOOOOOOOOOOOOOOOOOOOOOOOOOOOOOOOOOOOOOOOOOOOOOOOOOOOOOOOO"
};
