/* XPM */
static const char *new_coin_3[] = {
/* columns rows colors chars-per-pixel */
"64 64 5 1 ",
"  c #E48334",
". c #F4AA38",
"X c #F5C94A",
"o c #F8E97D",
"O c None",
/* pixels */
"OOOOOOOOOOOOOOOOOOOOOOOOOOOOOOOOOOOOOOOOOOOOOOOOOOOOOOOOOOOOOOOO",
"OOOOOOOOOOOOOOOOOOOOOOOOOOOOOOOOOOOOOOOOOOOOOOOOOOOOOOOOOOOOOOOO",
"OOOOOOOOOOOOOOOOOOOOOOOOOOOOOOOOOOOOOOOOOOOOOOOOOOOOOOOOOOOOOOOO",
"OOOOOOOOOOOOOOOOOOOOOOOOOOOOOOOOOOOOOOOOOOOOOOOOOOOOOOOOOOOOOOOO",
"OOOOOOOOOOOOOOOOOOOOOOOOOOOOOOOOOOOOOOOOOOOOOOOOOOOOOOOOOOOOOOOO",
"OOOOOOOOOOOOOOOOOOOOOOOOOOOOOOOOOOOOOOOOOOOOOOOOOOOOOOOOOOOOOOOO",
"OOOOOOOOOOOOOOOOOOOOOOOOXXXXXXXXXXXXXXXXOOOOOOOOOOOOOOOOOOOOOOOO",
"OOOOOOOOOOOOOOOOOOOOOOOOXXXXXXXXXXXXXXXXOOOOOOOOOOOOOOOOOOOOOOOO",
"OOOOOOOOOOOOOOOOOOOOXXXXXXXXXXXXXXXXXXXXXXXXOOOOOOOOOOOOOOOOOOOO",
"OOOOOOOOOOOOOOOOOOOOXXXXXXXXXXXXXXXXXXXXXXXXOOOOOOOOOOOOOOOOOOOO",
"OOOOOOOOOOOOOOOOXXXXXXXX................XXXXXXXXOOOOOOOOOOOOOOOO",
"OOOOOOOOOOOOOOOOXXXXXXXX................XXXXXXXXOOOOOOOOOOOOOOOO",
"OOOOOOOOOOOOOOXXXXXX....oooooo          ....XXXXXXOOOOOOOOOOOOOO",
"OOOOOOOOOOOOOOXXXXXX....oooooo          ....XXXXXXOOOOOOOOOOOOOO",
"OOOOOOOOOOOOXXXX....  oo  ....oo            ....XXXXOOOOOOOOOOOO",
"OOOOOOOOOOOOXXXX....  oo  ....oo            ....XXXXOOOOOOOOOOOO",
"OOOOOOOOOOXXXX..    oo  ooooXX  oo              ..XXXXOOOOOOOOOO",
"OOOOOOOOOOXXXX..    oo  ooooXX  oo              ..XXXXOOOOOOOOOO",
"OOOOOOOOOOXXXX..    oo..ooooooXX  oooooooooooooo..XXXXOOOOOOOOOO",
"OOOOOOOOOOXXXX..    oo..ooooooXX  oooooooooooooo..XXXXOOOOOOOOOO",
"OOOOOOOOXXXX..      oo..ooooooooXX  ......    ..oo..XXXXOOOOOOOO",
"OOOOOOOOXXXX..      oo..ooooooooXX  ......    ..oo..XXXXOOOOOOOO",
"OOOOOOOOXXXX..      oo  oooooooooooooooooooooo  oo..XXXXOOOOOOOO",
"OOOOOOOOXXXX..      oo  oooooooooooooooooooooo  oo..XXXXOOOOOOOO",
"OOOOOOXXXX..      oo  XXooooooooooooooooooooXX..oo  ..XXXXOOOOOO",
"OOOOOOXXXX..      oo  XXooooooooooooooooooooXX..oo  ..XXXXOOOOOO",
"OOOOOOXXXX..  oo    XXooooooooooooooooooooXX..oo    ..XXXXOOOOOO",
"OOOOOOXXXX..  oo    XXooooooooooooooooooooXX..oo    ..XXXXOOOOOO",
"OOOOOOXXXX..oo  XXooooooooooooooooooooooXX  oo      ..XXXXOOOOOO",
"OOOOOOXXXX..oo  XXooooooooooooooooooooooXX  oo      ..XXXXOOOOOO",
"OOOOOOXXXXoo  ooooooooooooooooooooooooXX  oo        ..XXXXOOOOOO",
"OOOOOOXXXXoo  ooooooooooooooooooooooooXX  oo        ..XXXXOOOOOO",
"OOOOOOXXXXoo  ooooooooooooooooooooooooXX  oo        ..XXXXOOOOOO",
"OOOOOOXXXXoo  ooooooooooooooooooooooooXX  oo        ..XXXXOOOOOO",
"OOOOOOXXXX..oo  XXooooooooooooooooooooooXX  oo      ..XXXXOOOOOO",
"OOOOOOXXXX..oo  XXooooooooooooooooooooooXX  oo      ..XXXXOOOOOO",
"OOOOOOXXXX..  oo    XXooooooooooooooooooooXX..oo    ..XXXXOOOOOO",
"OOOOOOXXXX..  oo    XXooooooooooooooooooooXX..oo    ..XXXXOOOOOO",
"OOOOOOXXXX..      oo  XXooooooooooooooooooooXX..oo  ..XXXXOOOOOO",
"OOOOOOXXXX..      oo  XXooooooooooooooooooooXX..oo  ..XXXXOOOOOO",
"OOOOOOOOXXXX..      oo..oooooooooooooooooooooo  oo..XXXXOOOOOOOO",
"OOOOOOOOXXXX..      oo..oooooooooooooooooooooo  oo..XXXXOOOOOOOO",
"OOOOOOOOXXXX..      oo..ooooooooXX  ......    ..oo..XXXXOOOOOOOO",
"OOOOOOOOXXXX..      oo..ooooooooXX  ......    ..oo..XXXXOOOOOOOO",
"OOOOOOOOOOXXXX..    oo  ooooooXX  oooooooooooooo..XXXXOOOOOOOOOO",
"OOOOOOOOOOXXXX..    oo  ooooooXX  oooooooooooooo..XXXXOOOOOOOOOO",
"OOOOOOOOOOXXXX..    oo  ooooXX  oo              ..XXXXOOOOOOOOOO",
"OOOOOOOOOOXXXX..    oo  ooooXX  oo              ..XXXXOOOOOOOOOO",
"OOOOOOOOOOOOXXXX....  oo      oo            ....XXXXOOOOOOOOOOOO",
"OOOOOOOOOOOOXXXX....  oo      oo            ....XXXXOOOOOOOOOOOO",
"OOOOOOOOOOOOOOXXXXXX....oooooo          ....XXXXXXOOOOOOOOOOOOOO",
"OOOOOOOOOOOOOOXXXXXX....oooooo          ....XXXXXXOOOOOOOOOOOOOO",
"OOOOOOOOOOOOOOOOXXXXXXXX................XXXXXXXXOOOOOOOOOOOOOOOO",
"OOOOOOOOOOOOOOOOXXXXXXXX................XXXXXXXXOOOOOOOOOOOOOOOO",
"OOOOOOOOOOOOOOOOOOOOXXXXXXXXXXXXXXXXXXXXXXXXOOOOOOOOOOOOOOOOOOOO",
"OOOOOOOOOOOOOOOOOOOOXXXXXXXXXXXXXXXXXXXXXXXXOOOOOOOOOOOOOOOOOOOO",
"OOOOOOOOOOOOOOOOOOOOOOOOXXXXXXXXXXXXXXXXOOOOOOOOOOOOOOOOOOOOOOOO",
"OOOOOOOOOOOOOOOOOOOOOOOOXXXXXXXXXXXXXXXXOOOOOOOOOOOOOOOOOOOOOOOO",
"OOOOOOOOOOOOOOOOOOOOOOOOOOOOOOOOOOOOOOOOOOOOOOOOOOOOOOOOOOOOOOOO",
"OOOOOOOOOOOOOOOOOOOOOOOOOOOOOOOOOOOOOOOOOOOOOOOOOOOOOOOOOOOOOOOO",
"OOOOOOOOOOOOOOOOOOOOOOOOOOOOOOOOOOOOOOOOOOOOOOOOOOOOOOOOOOOOOOOO",
"OOOOOOOOOOOOOOOOOOOOOOOOOOOOOOOOOOOOOOOOOOOOOOOOOOOOOOOOOOOOOOOO",
"OOOOOOOOOOOOOOOOOOOOOOOOOOOOOOOOOOOOOOOOOOOOOOOOOOOOOOOOOOOOOOOO",
"OOOOOOOOOOOOOOOOOOOOOOOOOOOOOOOOOOOOOOOOOOOOOOOOOOOOOOOOOOOOOOOO"
};
