/* XPM */
static const char *new_empty_1[] = {
/* columns rows colors chars-per-pixel */
"64 64 11 1 ",
"  c #5B3374",
". c #4E6679",
"X c #80B878",
"o c #F2A561",
"O c #AF5D8B",
"+ c #D37B86",
"@ c #5C8BA8",
"# c #E3A084",
"$ c #B1D480",
"% c #F2CB9B",
"& c #FCEF8D",
/* pixels */
"  @@@@....@@@@    ####oooo####    XXXX$$$$XXXX    @@@@....@@@@  ",
"  @@@@....@@@@    ####oooo####    XXXX$$$$XXXX    @@@@....@@@@  ",
"@@............@@##oooooooooooo##XX$$$$$$$$$$$$XX@@............@@",
"@@............@@##oooooooooooo##XX$$$$$$$$$$$$XX@@............@@",
"@@............@@##oooooooooooo##XX$$$$$$$$$$$$XX@@............@@",
"@@............@@##oooooooooooo##XX$$$$$$$$$$$$XX@@............@@",
"................oooooooooooooooo$$$$$$$$$$$$$$$$................",
"................oooooooooooooooo$$$$$$$$$$$$$$$$................",
"................oooooooooooooooo$$$$$$$$$$$$$$$$................",
"................oooooooooooooooo$$$$$$$$$$$$$$$$................",
"@@............@@##oooooooooooo##XX$$$$$$$$$$$$XX@@............@@",
"@@............@@##oooooooooooo##XX$$$$$$$$$$$$XX@@............@@",
"@@............@@##oooooooooooo##XX$$$$$$$$$$$$XX@@............@@",
"@@............@@##oooooooooooo##XX$$$$$$$$$$$$XX@@............@@",
"  @@@@....@@@@    ####oooo####    XXXX$$$$XXXX    @@@@....@@@@  ",
"  @@@@....@@@@    ####oooo####    XXXX$$$$XXXX    @@@@....@@@@  ",
"  ++++OOOO++++    XXXX$$$$XXXX    @@@@....@@@@    ++++OOOO++++  ",
"  ++++OOOO++++    XXXX$$$$XXXX    @@@@....@@@@    ++++OOOO++++  ",
"++OOOOOOOOOOOO++XX$$$$$$$$$$$$XX@@............@@++OOOOOOOOOOOO++",
"++OOOOOOOOOOOO++XX$$$$$$$$$$$$XX@@............@@++OOOOOOOOOOOO++",
"++OOOOOOOOOOOO++XX$$$$$$$$$$$$XX@@............@@++OOOOOOOOOOOO++",
"++OOOOOOOOOOOO++XX$$$$$$$$$$$$XX@@............@@++OOOOOOOOOOOO++",
"OOOOOOOOOOOOOOOO$$$$$$$$$$$$$$$$................OOOOOOOOOOOOOOOO",
"OOOOOOOOOOOOOOOO$$$$$$$$$$$$$$$$................OOOOOOOOOOOOOOOO",
"OOOOOOOOOOOOOOOO$$$$$$$$$$$$$$$$................OOOOOOOOOOOOOOOO",
"OOOOOOOOOOOOOOOO$$$$$$$$$$$$$$$$................OOOOOOOOOOOOOOOO",
"++OOOOOOOOOOOO++XX$$$$$$$$$$$$XX@@............@@++OOOOOOOOOOOO++",
"++OOOOOOOOOOOO++XX$$$$$$$$$$$$XX@@............@@++OOOOOOOOOOOO++",
"++OOOOOOOOOOOO++XX$$$$$$$$$$$$XX@@............@@++OOOOOOOOOOOO++",
"++OOOOOOOOOOOO++XX$$$$$$$$$$$$XX@@............@@++OOOOOOOOOOOO++",
"  ++++OOOO++++    XXXX$$$$XXXX    @@@@....@@@@    ++++OOOO++++  ",
"  ++++OOOO++++    XXXX$$$$XXXX    @@@@....@@@@    ++++OOOO++++  ",
"  %%%%&&&&%%%%    @@@@....@@@@    ####oooo####    %%%%&&&&%%%%  ",
"  %%%%&&&&%%%%    @@@@....@@@@    ####oooo####    %%%%&&&&%%%%  ",
"%%&&&&&&&&&&&&%%@@............@@##oooooooooooo##%%&&&&&&&&&&&&%%",
"%%&&&&&&&&&&&&%%@@............@@##oooooooooooo##%%&&&&&&&&&&&&%%",
"%%&&&&&&&&&&&&%%@@............@@##oooooooooooo##%%&&&&&&&&&&&&%%",
"%%&&&&&&&&&&&&%%@@............@@##oooooooooooo##%%&&&&&&&&&&&&%%",
"&&&&&&&&&&&&&&&&................oooooooooooooooo&&&&&&&&&&&&&&&&",
"&&&&&&&&&&&&&&&&................oooooooooooooooo&&&&&&&&&&&&&&&&",
"&&&&&&&&&&&&&&&&................oooooooooooooooo&&&&&&&&&&&&&&&&",
"&&&&&&&&&&&&&&&&................oooooooooooooooo&&&&&&&&&&&&&&&&",
"%%&&&&&&&&&&&&%%@@............@@##oooooooooooo##%%&&&&&&&&&&&&%%",
"%%&&&&&&&&&&&&%%@@............@@##oooooooooooo##%%&&&&&&&&&&&&%%",
"%%&&&&&&&&&&&&%%@@............@@##oooooooooooo##%%&&&&&&&&&&&&%%",
"%%&&&&&&&&&&&&%%@@............@@##oooooooooooo##%%&&&&&&&&&&&&%%",
"  %%%%&&&&%%%%    @@@@....@@@@    ####oooo####    %%%%&&&&%%%%  ",
"  %%%%&&&&%%%%    @@@@....@@@@    ####oooo####    %%%%&&&&%%%%  ",
"  ####oooo####    XXXX$$$$XXXX    @@@@....@@@@    ++++OOOO++++  ",
"  ####oooo####    XXXX$$$$XXXX    @@@@....@@@@    ++++OOOO++++  ",
"##oooooooooooo##XX$$$$$$$$$$$$XX@@............@@++OOOOOOOOOOOO++",
"##oooooooooooo##XX$$$$$$$$$$$$XX@@............@@++OOOOOOOOOOOO++",
"##oooooooooooo##XX$$$$$$$$$$$$XX@@............@@++OOOOOOOOOOOO++",
"##oooooooooooo##XX$$$$$$$$$$$$XX@@............@@++OOOOOOOOOOOO++",
"oooooooooooooooo$$$$$$$$$$$$$$$$................OOOOOOOOOOOOOOOO",
"oooooooooooooooo$$$$$$$$$$$$$$$$................OOOOOOOOOOOOOOOO",
"oooooooooooooooo$$$$$$$$$$$$$$$$................OOOOOOOOOOOOOOOO",
"oooooooooooooooo$$$$$$$$$$$$$$$$................OOOOOOOOOOOOOOOO",
"##oooooooooooo##XX$$$$$$$$$$$$XX@@............@@++OOOOOOOOOOOO++",
"##oooooooooooo##XX$$$$$$$$$$$$XX@@............@@++OOOOOOOOOOOO++",
"##oooooooooooo##XX$$$$$$$$$$$$XX@@............@@++OOOOOOOOOOOO++",
"##oooooooooooo##XX$$$$$$$$$$$$XX@@............@@++OOOOOOOOOOOO++",
"  ####oooo####    XXXX$$$$XXXX    @@@@....@@@@    ++++OOOO++++  ",
"  ####oooo####    XXXX$$$$XXXX    @@@@....@@@@    ++++OOOO++++  "
};
