/* XPM */
static const char *enemy_2_64[] = {
/* columns rows colors chars-per-pixel */
"64 64 5 1 ",
"  c #5ACBFD",
". c #6EE4FF",
"X c #98FFF6",
"o c white",
"O c None",
/* pixels */
"OOOOOOOOOOOOOO................OOOOOOOOOOOOOOOOOOOOOOOOOOOOOOOOOO",
"OOOOOOOOOOOOOO................OOOOOOOOOOOOOOOOOOOOOOOOOOOOOOOOOO",
"OOOOOOOO......      ........  ............OOOOOOOOOOOOOOOOOOOOOO",
"OOOOOOOO......      ........  ............OOOOOOOOOOOOOOOOOOOOOO",
"OOOO....          ..XXXXXXXX......        ........OOOOOOOOOOOOOO",
"OOOO....          ..XXXXXXXX......        ........OOOOOOOOOOOOOO",
"OO..            ..XXooooooooXXXXXX..              ....OOOOOOOOOO",
"OO..            ..XXooooooooXXXXXX..              ....OOOOOOOOOO",
"XX..              ................                    ....OOOOOO",
"XX..              ................                    ....OOOOOO",
"XX..            ....XXooooooXXXX..                        ..OOOO",
"XX..            ....XXooooooXXXX..                        ..OOOO",
"XXXX..        ..XXooXXXX........                            ..OO",
"XXXX..        ..XXooXXXX........                            ..OO",
"OOXXXX....      ......ooXXXX..                              ..XX",
"OOXXXX....      ......ooXXXX..                              ..XX",
"OO..XXooXX....    ..XXoo....                                ..XX",
"OO..XXooXX....    ..XXoo....                                ..XX",
"OOOOXXooooooXX..........                                ....XXOO",
"OOOOXXooooooXX..........                                ....XXOO",
"OOOO..XXooooooooooXX..............                ......XXXX..OO",
"OOOO..XXooooooooooXX..............                ......XXXX..OO",
"OOOOOO..XXooooXXXXXXooooooooooXXXX................XXoooooo..OOOO",
"OOOOOO..XXooooXXXXXXooooooooooXXXX................XXoooooo..OOOO",
"OOOOOOXXXXXXooooooXXXXXX......XXXXXXXXXXXXXXXXXXXXXX....ooXXOOOO",
"OOOOOOXXXXXXooooooXXXXXX......XXXXXXXXXXXXXXXXXXXXXX....ooXXOOOO",
"OOOOOO..XXooooooXXXXooooooXXXX......................ooooXXOOOOOO",
"OOOOOO..XXooooooXXXXooooooXXXX......................ooooXXOOOOOO",
"OOOOOOOO..XXooooooooXX....XXXXXXXXXX..  ..XXXXooooXX....OOOOOOOO",
"OOOOOOOO..XXooooooooXX....XXXXXXXXXX..  ..XXXXooooXX....OOOOOOOO",
"OOOOOOOOXX..XXooooooooXXXXXX........    ..........XXXXOOOOOOOOOO",
"OOOOOOOOXX..XXooooooooXXXXXX........    ..........XXXXOOOOOOOOOO",
"OOOOOOXXXXXXXXXXXXooooooooXXXX..      ..XXXXooooXXXXOOOOOOOOOOOO",
"OOOOOOXXXXXXXXXXXXooooooooXXXX..      ..XXXXooooXXXXOOOOOOOOOOOO",
"OOOOOOXXooooooXXooooXX........      ..........XXOOOOOOOOOOOOOOOO",
"OOOOOOXXooooooXXooooXX........      ..........XXOOOOOOOOOOOOOOOO",
"OOOOXXXXooXXooooooXXooooXXXX..    ..XXXXXXXXOOOOOOOOOOOOOOOOOOOO",
"OOOOXXXXooXXooooooXXooooXXXX..    ..XXXXXXXXOOOOOOOOOOOOOOOOOOOO",
"OOXX..XXooooXXXXooooooXX....        ....OOOOOOOOOOOOOOOOOOOOOOOO",
"OOXX..XXooooXXXXooooooXX....        ....OOOOOOOOOOOOOOOOOOOOOOOO",
"OOXXXX..XXooooooXXXX........      ..XXOOOOOOOOOOOOOOOOOOOOOOOOOO",
"OOXXXX..XXooooooXXXX........      ..XXOOOOOOOOOOOOOOOOOOOOOOOOOO",
"OOOOXXXXXX..XXooooooooooXXXX..  ..XXOOOOOOOOOOOOOOOOOOOOOOOOOOOO",
"OOOOXXXXXX..XXooooooooooXXXX..  ..XXOOOOOOOOOOOOOOOOOOOOOOOOOOOO",
"OOOOOOXXXXoooo....XX........      ..OOOOOOOOOOOOOOOOOOOOOOOOOOOO",
"OOOOOOXXXXoooo....XX........      ..OOOOOOOOOOOOOOOOOOOOOOOOOOOO",
"OOOOOOOOXXXXooooooXXXXoooooo..  ..XXOOOOOOOOOOOOOOOOOOOOOOOOOOOO",
"OOOOOOOOXXXXooooooXXXXoooooo..  ..XXOOOOOOOOOOOOOOOOOOOOOOOOOOOO",
"OOOOOOOOOOOOXXXXXXooooooXX....    ..XXOOOOOOOOOOOOOOOOOOOOOOOOOO",
"OOOOOOOOOOOOXXXXXXooooooXX....    ..XXOOOOOOOOOOOOOOOOOOOOOOOOOO",
"OOOOOOOOOOOOOOOOXX......XXooXX....XX..OOOOOOOOOOOOOOOOOOOOOOOOOO",
"OOOOOOOOOOOOOOOOXX......XXooXX....XX..OOOOOOOOOOOOOOOOOOOOOOOOOO",
"OOOOOOOOOOOOOOOOOOOOXXXXoooo....  ....XXOOOOOOOOOOOOOOOOOOOOOOOO",
"OOOOOOOOOOOOOOOOOOOOXXXXoooo....  ....XXOOOOOOOOOOOOOOOOOOOOOOOO",
"OOOOOOOOOOOOOOOOOOOOOOOOXXooXXXX....XX..OOOOOOOOOOOOOOOOOOOOOOOO",
"OOOOOOOOOOOOOOOOOOOOOOOOXXooXXXX....XX..OOOOOOOOOOOOOOOOOOOOOOOO",
"OOOOOOOOOOOOOOOOOOOOOOOOOO..XXXX....  XXOOOOOOOOOOOOOOOOOOOOOOOO",
"OOOOOOOOOOOOOOOOOOOOOOOOOO..XXXX....  XXOOOOOOOOOOOOOOOOOOOOOOOO",
"OOOOOOOOOOOOOOOOOOOOOOOOOOXXXX  ..  XXOOOOOOOOOOOOOOOOOOOOOOOOOO",
"OOOOOOOOOOOOOOOOOOOOOOOOOOXXXX  ..  XXOOOOOOOOOOOOOOOOOOOOOOOOOO",
"OOOOOOOOOOOOOOOOOOOOOOOOOOOOXXXXXXXXOOOOOOOOOOOOOOOOOOOOOOOOOOOO",
"OOOOOOOOOOOOOOOOOOOOOOOOOOOOXXXXXXXXOOOOOOOOOOOOOOOOOOOOOOOOOOOO",
"OOOOOOOOOOOOOOOOOOOOOOOOOOOOOOOOOOOOOOOOOOOOOOOOOOOOOOOOOOOOOOOO",
"OOOOOOOOOOOOOOOOOOOOOOOOOOOOOOOOOOOOOOOOOOOOOOOOOOOOOOOOOOOOOOOO"
};
