/* XPM */
static const char *enemy_0_64[] = {
/* columns rows colors chars-per-pixel */
"64 64 5 1 ",
"  c #5ACBFD",
". c #6EE4FF",
"X c #98FFF6",
"o c white",
"O c None",
/* pixels */
"OOOOOOOOOOOOOOOOOOOOOOOOOOOOOOOOOO................OOOOOOOOOOOOOO",
"OOOOOOOOOOOOOOOOOOOOOOOOOOOOOOOOOO................OOOOOOOOOOOOOO",
"OOOOOOOOOOOOOOOOOOOOOO............  ........      ......OOOOOOOO",
"OOOOOOOOOOOOOOOOOOOOOO............  ........      ......OOOOOOOO",
"OOOOOOOOOOOOOO........        ......XXXXXXXX..          ....OOOO",
"OOOOOOOOOOOOOO........        ......XXXXXXXX..          ....OOOO",
"OOOOOOOOOO....              ..XXXXXXooooooooXX..            ..OO",
"OOOOOOOOOO....              ..XXXXXXooooooooXX..            ..OO",
"OOOOOO....                    ................              ..XX",
"OOOOOO....                    ................              ..XX",
"OOOO..                        ..XXXXooooooXX....            ..XX",
"OOOO..                        ..XXXXooooooXX....            ..XX",
"OO..                            ........XXXXooXX..        ..XXXX",
"OO..                            ........XXXXooXX..        ..XXXX",
"XX..                              ..XXXXoo......      ....XXXXOO",
"XX..                              ..XXXXoo......      ....XXXXOO",
"XX..                                ....ooXX..    ....XXooXX..OO",
"XX..                                ....ooXX..    ....XXooXX..OO",
"OOXX....                                ..........XXooooooXXOOOO",
"OOXX....                                ..........XXooooooXXOOOO",
"OO..XXXX......                ..............XXooooooooooXX..OOOO",
"OO..XXXX......                ..............XXooooooooooXX..OOOO",
"OOOO..ooooooXX................XXXXooooooooooXXXXXXooooXX..OOOOOO",
"OOOO..ooooooXX................XXXXooooooooooXXXXXXooooXX..OOOOOO",
"OOOOXXoo....XXXXXXXXXXXXXXXXXXXXXX......XXXXXXooooooXXXXXXOOOOOO",
"OOOOXXoo....XXXXXXXXXXXXXXXXXXXXXX......XXXXXXooooooXXXXXXOOOOOO",
"OOOOOOXXoooo......................XXXXooooooXXXXooooooXX..OOOOOO",
"OOOOOOXXoooo......................XXXXooooooXXXXooooooXX..OOOOOO",
"OOOOOOOO....XXooooXXXX..  ..XXXXXXXXXX....XXooooooooXX..OOOOOOOO",
"OOOOOOOO....XXooooXXXX..  ..XXXXXXXXXX....XXooooooooXX..OOOOOOOO",
"OOOOOOOOOOXXXX..........    ........XXXXXXooooooooXX..XXOOOOOOOO",
"OOOOOOOOOOXXXX..........    ........XXXXXXooooooooXX..XXOOOOOOOO",
"OOOOOOOOOOOOXXXXooooXXXX..      ..XXXXooooooooXXXXXXXXXXXXOOOOOO",
"OOOOOOOOOOOOXXXXooooXXXX..      ..XXXXooooooooXXXXXXXXXXXXOOOOOO",
"OOOOOOOOOOOOOOOOXX..........      ........XXooooXXooooooXXOOOOOO",
"OOOOOOOOOOOOOOOOXX..........      ........XXooooXXooooooXXOOOOOO",
"OOOOOOOOOOOOOOOOOOOOXXXXXXXX..    ..XXXXooooXXooooooXXooXXXXOOOO",
"OOOOOOOOOOOOOOOOOOOOXXXXXXXX..    ..XXXXooooXXooooooXXooXXXXOOOO",
"OOOOOOOOOOOOOOOOOOOOOOOO....        ....XXooooooXXXXooooXX..XXOO",
"OOOOOOOOOOOOOOOOOOOOOOOO....        ....XXooooooXXXXooooXX..XXOO",
"OOOOOOOOOOOOOOOOOOOOOOOOOOXX..      ........XXXXooooooXX..XXXXOO",
"OOOOOOOOOOOOOOOOOOOOOOOOOOXX..      ........XXXXooooooXX..XXXXOO",
"OOOOOOOOOOOOOOOOOOOOOOOOOOOOXX..  ..XXXXooooooooooXX..XXXXXXOOOO",
"OOOOOOOOOOOOOOOOOOOOOOOOOOOOXX..  ..XXXXooooooooooXX..XXXXXXOOOO",
"OOOOOOOOOOOOOOOOOOOOOOOOOOOO..      ........XX....ooooXXXXOOOOOO",
"OOOOOOOOOOOOOOOOOOOOOOOOOOOO..      ........XX....ooooXXXXOOOOOO",
"OOOOOOOOOOOOOOOOOOOOOOOOOOOOXX..  ..ooooooXXXXooooooXXXXOOOOOOOO",
"OOOOOOOOOOOOOOOOOOOOOOOOOOOOXX..  ..ooooooXXXXooooooXXXXOOOOOOOO",
"OOOOOOOOOOOOOOOOOOOOOOOOOOXX..    ....XXooooooXXXXXXOOOOOOOOOOOO",
"OOOOOOOOOOOOOOOOOOOOOOOOOOXX..    ....XXooooooXXXXXXOOOOOOOOOOOO",
"OOOOOOOOOOOOOOOOOOOOOOOOOO..XX....XXooXX......XXOOOOOOOOOOOOOOOO",
"OOOOOOOOOOOOOOOOOOOOOOOOOO..XX....XXooXX......XXOOOOOOOOOOOOOOOO",
"OOOOOOOOOOOOOOOOOOOOOOOOXX....  ....ooooXXXXOOOOOOOOOOOOOOOOOOOO",
"OOOOOOOOOOOOOOOOOOOOOOOOXX....  ....ooooXXXXOOOOOOOOOOOOOOOOOOOO",
"OOOOOOOOOOOOOOOOOOOOOOOO..XX....XXXXooXXOOOOOOOOOOOOOOOOOOOOOOOO",
"OOOOOOOOOOOOOOOOOOOOOOOO..XX....XXXXooXXOOOOOOOOOOOOOOOOOOOOOOOO",
"OOOOOOOOOOOOOOOOOOOOOOOOXX  ....XXXX..OOOOOOOOOOOOOOOOOOOOOOOOOO",
"OOOOOOOOOOOOOOOOOOOOOOOOXX  ....XXXX..OOOOOOOOOOOOOOOOOOOOOOOOOO",
"OOOOOOOOOOOOOOOOOOOOOOOOOOXX  ..  XXXXOOOOOOOOOOOOOOOOOOOOOOOOOO",
"OOOOOOOOOOOOOOOOOOOOOOOOOOXX  ..  XXXXOOOOOOOOOOOOOOOOOOOOOOOOOO",
"OOOOOOOOOOOOOOOOOOOOOOOOOOOOXXXXXXXXOOOOOOOOOOOOOOOOOOOOOOOOOOOO",
"OOOOOOOOOOOOOOOOOOOOOOOOOOOOXXXXXXXXOOOOOOOOOOOOOOOOOOOOOOOOOOOO",
"OOOOOOOOOOOOOOOOOOOOOOOOOOOOOOOOOOOOOOOOOOOOOOOOOOOOOOOOOOOOOOOO",
"OOOOOOOOOOOOOOOOOOOOOOOOOOOOOOOOOOOOOOOOOOOOOOOOOOOOOOOOOOOOOOOO"
};
