/* XPM */
static char * enemy4_xpm[] = {
"32 32 6 1",
" 	c None",
".	c #A6859F",
"+	c #906C8F",
"@	c #7B5480",
"#	c #624169",
"$	c #D9BDC8",
"                                ",
"          .+@ #@@@@@#           ",
"        #   #@@++++++@@@#       ",
"      #+  #@@+++...+++++@@#     ",
"     @+ #@@+.....+@@@#    +@    ",
"    @+ @@++.$$.+@@++++@@#   #   ",
"   #+ #@++.$$.+++....++@@@#     ",
"   @+ @++.$$.+..$$$$..++@@@@    ",
"  #+@#++..$$$$.$$$$.....++@@#   ",
"  @+@@+.$.$$$$$$$$$$$$$$..+@@   ",
"  @+@++.$$$$$$$$$$$$$$$$$$.+@#  ",
" #@+@++.$$$$$$$$$$$$$$$$$$$+@@  ",
" @++$++..$$$$$$$$$$$$$$...$.+@  ",
" @+.$+++..$$$$$$$$$$$$$$...$+@# ",
" @+.$$+++$$$$$$$$$$$$$$$$.+..@@ ",
" @+.$$$$$$$$$$$$$$$$$$$$$..+.+@ ",
" @++.$$$$$$$$$$$$$$$$$$$$$..++@ ",
" #@+.$$$$$$$$$$$$$$$$$$$$$..+.@ ",
"  @++.$$$$$$$$$$$$$$$$$$$$..+@@ ",
"  #@+...$$$$$$$$$$$$$$..$..++@@ ",
" . @++....$$$$$$$$$$$$$.$..+@+@ ",
" @ #++..$$$.$$$$$$$$$$$...++#+# ",
" @. @#++....$$$$.$$$$$$...+@ @  ",
"  +++@@...$$$$$$..$..$$..++# #  ",
"  @+.+..$$$$.$$....+.$$..+@ @   ",
"   #@++.....$$...+++.$..+#      ",
"    @@@+++++...++@@+$..+@@@     ",
"     #@@@@+++++@@@+..++#@#      ",
"       #@@@@@@  @+.++@@@#       ",
"     @         .+++@@@#         ",
"       #@  .+@@@@@@@#           ",
"                                "};
