/* XPM */
static const char *new_enemy_3[] = {
/* columns rows colors chars-per-pixel */
"64 64 6 1 ",
"  c #624169",
". c #7B5480",
"X c #906C8F",
"o c #A6859F",
"O c #D9BDC8",
"+ c None",
/* pixels */
"++++++++++++++++++++++++++++++++++++++++++++++++++++++++++++++++",
"++++++++++++++++++++++++++++++++++++++++++++++++++++++++++++++++",
"++++++++++++++++++++ooXX..++  ..........  ++++++++++++++++++++++",
"++++++++++++++++++++ooXX..++  ..........  ++++++++++++++++++++++",
"++++++++++++++++  ++++++  ....XXXXXXXXXXXX......  ++++++++++++++",
"++++++++++++++++  ++++++  ....XXXXXXXXXXXX......  ++++++++++++++",
"++++++++++++  XX++++  ....XXXXXXooooooXXXXXXXXXX....  ++++++++++",
"++++++++++++  XX++++  ....XXXXXXooooooXXXXXXXXXX....  ++++++++++",
"++++++++++..XX++  ....XXooooooooooXX......  ++++++++XX..++++++++",
"++++++++++..XX++  ....XXooooooooooXX......  ++++++++XX..++++++++",
"++++++++..XX++....XXXXooOOOOooXX....XXXXXXXX....  ++++++  ++++++",
"++++++++..XX++....XXXXooOOOOooXX....XXXXXXXX....  ++++++  ++++++",
"++++++  XX++  ..XXXXooOOOOooXXXXXXooooooooXXXX......  ++++++++++",
"++++++  XX++  ..XXXXooOOOOooXXXXXXooooooooXXXX......  ++++++++++",
"++++++..XX++..XXXXooOOOOooXXooooOOOOOOOOooooXXXX........++++++++",
"++++++..XX++..XXXXooOOOOooXXooooOOOOOOOOooooXXXX........++++++++",
"++++  XX..  XXXXooooOOOOOOOOooOOOOOOOOooooooooooXXXX....  ++++++",
"++++  XX..  XXXXooooOOOOOOOOooOOOOOOOOooooooooooXXXX....  ++++++",
"++++..XX....XXooOOooOOOOOOOOOOOOOOOOOOOOOOOOOOOOooooXX....++++++",
"++++..XX....XXooOOooOOOOOOOOOOOOOOOOOOOOOOOOOOOOooooXX....++++++",
"++++..XX..XXXXooOOOOOOOOOOOOOOOOOOOOOOOOOOOOOOOOOOOOooXX..  ++++",
"++++..XX..XXXXooOOOOOOOOOOOOOOOOOOOOOOOOOOOOOOOOOOOOooXX..  ++++",
"++  ..XX..XXXXooOOOOOOOOOOOOOOOOOOOOOOOOOOOOOOOOOOOOOOXX....++++",
"++  ..XX..XXXXooOOOOOOOOOOOOOOOOOOOOOOOOOOOOOOOOOOOOOOXX....++++",
"++..XXXXOOXXXXooooOOOOOOOOOOOOOOOOOOOOOOOOOOOOooooooOOooXX..++++",
"++..XXXXOOXXXXooooOOOOOOOOOOOOOOOOOOOOOOOOOOOOooooooOOooXX..++++",
"++..XXooOOXXXXXXooooOOOOOOOOOOOOOOOOOOOOOOOOOOOOooooooOOXX..  ++",
"++..XXooOOXXXXXXooooOOOOOOOOOOOOOOOOOOOOOOOOOOOOooooooOOXX..  ++",
"++..XXooOOOOXXXXXXOOOOOOOOOOOOOOOOOOOOOOOOOOOOOOOOooXXoooo....++",
"++..XXooOOOOXXXXXXOOOOOOOOOOOOOOOOOOOOOOOOOOOOOOOOooXXoooo....++",
"++..XXooOOOOOOOOOOOOOOOOOOOOOOOOOOOOOOOOOOOOOOOOOOooooXXooXX..++",
"++..XXooOOOOOOOOOOOOOOOOOOOOOOOOOOOOOOOOOOOOOOOOOOooooXXooXX..++",
"++..XXXXooOOOOOOOOOOOOOOOOOOOOOOOOOOOOOOOOOOOOOOOOOOooooXXXX..++",
"++..XXXXooOOOOOOOOOOOOOOOOOOOOOOOOOOOOOOOOOOOOOOOOOOooooXXXX..++",
"++  ..XXooOOOOOOOOOOOOOOOOOOOOOOOOOOOOOOOOOOOOOOOOOOooooXXoo..++",
"++  ..XXooOOOOOOOOOOOOOOOOOOOOOOOOOOOOOOOOOOOOOOOOOOooooXXoo..++",
"++++..XXXXooOOOOOOOOOOOOOOOOOOOOOOOOOOOOOOOOOOOOOOOOooooXX....++",
"++++..XXXXooOOOOOOOOOOOOOOOOOOOOOOOOOOOOOOOOOOOOOOOOooooXX....++",
"++++  ..XXooooooOOOOOOOOOOOOOOOOOOOOOOOOOOOOooooOOooooXXXX....++",
"++++  ..XXooooooOOOOOOOOOOOOOOOOOOOOOOOOOOOOooooOOooooXXXX....++",
"++oo++..XXXXooooooooOOOOOOOOOOOOOOOOOOOOOOOOOOooOOooooXX..XX..++",
"++oo++..XXXXooooooooOOOOOOOOOOOOOOOOOOOOOOOOOOooOOooooXX..XX..++",
"++..++  XXXXooooOOOOOOooOOOOOOOOOOOOOOOOOOOOOOooooooXXXX  XX  ++",
"++..++  XXXXooooOOOOOOooOOOOOOOOOOOOOOOOOOOOOOooooooXXXX  XX  ++",
"++..oo++..  XXXXooooooooOOOOOOOOooOOOOOOOOOOOOooooooXX..++..++++",
"++..oo++..  XXXXooooooooOOOOOOOOooOOOOOOOOOOOOooooooXX..++..++++",
"++++XXXXXX....ooooooOOOOOOOOOOOOooooOOooooOOOOooooXXXX  ++  ++++",
"++++XXXXXX....ooooooOOOOOOOOOOOOooooOOooooOOOOooooXXXX  ++  ++++",
"++++..XXooXXooooOOOOOOOOooOOOOooooooooXXooOOOOooooXX..++..++++++",
"++++..XXooXXooooOOOOOOOOooOOOOooooooooXXooOOOOooooXX..++..++++++",
"++++++  ..XXXXooooooooooOOOOooooooXXXXXXooOOooooXX  ++++++++++++",
"++++++  ..XXXXooooooooooOOOOooooooXXXXXXooOOooooXX  ++++++++++++",
"++++++++......XXXXXXXXXXooooooXXXX....XXOOooooXX......++++++++++",
"++++++++......XXXXXXXXXXooooooXXXX....XXOOooooXX......++++++++++",
"++++++++++  ........XXXXXXXXXX......XXooooXXXX  ..  ++++++++++++",
"++++++++++  ........XXXXXXXXXX......XXooooXXXX  ..  ++++++++++++",
"++++++++++++++  ............++++..XXooXXXX......  ++++++++++++++",
"++++++++++++++  ............++++..XXooXXXX......  ++++++++++++++",
"++++++++++..++++++++++++++++++ooXXXXXX......  ++++++++++++++++++",
"++++++++++..++++++++++++++++++ooXXXXXX......  ++++++++++++++++++",
"++++++++++++++  ..++++ooXX..............  ++++++++++++++++++++++",
"++++++++++++++  ..++++ooXX..............  ++++++++++++++++++++++",
"++++++++++++++++++++++++++++++++++++++++++++++++++++++++++++++++",
"++++++++++++++++++++++++++++++++++++++++++++++++++++++++++++++++"
};
