/* XPM */
static const char *enemy_3_64[] = {
/* columns rows colors chars-per-pixel */
"64 64 5 1 ",
"  c #5ACBFD",
". c #6EE4FF",
"X c #98FFF6",
"o c white",
"O c None",
/* pixels */
"OOOOOOOOOOOOOOOOOOOOOO....................OOOOOOOOOOOOOOOOOOOOOO",
"OOOOOOOOOOOOOOOOOOOOOO....................OOOOOOOOOOOOOOOOOOOOOO",
"OOOOOOOOOOOOOO........                    ........OOOOOOOOOOOOOO",
"OOOOOOOOOOOOOO........                    ........OOOOOOOOOOOOOO",
"OOOOOOOO......                                    ......OOOOOOOO",
"OOOOOOOO......                                    ......OOOOOOOO",
"OOOO....                                                ....OOOO",
"OOOO....                                                ....OOOO",
"OO..                                                        ..OO",
"OO..                                                        ..OO",
"..                                                            ..",
"..                                                            ..",
"..                                                            ..",
"..                                                            ..",
"XX..                                                        ..XX",
"XX..                                                        ..XX",
"OOXX....                                                ....XXOO",
"OOXX....                                                ....XXOO",
"OOOOXXXX......                                    ......XXXXOOOO",
"OOOOXXXX......                                    ......XXXXOOOO",
"OOOOOOXXXXoooo........                    ........ooooXXXXOOOOOO",
"OOOOOOXXXXoooo........                    ........ooooXXXXOOOOOO",
"OOOOOOOOXXXXoooooooooo....................ooooooooooXXXXOOOOOOOO",
"OOOOOOOOXXXXoooooooooo....................ooooooooooXXXXOOOOOOOO",
"OOOOOOOOXXXXXXooooooooooooooooooooooooooooooooooooXXXXXXOOOOOOOO",
"OOOOOOOOXXXXXXooooooooooooooooooooooooooooooooooooXXXXXXOOOOOOOO",
"OOOOOOOOOO..XXXXooooooooooooooooooooooooooooooooooXX..OOOOOOOOOO",
"OOOOOOOOOO..XXXXooooooooooooooooooooooooooooooooooXX..OOOOOOOOOO",
"OOOOOOOOOOOO..XXXXXXooooooooooooooooooooooooooooXX..OOOOOOOOOOOO",
"OOOOOOOOOOOO..XXXXXXooooooooooooooooooooooooooooXX..OOOOOOOOOOOO",
"OOOOOOOOOOOOXXXXooooXXXXXXXXooooooooooooooooooooXXXXOOOOOOOOOOOO",
"OOOOOOOOOOOOXXXXooooXXXXXXXXooooooooooooooooooooXXXXOOOOOOOOOOOO",
"OOOOOOOOOOOOOO..XXXXooooooooooooooooooooooooXXXX..OOOOOOOOOOOOOO",
"OOOOOOOOOOOOOO..XXXXooooooooooooooooooooooooXXXX..OOOOOOOOOOOOOO",
"OOOOOOOOOOOOOOXXXXooXXXXXXooXXooooooooooooooooXXXXOOOOOOOOOOOOOO",
"OOOOOOOOOOOOOOXXXXooXXXXXXooXXooooooooooooooooXXXXOOOOOOOOOOOOOO",
"OOOOOOOOOOOOXXXXooooooooooooooooooooooooooooooooXXXXOOOOOOOOOOOO",
"OOOOOOOOOOOOXXXXooooooooooooooooooooooooooooooooXXXXOOOOOOOOOOOO",
"OOOOOOOOOOOOXX..XXXXooooooooooooooooooooooooooXX..XXOOOOOOOOOOOO",
"OOOOOOOOOOOOXX..XXXXooooooooooooooooooooooooooXX..XXOOOOOOOOOOOO",
"OOOOOOOOOOOOOOXX....XXXXooooooooooooooooXXXX....XXOOOOOOOOOOOOOO",
"OOOOOOOOOOOOOOXX....XXXXooooooooooooooooXXXX....XXOOOOOOOOOOOOOO",
"OOOOOOOOOOOOOOOOXXXXooooXXXXXXXXooooooooooooXXXXOOOOOOOOOOOOOOOO",
"OOOOOOOOOOOOOOOOXXXXooooXXXXXXXXooooooooooooXXXXOOOOOOOOOOOOOOOO",
"OOOOOOOOOOOOOOOOOOXXXXXXooooooooooooooooXXXXXXOOOOOOOOOOOOOOOOOO",
"OOOOOOOOOOOOOOOOOOXXXXXXooooooooooooooooXXXXXXOOOOOOOOOOOOOOOOOO",
"OOOOOOOOOOOOOOOOOOOOOO..XXooooooooooooXX..OOOOOOOOOOOOOOOOOOOOOO",
"OOOOOOOOOOOOOOOOOOOOOO..XXooooooooooooXX..OOOOOOOOOOOOOOOOOOOOOO",
"OOOOOOOOOOOOOOOOOOOOOOOO....XXXXXXXX....OOOOOOOOOOOOOOOOOOOOOOOO",
"OOOOOOOOOOOOOOOOOOOOOOOO....XXXXXXXX....OOOOOOOOOOOOOOOOOOOOOOOO",
"OOOOOOOOOOOOOOOOOOOOOOOO..XXooooooooXX..OOOOOOOOOOOOOOOOOOOOOOOO",
"OOOOOOOOOOOOOOOOOOOOOOOO..XXooooooooXX..OOOOOOOOOOOOOOOOOOOOOOOO",
"OOOOOOOOOOOOOOOOOOOOOOOOXX..XXXXXXXXXXXXOOOOOOOOOOOOOOOOOOOOOOOO",
"OOOOOOOOOOOOOOOOOOOOOOOOXX..XXXXXXXXXXXXOOOOOOOOOOOOOOOOOOOOOOOO",
"OOOOOOOOOOOOOOOOOOOOOOOOOOXXXXooooXXXXOOOOOOOOOOOOOOOOOOOOOOOOOO",
"OOOOOOOOOOOOOOOOOOOOOOOOOOXXXXooooXXXXOOOOOOOOOOOOOOOOOOOOOOOOOO",
"OOOOOOOOOOOOOOOOOOOOOOOOOOXXooooooooXXOOOOOOOOOOOOOOOOOOOOOOOOOO",
"OOOOOOOOOOOOOOOOOOOOOOOOOOXXooooooooXXOOOOOOOOOOOOOOOOOOOOOOOOOO",
"OOOOOOOOOOOOOOOOOOOOOOOOOOXXXXooooXXXXOOOOOOOOOOOOOOOOOOOOOOOOOO",
"OOOOOOOOOOOOOOOOOOOOOOOOOOXXXXooooXXXXOOOOOOOOOOOOOOOOOOOOOOOOOO",
"OOOOOOOOOOOOOOOOOOOOOOOOOOOOXXXXXXXXOOOOOOOOOOOOOOOOOOOOOOOOOOOO",
"OOOOOOOOOOOOOOOOOOOOOOOOOOOOXXXXXXXXOOOOOOOOOOOOOOOOOOOOOOOOOOOO",
"OOOOOOOOOOOOOOOOOOOOOOOOOOOOOOOOOOOOOOOOOOOOOOOOOOOOOOOOOOOOOOOO",
"OOOOOOOOOOOOOOOOOOOOOOOOOOOOOOOOOOOOOOOOOOOOOOOOOOOOOOOOOOOOOOOO"
};
