/* XPM */
static const char *new_enemy_1[] = {
/* columns rows colors chars-per-pixel */
"64 64 6 1 ",
"  c #624169",
". c #7B5480",
"X c #906C8F",
"o c #A6859F",
"O c #D9BDC8",
"+ c None",
/* pixels */
"++++++++++++++++++++++++++++++++++++++++++++++++++++++++++++++++",
"++++++++++++++++++++++++++++++++++++++++++++++++++++++++++++++++",
"++++++++++++++++++++++  ..............XXoo++++..  ++++++++++++++",
"++++++++++++++++++++++  ..............XXoo++++..  ++++++++++++++",
"++++++++++++++++++  ......XXXXXXoo++++++++++++++++++..++++++++++",
"++++++++++++++++++  ......XXXXXXoo++++++++++++++++++..++++++++++",
"++++++++++++++  ......XXXXooXX..++++............  ++++++++++++++",
"++++++++++++++  ......XXXXooXX..++++............  ++++++++++++++",
"++++++++++++  ..  XXXXooooXX......XXXXXXXXXX........  ++++++++++",
"++++++++++++  ..  XXXXooooXX......XXXXXXXXXX........  ++++++++++",
"++++++++++......XXooooOOXX....XXXXooooooXXXXXXXXXX......++++++++",
"++++++++++......XXooooOOXX....XXXXooooooXXXXXXXXXX......++++++++",
"++++++++++++  XXooooOOooXXXXXXooooooOOOOooooooooooXXXX..  ++++++",
"++++++++++++  XXooooOOooXXXXXXooooooOOOOooooooooooXXXX..  ++++++",
"++++++..++..XXooooOOOOooXXooooooooOOOOooOOOOOOOOooooXXooXX..++++",
"++++++..++..XXooooOOOOooXXooooooooOOOOooOOOOOOOOooooXXooXX..++++",
"++++  ++  XXXXooooOOOOooooOOooooOOOOOOOOOOOOoooooo....XXXXXX++++",
"++++  ++  XXXXooooOOOOooooOOooooOOOOOOOOOOOOoooooo....XXXXXX++++",
"++++..++..XXooooooOOOOOOOOOOOOooOOOOOOOOooooooooXXXX  ..++oo..++",
"++++..++..XXooooooOOOOOOOOOOOOooOOOOOOOOooooooooXXXX  ..++oo..++",
"++  XX  XXXXooooooOOOOOOOOOOOOOOOOOOOOOOooOOOOOOooooXXXX  ++..++",
"++  XX  XXXXooooooOOOOOOOOOOOOOOOOOOOOOOooOOOOOOooooXXXX  ++..++",
"++..XX..XXooooOOooOOOOOOOOOOOOOOOOOOOOOOOOOOooooooooXXXX..++oo++",
"++..XX..XXooooOOooOOOOOOOOOOOOOOOOOOOOOOOOOOooooooooXXXX..++oo++",
"++....XXXXooooOOooooOOOOOOOOOOOOOOOOOOOOOOOOOOOOooooooXX..  ++++",
"++....XXXXooooOOooooOOOOOOOOOOOOOOOOOOOOOOOOOOOOooooooXX..  ++++",
"++....XXooooOOOOOOOOOOOOOOOOOOOOOOOOOOOOOOOOOOOOOOOOooXXXX..++++",
"++....XXooooOOOOOOOOOOOOOOOOOOOOOOOOOOOOOOOOOOOOOOOOooXXXX..++++",
"++..ooXXooooOOOOOOOOOOOOOOOOOOOOOOOOOOOOOOOOOOOOOOOOOOooXX..  ++",
"++..ooXXooooOOOOOOOOOOOOOOOOOOOOOOOOOOOOOOOOOOOOOOOOOOooXX..  ++",
"++..XXXXooooOOOOOOOOOOOOOOOOOOOOOOOOOOOOOOOOOOOOOOOOOOooXXXX..++",
"++..XXXXooooOOOOOOOOOOOOOOOOOOOOOOOOOOOOOOOOOOOOOOOOOOooXXXX..++",
"++..XXooXXooooOOOOOOOOOOOOOOOOOOOOOOOOOOOOOOOOOOOOOOOOOOooXX..++",
"++..XXooXXooooOOOOOOOOOOOOOOOOOOOOOOOOOOOOOOOOOOOOOOOOOOooXX..++",
"++....ooooXXooOOOOOOOOOOOOOOOOOOOOOOOOOOOOOOOOXXXXXXOOOOooXX..++",
"++....ooooXXooOOOOOOOOOOOOOOOOOOOOOOOOOOOOOOOOXXXXXXOOOOooXX..++",
"++  ..XXOOooooooOOOOOOOOOOOOOOOOOOOOOOOOOOOOooooXXXXXXOOooXX..++",
"++  ..XXOOooooooOOOOOOOOOOOOOOOOOOOOOOOOOOOOooooXXXXXXOOooXX..++",
"++++..XXooOOooooooOOOOOOOOOOOOOOOOOOOOOOOOOOOOooooXXXXOOXXXX..++",
"++++..XXooOOooooooOOOOOOOOOOOOOOOOOOOOOOOOOOOOooooXXXXOOXXXX..++",
"++++....XXOOOOOOOOOOOOOOOOOOOOOOOOOOOOOOOOOOOOOOooXXXX..XX..  ++",
"++++....XXOOOOOOOOOOOOOOOOOOOOOOOOOOOOOOOOOOOOOOooXXXX..XX..  ++",
"++++  ..XXooOOOOOOOOOOOOOOOOOOOOOOOOOOOOOOOOOOOOooXXXX..XX..++++",
"++++  ..XXooOOOOOOOOOOOOOOOOOOOOOOOOOOOOOOOOOOOOooXXXX..XX..++++",
"++++++....XXooooOOOOOOOOOOOOOOOOOOOOOOOOOOOOooOOooXX....XX..++++",
"++++++....XXooooOOOOOOOOOOOOOOOOOOOOOOOOOOOOooOOooXX....XX..++++",
"++++++  ....XXXXooooooooooOOOOOOOOooOOOOOOOOooooXXXX  ..XX  ++++",
"++++++  ....XXXXooooooooooOOOOOOOOooOOOOOOOOooooXXXX  ..XX  ++++",
"++++++++........XXXXooooOOOOOOOOooooXXooOOOOooXXXX..++XX..++++++",
"++++++++........XXXXooooOOOOOOOOooooXXooOOOOooXXXX..++XX..++++++",
"++++++++++  ......XXXXooooooooXXXXXXooOOOOooXXXX..  ++XX  ++++++",
"++++++++++  ......XXXXooooooooXXXXXXooOOOOooXXXX..  ++XX  ++++++",
"++++++  ++++++  ....XXXXXXXX....XXooOOOOooXXXX....++XX..++++++++",
"++++++  ++++++  ....XXXXXXXX....XXooOOOOooXXXX....++XX..++++++++",
"++++++++..XX++++++++  ......XXooooooooooXX....  ++XX..++++++++++",
"++++++++..XX++++++++  ......XXooooooooooXX....  ++XX..++++++++++",
"++++++++++  ....XXXXXXXXXXooooooXXXXXX....  ++++XX  ++++++++++++",
"++++++++++  ....XXXXXXXXXXooooooXXXXXX....  ++++XX  ++++++++++++",
"++++++++++++++  ......XXXXXXXXXXXX....  ++++++  ++++++++++++++++",
"++++++++++++++  ......XXXXXXXXXXXX....  ++++++  ++++++++++++++++",
"++++++++++++++++++++++  ..........  ++..XXoo++++++++++++++++++++",
"++++++++++++++++++++++  ..........  ++..XXoo++++++++++++++++++++",
"++++++++++++++++++++++++++++++++++++++++++++++++++++++++++++++++",
"++++++++++++++++++++++++++++++++++++++++++++++++++++++++++++++++"
};
