/* XPM */
static const char *new_exit_1[] = {
/* columns rows colors chars-per-pixel */
"64 64 7 1 ",
"  c #B8345B",
". c #CC425E",
"X c #EA6262",
"o c #F48D6D",
"O c #FFB879",
"+ c #FCEF8D",
"@ c None",
/* pixels */
"@@@@@@@@@@@@@@@@@@@@@@@@@@OOooOOooOOoo@@@@@@@@@@@@@@@@@@@@@@@@@@",
"@@@@@@@@@@@@@@@@@@@@@@@@@@OOooOOooOOoo@@@@@@@@@@@@@@@@@@@@@@@@@@",
"@@@@@@@@@@@@@@@@@@@@@@OOoo..XXOOXX  ..XXOO@@@@@@@@@@@@@@@@@@@@@@",
"@@@@@@@@@@@@@@@@@@@@@@OOoo..XXOOXX  ..XXOO@@@@@@@@@@@@@@@@@@@@@@",
"@@@@@@@@@@@@@@@@@@oo..        XX          ..oo@@@@@@@@@@@@@@@@@@",
"@@@@@@@@@@@@@@@@@@oo..        XX          ..oo@@@@@@@@@@@@@@@@@@",
"@@@@@@@@@@@@@@oo..          ..                ..oo@@@@@@@@@@@@@@",
"@@@@@@@@@@@@@@oo..          ..                ..oo@@@@@@@@@@@@@@",
"@@@@@@@@@@@@OOXX              XX                XXOO@@@@@@@@@@@@",
"@@@@@@@@@@@@OOXX              XX                XXOO@@@@@@@@@@@@",
"@@@@@@@@@@OOoo                ..XX                ooOO@@@@@@@@@@",
"@@@@@@@@@@OOoo                ..XX                ooOO@@@@@@@@@@",
"@@@@@@@@oo..                    OO                  XXoo@@@@@@@@",
"@@@@@@@@oo..                    OO                  XXoo@@@@@@@@",
"@@@@@@OO..                        XX          ..XX    ..OO@@@@@@",
"@@@@@@OO..                        XX          ..XX    ..OO@@@@@@",
"@@@@@@oo                          OO                    oo@@@@@@",
"@@@@@@oo                          OO                    oo@@@@@@",
"@@@@oo                      XX..    XX      XX            oo@@@@",
"@@@@oo                      XX..    XX      XX            oo@@@@",
"@@@@..                    XXOOXX            OO            ..@@@@",
"@@@@..                    XXOOXX            OO            ..@@@@",
"@@OO              XX      ..OO              XX              OO@@",
"@@OO              XX      ..OO              XX              OO@@",
"@@oo            XX..        XX            XX                oo@@",
"@@oo            XX..        XX            XX                oo@@",
"OO..            OOOO..      ..XX    XX                      XXOO",
"OO..            OOOO..      ..XX    XX                      XXOO",
"oo            XXOO  XX      XXOOXX..                    ..XXOOoo",
"oo            XXOO  XX      XXOOXX..                    ..XXOOoo",
"XXOOXX..    XXOO      ..  XXOO++OOXX              OOXXOOXX  XXOO",
"XXOOXX..    XXOO      ..  XXOO++OOXX              OOXXOOXX  XXOO",
"OO      XX  ..          ..OO++++++OOXX          OO..          XX",
"OO      XX  ..          ..OO++++++OOXX          OO..          XX",
"oo        ..XX            XXOO++OOXX..XX..XX  OOXX            oo",
"oo        ..XX            XXOO++OOXX..XX..XX  OOXX            oo",
"OOXX                        ..OOXX        ..XX..            XXOO",
"OOXX                        ..OOXX        ..XX..            XXOO",
"@@oo            OOXX          XX                            OO@@",
"@@oo            OOXX          XX                            OO@@",
"@@OO          XX                ..        XX                OO@@",
"@@OO          XX                ..        XX                OO@@",
"@@@@..          OO                XX      OO              ..@@@@",
"@@@@..          OO                XX      OO              ..@@@@",
"@@@@oo      XXOOXX                ..      ..OOXX          oo@@@@",
"@@@@oo      XXOOXX                ..      ..OOXX          oo@@@@",
"@@@@@@oo                        OO  XX        ..XX      oo@@@@@@",
"@@@@@@oo                        OO  XX        ..XX      oo@@@@@@",
"@@@@@@OO..                    OO                      ..OO@@@@@@",
"@@@@@@OO..                    OO                      ..OO@@@@@@",
"@@@@@@@@ooXX                XXOO                    XXoo@@@@@@@@",
"@@@@@@@@ooXX                XXOO                    XXoo@@@@@@@@",
"@@@@@@@@@@OOoo            XXOO                    ooOO@@@@@@@@@@",
"@@@@@@@@@@OOoo            XXOO                    ooOO@@@@@@@@@@",
"@@@@@@@@@@@@OOXX          ..XX                  XXOO@@@@@@@@@@@@",
"@@@@@@@@@@@@OOXX          ..XX                  XXOO@@@@@@@@@@@@",
"@@@@@@@@@@@@@@oo..            ..              ..oo@@@@@@@@@@@@@@",
"@@@@@@@@@@@@@@oo..            ..              ..oo@@@@@@@@@@@@@@",
"@@@@@@@@@@@@@@@@@@oo..      XX            ..oo@@@@@@@@@@@@@@@@@@",
"@@@@@@@@@@@@@@@@@@oo..      XX            ..oo@@@@@@@@@@@@@@@@@@",
"@@@@@@@@@@@@@@@@@@@@@@OOooXXOOXX    XXooOO@@@@@@@@@@@@@@@@@@@@@@",
"@@@@@@@@@@@@@@@@@@@@@@OOooXXOOXX    XXooOO@@@@@@@@@@@@@@@@@@@@@@",
"@@@@@@@@@@@@@@@@@@@@@@@@@@ooOOooOOooOO@@@@@@@@@@@@@@@@@@@@@@@@@@",
"@@@@@@@@@@@@@@@@@@@@@@@@@@ooOOooOOooOO@@@@@@@@@@@@@@@@@@@@@@@@@@"
};
