/* XPM */
static char * exit2_xpm[] = {
"32 32 7 1",
" 	c None",
".	c #FFB879",
"+	c #F48D6D",
"@	c #CC425E",
"#	c #EA6262",
"$	c #B8345B",
"%	c #FCEF8D",
"             .+.+.+             ",
"           .+@#.#$@#.           ",
"         +@$$$$#$$$$$@+         ",
"       +@$$$$$@$$$$$$$$@+       ",
"      .#$$$$$$$#$$$$$$$$#.      ",
"     .+$$$$$$$$@#$$$$$$$$+.     ",
"    +@$$$$$$$$$$.$$$$$$$$$#+    ",
"   .@$$$$$$$$$$$$#$$$$$@#$$@.   ",
"   +$$$$$$$$$$$$$.$$$$$$$$$$+   ",
"  +$$$$$$$$$$$#@$$#$$$#$$$$$$+  ",
"  @$$$$$$$$$$#.#$$$$$$.$$$$$$@  ",
" .$$$$$$$#$$$@.$$$$$$$#$$$$$$$. ",
" +$$$$$$#@$$$$#$$$$$$#$$$$$$$$+ ",
".@$$$$$$..@$$$@#$$#$$$$$$$$$$$#.",
"+$$$$$$#.$#$$$#.#@$$$$$$$$$$@#.+",
"#.#@$$#.$$$@$#.%.#$$$$$$$.#.#$#.",
".$$$#$@$$$$$@.%%%.#$$$$$.@$$$$$#",
"+$$$$@#$$$$$$#.%.#@#@#$.#$$$$$$+",
".#$$$$$$$$$$$$@.#$$$$@#@$$$$$$#.",
" +$$$$$$.#$$$$$#$$$$$$$$$$$$$$. ",
" .$$$$$#$$$$$$$$@$$$$#$$$$$$$$. ",
"  @$$$$$.$$$$$$$$#$$$.$$$$$$$@  ",
"  +$$$#.#$$$$$$$$@$$$@.#$$$$$+  ",
"   +$$$$$$$$$$$$.$#$$$$@#$$$+   ",
"   .@$$$$$$$$$$.$$$$$$$$$$$@.   ",
"    +#$$$$$$$$#.$$$$$$$$$$#+    ",
"     .+$$$$$$#.$$$$$$$$$$+.     ",
"      .#$$$$$@#$$$$$$$$$#.      ",
"       +@$$$$$$@$$$$$$$@+       ",
"         +@$$$#$$$$$$@+         ",
"           .+#.#$$#+.           ",
"             +.+.+.             "};
