/* XPM */
static const char *new_enemy_2[] = {
/* columns rows colors chars-per-pixel */
"64 64 6 1 ",
"  c #624169",
". c #7B5480",
"X c #906C8F",
"o c #A6859F",
"O c #D9BDC8",
"+ c None",
/* pixels */
"++++++++++++++++++++++++++++++++++++++++++++++++++++++++++++++++",
"++++++++++++++++++++++++++++++++++++++++++++++++++++++++++++++++",
"++++++++++++++++++++++++++  ..............  ++++++++++++++++++++",
"++++++++++++++++++++++++++  ..............  ++++++++++++++++++++",
"++++++++++++++++++++  ........XXXXoo....XXXX..  ++++++++++++++++",
"++++++++++++++++++++  ........XXXXoo....XXXX..  ++++++++++++++++",
"++++++++++  ++++  ......XXXXooooXXXXXXXX..  ++++..++++++++++++++",
"++++++++++  ++++  ......XXXXooooXXXXXXXX..  ++++..++++++++++++++",
"++++++++..++++......XXXXooOOooXXooooooXXXXXX..  ++++++++++++++++",
"++++++++..++++......XXXXooOOooXXooooooXXXXXX..  ++++++++++++++++",
"++++++  XX++  ....XXooOOOOooXXooooooooooooXXXXXX..++..++++++++++",
"++++++  XX++  ....XXooOOOOooXXooooooooooooXXXXXX..++..++++++++++",
"++++++..++++....XXooOOOOooooooooOOOOOOooooooooXXXX  ..  ++++++++",
"++++++..++++....XXooOOOOooooooooOOOOOOooooooooXXXX  ..  ++++++++",
"++++  ..++  ....XXooOOOOooooOOOOOOOOOOOOOOooooooooXX....  ++++++",
"++++  ..++  ....XXooOOOOooooOOOOOOOOOOOOOOooooooooXX....  ++++++",
"++++..XX++....XXooOOOOOOooOOOOOOOOOOOOooooooooooooooXX  ..++++++",
"++++..XX++....XXooOOOOOOooOOOOOOOOOOOOooooooooooooooXX  ..++++++",
"++++..XX++..XXXXooOOOOOOOOOOOOOOOOOOOOooOOOOOOOOOOooooXX..  ++++",
"++++..XX++..XXXXooOOOOOOOOOOOOOOOOOOOOooOOOOOOOOOOooooXX..  ++++",
"++++..XX  XXXXooooOOOOOOOOOOOOOOOOOOOOOOOOOOOOOOOOOOooXX....++++",
"++++..XX  XXXXooooOOOOOOOOOOOOOOOOOOOOOOOOOOOOOOOOOOooXX....++++",
"++  XXXX..XXooooooOOOOOOOOOOOOOOOOOOOOOOOOOOOOooooooOOooXX..  ++",
"++  XXXX..XXooooooOOOOOOOOOOOOOOOOOOOOOOOOOOOOooooooOOooXX..  ++",
"++..XXXX..XXooOOooOOOOOOOOOOOOOOOOOOOOOOOOOOOOooXXXXXXooXX....++",
"++..XXXX..XXooOOooOOOOOOOOOOOOOOOOOOOOOOOOOOOOooXXXXXXooXX....++",
"++..XXoo..XXooOOOOOOOOOOOOOOOOOOOOOOOOOOOOOOOOOOooXX..XXooXX..++",
"++..XXoo..XXooOOOOOOOOOOOOOOOOOOOOOOOOOOOOOOOOOOooXX..XXooXX..++",
"++..XXooXX..ooOOOOOOOOOOOOOOOOOOOOOOOOOOOOOOOOooooXX....XXXX..++",
"++..XXooXX..ooOOOOOOOOOOOOOOOOOOOOOOOOOOOOOOOOooooXX....XXXX..++",
"++..XXoooo..XXOOOOOOOOOOOOOOOOOOOOOOOOOOOOOOooooooooXX....XX..++",
"++..XXoooo..XXOOOOOOOOOOOOOOOOOOOOOOOOOOOOOOooooooooXX....XX..++",
"++..XXXXooXXXXooOOOOOOOOOOOOOOOOOOOOOOOOOOOOOOOOooooXX..++oo..++",
"++..XXXXooXXXXooOOOOOOOOOOOOOOOOOOOOOOOOOOOOOOOOooooXX..++oo..++",
"++  ..XXooooXXooooOOOOOOOOOOOOOOOOOOOOOOOOOOOOOOOOooooXX++++..++",
"++  ..XXooooXXooooOOOOOOOOOOOOOOOOOOOOOOOOOOOOOOOOooooXX++++..++",
"++++..XXooOOooXXOOOOOOOOOOOOOOOOOOOOOOOOOOOOOOOOOOOOooXX..++..++",
"++++..XXooOOooXXOOOOOOOOOOOOOOOOOOOOOOOOOOOOOOOOOOOOooXX..++..++",
"++..  ..ooOOOOooOOOOOOOOOOOOOOOOOOOOOOOOOOOOOOOOooOOooXX..++XX++",
"++..  ..ooOOOOooOOOOOOOOOOOOOOOOOOOOOOOOOOOOOOOOooOOooXX..++XX++",
"++XX++..XXooOOOOOOOOOOOOOOOOOOOOOOOOOOOOOOooooOOOOooXXXX..++oo++",
"++XX++..XXooOOOOOOOOOOOOOOOOOOOOOOOOOOOOOOooooOOOOooXXXX..++oo++",
"++oo++  ..XXooOOOOOOOOOOOOOOOOOOOOOOOOOOOOOOooOOOOooXXXX..++++++",
"++oo++  ..XXooOOOOOOOOOOOOOOOOOOOOOOOOOOOOOOooOOOOooXXXX..++++++",
"++++++++..XXXXooooooOOOOOOooOOOOOOOOOOOOooOOooooOOooXX....++++++",
"++++++++..XXXXooooooOOOOOOooOOOOOOOOOOOOooOOooooOOooXX....++++++",
"++++  ++  ..XXXXooOOOOOOooooXXOOOOOOOOOOooOOooooOOooXX....++..++",
"++++  ++  ..XXXXooOOOOOOooooXXOOOOOOOOOOooOOooooOOooXX....++..++",
"++++++XX++....XXXXooooooooXXXXOOOOOOOOooooooXXooooooXX..  ++  ++",
"++++++XX++....XXXXooooooooXXXXOOOOOOOOooooooXXooooooXX..  ++  ++",
"++++++  XX++  ..XXXXXXXXXXXXXXOOOOOOOOooooooXX..ooXX....++++++++",
"++++++  XX++  ..XXXXXXXXXXXXXXOOOOOOOOooooooXX..ooXX....++++++++",
"++++++++..XX++++  ..XXXXXXXXOOOOOOOOooooXXXX  ..XXXX..  ++..++++",
"++++++++..XX++++  ..XXXXXXXXOOOOOOOOooooXXXX  ..XXXX..  ++..++++",
"++++++++++..XXXX........OOOOOOOOooooXXXXXXXX..XXoo....++++++++++",
"++++++++++..XXXX........OOOOOOOOooooXXXXXXXX..XXoo....++++++++++",
"++++++++++++  ..XXXXXXXXXXooooooXXXXXX....  ++XXXX  ++++++++++++",
"++++++++++++  ..XXXXXXXXXXooooooXXXXXX....  ++XXXX  ++++++++++++",
"++++++++++++++++  ......XXXXXXXXXX....  ++++ooXX..++++++++++++++",
"++++++++++++++++  ......XXXXXXXXXX....  ++++ooXX..++++++++++++++",
"++++++++++++++++++++++  ..........  ++++oo....++++++++++++++++++",
"++++++++++++++++++++++  ..........  ++++oo....++++++++++++++++++",
"++++++++++++++++++++++++++++++++++++++++++++++++++++++++++++++++",
"++++++++++++++++++++++++++++++++++++++++++++++++++++++++++++++++"
};
