/* XPM */
static const char *new_enemy_0[] = {
/* columns rows colors chars-per-pixel */
"64 64 6 1 ",
"  c #624169",
". c #7B5480",
"X c #906C8F",
"o c #A6859F",
"O c #D9BDC8",
"+ c None",
/* pixels */
"++++++++++++++++++++++++++++++++++++++++++++++++++++++++++++++++",
"++++++++++++++++++++++++++++++++++++++++++++++++++++++++++++++++",
"++++++++++++++++++....oo++++  ..........  ++++++++++++++++++++++",
"++++++++++++++++++....oo++++  ..........  ++++++++++++++++++++++",
"++++++++++++++..XXoo++++  ....XXXXXXXXXX......  ++++++++++++++++",
"++++++++++++++..XXoo++++  ....XXXXXXXXXX......  ++++++++++++++++",
"++++++++++++  XXXX++  ....XXXXXXooooooXXXXXXXXXX..  ++++++++++++",
"++++++++++++  XXXX++  ....XXXXXXooooooXXXXXXXXXX..  ++++++++++++",
"++++++++++....ooXX..XXXXXXXXooooOOOOOOOO........XXXX..++++++++++",
"++++++++++....ooXX..XXXXXXXXooooOOOOOOOO........XXXX..++++++++++",
"++++..++  ..XXXX..  XXXXooooOOOOOOOOXXXXXXXX..  ++++XX..++++++++",
"++++..++  ..XXXX..  XXXXooooOOOOOOOOXXXXXXXX..  ++++XX..++++++++",
"++++++++....XXoo..XXooooooOOOOOOOOXXXXXXXXXXXXXX..  ++XX  ++++++",
"++++++++....XXoo..XXooooooOOOOOOOOXXXXXXXXXXXXXX..  ++XX  ++++++",
"++  ++  ..XXooooooXXooooooOOOOOOOOXXXXooooooooXXXX....++XX++++++",
"++  ++  ..XXooooooXXooooooOOOOOOOOXXXXooooooooXXXX....++XX++++++",
"++..++....XXooOOooooOOooOOOOOOOOOOXXooooOOOOOOooXXXX..  ++  ++++",
"++..++....XXooOOooooOOooOOOOOOOOOOXXooooOOOOOOooXXXX..  ++  ++++",
"++++++....XXooOOooooOOooOOOOOOOOOOOOooOOOOOOooooooXXXX..++++++++",
"++++++....XXooOOooooOOooOOOOOOOOOOOOooOOOOOOooooooXXXX..++++++++",
"++++++..XXXXooOOOOooOOOOOOOOOOOOOOOOOOOOOOOOOOOOOOooXX..  ++oo++",
"++++++..XXXXooOOOOooOOOOOOOOOOOOOOOOOOOOOOOOOOOOOOooXX..  ++oo++",
"++oo++..XXXXooOOOOooooOOOOOOOOOOOOOOOOOOOOOOOOOOOOOOooXX..++XX++",
"++oo++..XXXXooOOOOooooOOOOOOOOOOOOOOOOOOOOOOOOOOOOOOooXX..++XX++",
"++XX++..XXooOOooOOOOOOOOOOOOOOOOOOOOOOOOOOOOOOOOooOOOOoo..  ..++",
"++XX++..XXooOOooOOOOOOOOOOOOOOOOOOOOOOOOOOOOOOOOooOOOOoo..  ..++",
"++..++..XXooOOOOOOOOOOOOOOOOOOOOOOOOOOOOOOOOOOOOXXooOOooXX..++++",
"++..++..XXooOOOOOOOOOOOOOOOOOOOOOOOOOOOOOOOOOOOOXXooOOooXX..++++",
"++..++++XXooooOOOOOOOOOOOOOOOOOOOOOOOOOOOOOOOOooooXXooooXX..  ++",
"++..++++XXooooOOOOOOOOOOOOOOOOOOOOOOOOOOOOOOOOooooXXooooXX..  ++",
"++..oo++..XXooooOOOOOOOOOOOOOOOOOOOOOOOOOOOOOOOOooXXXXooXXXX..++",
"++..oo++..XXooooOOOOOOOOOOOOOOOOOOOOOOOOOOOOOOOOooXXXXooXXXX..++",
"++..XX....XXooooooooOOOOOOOOOOOOOOOOOOOOOOOOOOOOOOXX..ooooXX..++",
"++..XX....XXooooooooOOOOOOOOOOOOOOOOOOOOOOOOOOOOOOXX..ooooXX..++",
"++..XXXX....XXooooOOOOOOOOOOOOOOOOOOOOOOOOOOOOOOOOoo..XXooXX..++",
"++..XXXX....XXooooOOOOOOOOOOOOOOOOOOOOOOOOOOOOOOOOoo..XXooXX..++",
"++..XXooXX..XXooOOOOOOOOOOOOOOOOOOOOOOOOOOOOOOOOOOooXX..ooXX..++",
"++..XXooXX..XXooOOOOOOOOOOOOOOOOOOOOOOOOOOOOOOOOOOooXX..ooXX..++",
"++....XXooXXXXXXooOOOOOOOOOOOOOOOOOOOOOOOOOOOOooOOooXX..XXXX..++",
"++....XXooXXXXXXooOOOOOOOOOOOOOOOOOOOOOOOOOOOOooOOooXX..XXXX..++",
"++  ..XXooOOooooooOOOOOOOOOOOOOOOOOOOOOOOOOOOOooooooXX..XXXX  ++",
"++  ..XXooOOooooooOOOOOOOOOOOOOOOOOOOOOOOOOOOOooooooXX..XXXX  ++",
"++++....XXooOOOOOOOOOOOOOOOOOOOOOOOOOOOOOOOOOOooooXXXX  XX..++++",
"++++....XXooOOOOOOOOOOOOOOOOOOOOOOOOOOOOOOOOOOooooXXXX  XX..++++",
"++++  ..XXooooOOOOOOOOOOooOOOOOOOOOOOOOOOOOOOOooXXXX..++XX..++++",
"++++  ..XXooooOOOOOOOOOOooOOOOOOOOOOOOOOOOOOOOooXXXX..++XX..++++",
"++++++..  XXooooooooooooooOOOOOOOOOOOOooOOOOOOooXX....++XX..++++",
"++++++..  XXooooooooooooooOOOOOOOOOOOOooOOOOOOooXX....++XX..++++",
"++++++  ....XXooooooooOOOOOOOOOOOOOOooooOOOOooXX....  ++..  ++++",
"++++++  ....XXooooooooOOOOOOOOOOOOOOooooOOOOooXX....  ++..  ++++",
"++++++++  ..  XXXXooooooooOOOOOOooooooooOOOOooXX....++++..++++++",
"++++++++  ..  XXXXooooooooOOOOOOooooooooOOOOooXX....++++..++++++",
"++++++++++..++..XXXXXXooooooooooooXXooOOOOooXX....  ++XX  ++++++",
"++++++++++..++..XXXXXXooooooooooooXXooOOOOooXX....  ++XX  ++++++",
"++++++++++++++++  ..XXXXXXooooooXXooOOooXXXX......++++..++++++++",
"++++++++++++++++  ..XXXXXXooooooXXooOOooXXXX......++++..++++++++",
"++++++++++++++..++++  ..XXXXXXXXooooXXXX......  ++++  ++++++++++",
"++++++++++++++..++++  ..XXXXXXXXooooXXXX......  ++++  ++++++++++",
"++++++++++++++++  ..XXXX....ooXXXX........  ++++++++++++++++++++",
"++++++++++++++++  ..XXXX....ooXXXX........  ++++++++++++++++++++",
"++++++++++++++++++++  ..............  ++++++++++++++++++++++++++",
"++++++++++++++++++++  ..............  ++++++++++++++++++++++++++",
"++++++++++++++++++++++++++++++++++++++++++++++++++++++++++++++++",
"++++++++++++++++++++++++++++++++++++++++++++++++++++++++++++++++"
};
