/* XPM */
static const char *new_exit_3[] = {
/* columns rows colors chars-per-pixel */
"64 64 6 1 ",
"  c #CC425E",
". c #EA6262",
"X c #F48D6D",
"o c #FFB879",
"O c #FCEF8D",
"+ c None",
/* pixels */
"++++++++++++++++++++++++++OOooOOooOOoo++++++++++++++++++++++++++",
"++++++++++++++++++++++++++OOooOOooOOoo++++++++++++++++++++++++++",
"++++++++++++++++++++++OOooXX  ..oo  XXooOO++++++++++++++++++++++",
"++++++++++++++++++++++OOooXX  ..oo  XXooOO++++++++++++++++++++++",
"++++++++++++++++++oo..          ..        ..oo++++++++++++++++++",
"++++++++++++++++++oo..          ..        ..oo++++++++++++++++++",
"++++++++++++++oo..              XX            ..oo++++++++++++++",
"++++++++++++++oo..              XX            ..oo++++++++++++++",
"++++++++++++OOXX              XX                XXOO++++++++++++",
"++++++++++++OOXX              XX                XXOO++++++++++++",
"++++++++++OOoo              ..                    ooOO++++++++++",
"++++++++++OOoo              ..                    ooOO++++++++++",
"++++++++ooXX      ..        XXoo..                  XXoo++++++++",
"++++++++ooXX      ..        XXoo..                  XXoo++++++++",
"++++++OO..        oo  ..        OOoo                  ..OO++++++",
"++++++OO..        oo  ..        OOoo                  ..OO++++++",
"++++++oo          OOoo  oo        OOoo..                oo++++++",
"++++++oo          OOoo  oo        OOoo..                oo++++++",
"++++oo                  ..          oooo..                oo++++",
"++++oo                  ..          oooo..                oo++++",
"++++..                            XX..                    ..++++",
"++++..                            XX..                    ..++++",
"++OO                            ..                          OO++",
"++OO                            ..                          OO++",
"++OO      ..                ..XXoo        ..                oo++",
"++OO      ..                ..XXoo        ..                oo++",
"OOXX    ..oo              XXooOOoo..    ..oo                XXOO",
"OOXX    ..oo              XXooOOoo..    ..oo                XXOO",
"oooo..  ooOOoo          XXooOOOOOOoo..XXooOOoo..        XX  ..oo",
"oooo..  ooOOoo          XXooOOOOOOoo..XXooOOoo..        XX  ..oo",
"XX..  ..  oo..XX      ..ooOOOOOOOOOOoo    oo..      ..XX  ..ooOO",
"XX..  ..  oo..XX      ..ooOOOOOOOOOOoo    oo..      ..XX  ..ooOO",
"OO        ..    XX    ..XXooOOOOOOoo..    ..XX    OOoo      ..XX",
"OO        ..    XX    ..XXooOOOOOOoo..    ..XX    OOoo      ..XX",
"oo                ..XX    ..ooOOooXX        XXooOO            oo",
"oo                ..XX    ..ooOOooXX        XXooOO            oo",
"OOXX            ..          oo....          ..              ..OO",
"OOXX            ..          oo....          ..              ..OO",
"++oo                        XX                              oo++",
"++oo                        XX                              oo++",
"++OO                        ..                              OO++",
"++OO                        ..                              OO++",
"++++..            OOoo..  XX..        ..                  ..++++",
"++++..            OOoo..  XX..        ..                  ..++++",
"++++oo            oo    ..oo            XXooXX            oo++++",
"++++oo            oo    ..oo            XXooXX            oo++++",
"++++++oo        XX..      OOoo                  XX      oo++++++",
"++++++oo        XX..      OOoo                  XX      oo++++++",
"++++++OO..      ..          OOOO                ..    ..OO++++++",
"++++++OO..      ..          OOOO                ..    ..OO++++++",
"++++++++ooXX                  ..OO                  XXoo++++++++",
"++++++++ooXX                  ..OO                  XXoo++++++++",
"++++++++++OOoo                  oo                ooOO++++++++++",
"++++++++++OOoo                  oo                ooOO++++++++++",
"++++++++++++OOXX                ..              XXOO++++++++++++",
"++++++++++++OOXX                ..              XXOO++++++++++++",
"++++++++++++++oo..              XX..          ..oo++++++++++++++",
"++++++++++++++oo..              XX..          ..oo++++++++++++++",
"++++++++++++++++++oo..            XX      ..oo++++++++++++++++++",
"++++++++++++++++++oo..            XX      ..oo++++++++++++++++++",
"++++++++++++++++++++++OOXX..    ..ooXXooOO++++++++++++++++++++++",
"++++++++++++++++++++++OOXX..    ..ooXXooOO++++++++++++++++++++++",
"++++++++++++++++++++++++++ooOOooOOooOO++++++++++++++++++++++++++",
"++++++++++++++++++++++++++ooOOooOOooOO++++++++++++++++++++++++++"
};
