/* XPM */
static char * exit4_xpm[] = {
"32 32 6 1",
" 	c None",
".	c #FCEF8D",
"+	c #FFB879",
"@	c #F48D6D",
"#	c #CC425E",
"$	c #EA6262",
"             .+.+.+             ",
"           .+@#$+#@+.           ",
"         +$#####$####$+         ",
"       +$#######@######$+       ",
"      .@#######@########@.      ",
"     .+#######$##########+.     ",
"    +@###$####@+$#########@+    ",
"   .$####+#$####.+#########$.   ",
"   +#####.+#+####.+$########+   ",
"  +#########$#####++$########+  ",
"  $##############@$##########$  ",
" .##############$#############. ",
" .###$########$@+####$########+ ",
".@##$+#######@+.+$##$+########@.",
"++$#+.+#####@+...+$@+.+$####@#$+",
"@$#$#+$@###$+.....+##+$###$@#$+.",
".####$##@##$@+...+$##$@##.+###$@",
"+########$@##$+.+@####@+.######+",
".@######$#####+$$#####$#######$.",
" +############@###############+ ",
" .############$###############. ",
"  $######.+$#@$####$#########$  ",
"  +######+##$+######@+@######+  ",
"   +####@$###.+#########@###+   ",
"   .$###$#####..########$##$.   ",
"    +@#########$.#########@+    ",
"     .+#########+########+.     ",
"      .@########$#######@.      ",
"       +$#######@$#####$+       ",
"         +$######@###$+         ",
"           .@$##$+@+.           ",
"             +.+.+.             "};
