/* XPM */
static const char *new_wall_1[] = {
/* columns rows colors chars-per-pixel */
"64 64 3 1 ",
"  c #30171B",
". c #3A191C",
"X c #421A18",
/* pixels */
"    XXXXXXXXXXXXXXXXXXXXXXXX....      XXXXXXXXXXXXXXXXXXXX..    ",
"    XXXXXXXXXXXXXXXXXXXXXXXX....      XXXXXXXXXXXXXXXXXXXX..    ",
"  ............................      ..............XXXXXX..XXXX  ",
"  ............................      ..............XXXXXX..XXXX  ",
"  ............................      ......................XXXX  ",
"  ............................      ......................XXXX  ",
"    ........................          ........................  ",
"    ........................          ........................  ",
"                                        ................  ....  ",
"                                        ................  ....  ",
"XXXXXXXX                                                        ",
"XXXXXXXX                                                        ",
"....XXXXXXXXXXXX        ....................                    ",
"....XXXXXXXXXXXX        ....................                    ",
"..............XXXX    ..XXXXXXXXXXXXXXXX......                  ",
"..............XXXX    ..XXXXXXXXXXXXXXXX......                  ",
"................XX    XXXXXX..........XXXXXXXX..    ............",
"................XX    XXXXXX..........XXXXXXXX..    ............",
"            ......    XX..................XXXXXX  ......XXXXXXXX",
"            ......    XX..................XXXXXX  ......XXXXXXXX",
"            ......    ..........................  ......XXXXXXXX",
"            ......    ..........................  ......XXXXXXXX",
"              ....    ..........................  ........XXXXXX",
"              ....    ..........................  ........XXXXXX",
"                      ..........................    ............",
"                      ..........................    ............",
"      ....XX          ..........................                ",
"      ....XX          ..........................                ",
"  ..........XXXX      ..........................        ....XXXX",
"  ..........XXXX      ..........................        ....XXXX",
"  ..............      ..........................      ....XXXXXX",
"  ..............      ..........................      ....XXXXXX",
"      ............    ..........................      ........XX",
"      ............    ..........................      ........XX",
"                        ......................        ........XX",
"                        ......................        ........XX",
"                        ....................    XX    ..........",
"                        ....................    XX    ..........",
"      ........XXXXXX..                        ..XXXX    ........",
"      ........XXXXXX..                        ..XXXX    ........",
"          ..........XX..                      ......          ..",
"          ..........XX..                      ......          ..",
"            ............                                        ",
"            ............                                        ",
"      ..    ............          ........XXXXXXXXXXXXXXXX      ",
"      ..    ............          ........XXXXXXXXXXXXXXXX      ",
"      ....    ..........        ........................XXXX    ",
"      ....    ..........        ........................XXXX    ",
"      ....    ..........        ........................XXXX    ",
"      ....    ..........        ........................XXXX    ",
"      ......  ..........        ..........................      ",
"      ......  ..........        ..........................      ",
"      ......  ..........          ........................      ",
"      ......  ..........          ........................      ",
"                ......            ....................          ",
"                ......            ....................          ",
"                          ......                                ",
"                          ......                                ",
"                          ......                                ",
"                          ......                                ",
"                                                                ",
"                                                                ",
"                                                                ",
"                                                                "
};
