/* XPM */
static char * wallB_xpm[] = {
"32 32 3 1",
" 	c #30171B",
".	c #421A18",
"+	c #3A191C",
"  ............++   ..........+  ",
" ++++++++++++++   +++++++...+.. ",
" ++++++++++++++   +++++++++++.. ",
"  ++++++++++++     ++++++++++++ ",
"                    ++++++++ ++ ",
"....                            ",
"++......    ++++++++++          ",
"+++++++..  +........+++         ",
"++++++++.  ...+++++....+  ++++++",
"      +++  .+++++++++... +++....",
"      +++  +++++++++++++ +++....",
"       ++  +++++++++++++ ++++...",
"           +++++++++++++  ++++++",
"   ++.     +++++++++++++        ",
" +++++..   +++++++++++++    ++..",
" +++++++   +++++++++++++   ++...",
"   ++++++  +++++++++++++   ++++.",
"            +++++++++++    ++++.",
"            ++++++++++  .  +++++",
"   ++++...+            +..  ++++",
"     +++++.+           +++     +",
"      ++++++                    ",
"   +  ++++++     ++++........   ",
"   ++  +++++    ++++++++++++..  ",
"   ++  +++++    ++++++++++++..  ",
"   +++ +++++    +++++++++++++   ",
"   +++ +++++     ++++++++++++   ",
"        +++      ++++++++++     ",
"             +++                ",
"             +++                ",
"                                ",
"                                "};
