/* XPM */
static const char *new_wall_0[] = {
/* columns rows colors chars-per-pixel */
"64 64 3 1 ",
"  c #30171B",
". c #3A191C",
"X c #421A18",
/* pixels */
"    XXXXXXXXXXXXXXXXXXXXXXXX          XXXXXXXXXXXXXXXXXX....    ",
"    XXXXXXXXXXXXXXXXXXXXXXXX          XXXXXXXXXXXXXXXXXX....    ",
"  ....XXXXXXXXXXXXXXXXXXXX..        ........................    ",
"  ....XXXXXXXXXXXXXXXXXXXX..        ........................    ",
"  ..........................          ....................      ",
"  ..........................          ....................      ",
"    ......................                                      ",
"    ......................                                      ",
"                                                                ",
"                                                                ",
"            XXXXXXXX        ............................        ",
"            XXXXXXXX        ............................        ",
"          XXXXXXXXXXXX    XXXXXXXXXXXXXXXXXXXXXXXXXXXX....    ..",
"          XXXXXXXXXXXX    XXXXXXXXXXXXXXXXXXXXXXXXXXXX....    ..",
"XXXX      XXXXXX......    XXXXXXXXXXXXXXXXXXXXXXXXXXXXXX..  ....",
"XXXX      XXXXXX......    XXXXXXXXXXXXXXXXXXXXXXXXXXXXXX..  ....",
"XX....    XXXX........    XX..........................XX..  ....",
"XX....    XXXX........    XX..........................XX..  ....",
"......    XXXX........    ............................XX..  ....",
"......    XXXX........    ............................XX..  ....",
"......    XXXX........    XX..........................XX..      ",
"......    XXXX........    XX..........................XX..      ",
"....      XX..........    ................................      ",
"....      XX..........    ................................      ",
"          ............    ................................      ",
"          ............    ................................      ",
"          ............    ................................      ",
"          ............    ................................      ",
"......      ........        ............................        ",
"......      ........        ............................        ",
"....XX..                                                        ",
"....XX..                                                        ",
"XXXXXX..                                                        ",
"XXXXXX..                                                        ",
"XXXXXX..      XXXXXXXXXXXXXXXX                  XXXXXXXXXXXXXX  ",
"XXXXXX..      XXXXXXXXXXXXXXXX                  XXXXXXXXXXXXXX  ",
"XXXXXX..    XXXXXXXXXXXXXXXXXXXXXXXXXXXX      XXXXXXXXXX......XX",
"XXXXXX..    XXXXXXXXXXXXXXXXXXXXXXXXXXXX      XXXXXXXXXX......XX",
"........    XXXX..........................    XX..............XX",
"........    XXXX..........................    XX..............XX",
"........    XXXX..........................    ................  ",
"........    XXXX..........................    ................  ",
"........    XXXX........................        ..........      ",
"........    XXXX........................        ..........      ",
"......        XXXX................                              ",
"......        XXXX................                              ",
"                XX......                                        ",
"                XX......                                        ",
"                                            ..XXXXXXXX          ",
"                                            ..XXXXXXXX          ",
"  XXXXXXXXXXXXXX                XX......    ..XX........        ",
"  XXXXXXXXXXXXXX                XX......    ..XX........        ",
"XXXXXX....................      XX......    ............        ",
"XXXXXX....................      XX......    ............        ",
"XXXX........................      ....      ..........          ",
"XXXX........................      ....      ..........          ",
"XXXX........................                    ....            ",
"XXXX........................                    ....            ",
"XX..........              ..                                    ",
"XX..........              ..                                    ",
"XX..                                                            ",
"XX..                                                            ",
"                                                                ",
"                                                                "
};
