/* XPM */
static const char *new_exit_0[] = {
/* columns rows colors chars-per-pixel */
"64 64 6 1 ",
"  c #CC425E",
". c #EA6262",
"X c #F48D6D",
"o c #FFB879",
"O c #FCEF8D",
"+ c None",
/* pixels */
"++++++++++++++++++++++++++OOooOOooOOoo++++++++++++++++++++++++++",
"++++++++++++++++++++++++++OOooOOooOOoo++++++++++++++++++++++++++",
"++++++++++++++++++++++OOooXXoo..    ..XXOO++++++++++++++++++++++",
"++++++++++++++++++++++OOooXXoo..    ..XXOO++++++++++++++++++++++",
"++++++++++++++++++oo..      XX            ..oo++++++++++++++++++",
"++++++++++++++++++oo..      XX            ..oo++++++++++++++++++",
"++++++++++++++oo..          ..XX              ..oo++++++++++++++",
"++++++++++++++oo..          ..XX              ..oo++++++++++++++",
"++++++++++++OOXX              ..                XXOO++++++++++++",
"++++++++++++OOXX              ..                XXOO++++++++++++",
"++++++++++OOoo                oo                  ooOO++++++++++",
"++++++++++OOoo                oo                  ooOO++++++++++",
"++++++++ooXX                  OO..                  XXoo++++++++",
"++++++++ooXX                  OO..                  XXoo++++++++",
"++++++OO..    ..                OOOO          ..      ..OO++++++",
"++++++OO..    ..                OOOO          ..      ..OO++++++",
"++++++oo      XX                  ooOO      ..XX        oo++++++",
"++++++oo      XX                  ooOO      ..XX        oo++++++",
"++++oo            XXooXX            oo..    oo            oo++++",
"++++oo            XXooXX            oo..    oo            oo++++",
"++++..                  ..        ..XX  ..ooOO            ..++++",
"++++..                  ..        ..XX  ..ooOO            ..++++",
"++OO                              ..                        OO++",
"++OO                              ..                        OO++",
"++oo                              XX                        oo++",
"++oo                              XX                        oo++",
"OO..              ..          ....oo          ..            XXOO",
"OO..              ..          ....oo          ..            XXOO",
"oo            OOooXX        XXooOOoo..    XX..                oo",
"oo            OOooXX        XXooOOoo..    XX..                oo",
"XX..      ooOO    XX..    ..ooOOOOOOooXX..    XX    ..        OO",
"XX..      ooOO    XX..    ..ooOOOOOOooXX..    XX    ..        OO",
"OOoo..  XX..      ..oo    ooOOOOOOOOOOoo..      XX..oo  ..  ..XX",
"OOoo..  XX..      ..oo    ooOOOOOOOOOOoo..      XX..oo  ..  ..XX",
"oo..  XX        ..ooOOooXX..ooOOOOOOooXX          ooOOoo  ..oooo",
"oo..  XX        ..ooOOooXX..ooOOOOOOooXX          ooOOoo  ..oooo",
"OOXX                oo..    ..ooOOooXX              oo..    XXOO",
"OOXX                oo..    ..ooOOooXX              oo..    XXOO",
"++oo                ..        ooXX..                ..      OO++",
"++oo                ..        ooXX..                ..      OO++",
"++OO                          ..                            OO++",
"++OO                          ..                            OO++",
"++++..                    ..XX                            ..++++",
"++++..                    ..XX                            ..++++",
"++++oo                ..oooo          ..                  oo++++",
"++++oo                ..oooo          ..                  oo++++",
"++++++oo                ..ooOO        oo  ooOO          oo++++++",
"++++++oo                ..ooOO        oo  ooOO          oo++++++",
"++++++OO..                  ooOO        ..  oo        ..OO++++++",
"++++++OO..                  ooOO        ..  oo        ..OO++++++",
"++++++++ooXX                  ..ooXX        ..      XXoo++++++++",
"++++++++ooXX                  ..ooXX        ..      XXoo++++++++",
"++++++++++OOoo                    ..              ooOO++++++++++",
"++++++++++OOoo                    ..              ooOO++++++++++",
"++++++++++++OOXX                XX              XXOO++++++++++++",
"++++++++++++OOXX                XX              XXOO++++++++++++",
"++++++++++++++oo..            XX              ..oo++++++++++++++",
"++++++++++++++oo..            XX              ..oo++++++++++++++",
"++++++++++++++++++oo..        ..          ..oo++++++++++++++++++",
"++++++++++++++++++oo..        ..          ..oo++++++++++++++++++",
"++++++++++++++++++++++OOooXX  oo..  XXooOO++++++++++++++++++++++",
"++++++++++++++++++++++OOooXX  oo..  XXooOO++++++++++++++++++++++",
"++++++++++++++++++++++++++ooOOooOOooOO++++++++++++++++++++++++++",
"++++++++++++++++++++++++++ooOOooOOooOO++++++++++++++++++++++++++"
};
