/* XPM */
static const char *new_exit_2[] = {
/* columns rows colors chars-per-pixel */
"64 64 6 1 ",
"  c #CC425E",
". c #EA6262",
"X c #F48D6D",
"o c #FFB879",
"O c #FCEF8D",
"+ c None",
/* pixels */
"++++++++++++++++++++++++++OOooOOXXooOO++++++++++++++++++++++++++",
"++++++++++++++++++++++++++OOooOOXXooOO++++++++++++++++++++++++++",
"++++++++++++++++++++++OOooXX    ..ooXXOOOO++++++++++++++++++++++",
"++++++++++++++++++++++OOooXX    ..ooXXOOOO++++++++++++++++++++++",
"++++++++++++++++++oo..            ..      ..oo++++++++++++++++++",
"++++++++++++++++++oo..            ..      ..oo++++++++++++++++++",
"++++++++++++++OOoo              ..            ooOO++++++++++++++",
"++++++++++++++OOoo              ..            ooOO++++++++++++++",
"++++++++++++oo..                  oo..          ..oo++++++++++++",
"++++++++++++oo..                  oo..          ..oo++++++++++++",
"++++++++++OOXX                ..ooOOoo..          XXOO++++++++++",
"++++++++++OOXX                ..ooOOoo..          XXOO++++++++++",
"++++++++OOoo                    ..oo                ooOO++++++++",
"++++++++OOoo                    ..oo                ooOO++++++++",
"++++++ooXX                      XX                    XXoo++++++",
"++++++ooXX                      XX                    XXoo++++++",
"++++++..      ..XX        ..  XX                        ..++++++",
"++++++..      ..XX        ..  XX                        ..++++++",
"++++oo          ..ooOO      ..                OOoo..      oo++++",
"++++oo          ..ooOO      ..                OOoo..      oo++++",
"++++..              oo      XX                oo          ..++++",
"++++..              oo      XX                oo          ..++++",
"++OO                ..        ....              ..          OO++",
"++OO                ..        ....              ..          OO++",
"++XX              ..          XXooXX        ..oo            oo++",
"++XX              ..          XXooXX        ..oo            oo++",
"oo..            OOooXX      ..ooOOooXX                      XXOO",
"oo..            OOooXX      ..ooOOooXX                      XXOO",
"OO            OOoo  ....XXooooOOOOOOoo..          XX..        oo",
"OO            OOoo  ....XXooooOOOOOOoo..          XX..        oo",
"oo          ..OO          ..OOOOOOOOOOXX          oo  XX    ..OO",
"oo          ..OO          ..OOOOOOOOOOXX          oo  XX    ..OO",
"OO..  XX..ooOO            ..ooOOOOOOoooo..      OO..    XX..oooo",
"OO..  XX..ooOO            ..ooOOOOOOoooo..      OO..    XX..oooo",
"ooooXX..                    XXooOOoo..    XX  OOoo            OO",
"ooooXX..                    XXooOOoo..    XX  OOoo            OO",
"OOXX                          ..oo..      ..oooo            XXoo",
"OOXX                          ..oo..      ..oooo            XXoo",
"++oo                ..            XX        oo..            oo++",
"++oo                ..            XX        oo..            oo++",
"++OO              XX              oo..      ..              OO++",
"++OO              XX              oo..      ..              OO++",
"++++..            oo          ..ooOOoo..                  ..++++",
"++++..            oo          ..ooOOoo..                  ..++++",
"++++oo            XX      ..XXXX..oo                      oo++++",
"++++oo            XX      ..XXXX..oo                      oo++++",
"++++++..                    oo    ..                    ..++++++",
"++++++..                    oo    ..                    ..++++++",
"++++++ooXX    ..XX          OO                        XXoo++++++",
"++++++ooXX    ..XX          OO                        XXoo++++++",
"++++++++OOoo                  OO                    ooOO++++++++",
"++++++++OOoo                  OO                    ooOO++++++++",
"++++++++++OOXX                oo..                XXOO++++++++++",
"++++++++++OOXX                oo..                XXOO++++++++++",
"++++++++++++oo..                XX              ..oo++++++++++++",
"++++++++++++oo..                XX              ..oo++++++++++++",
"++++++++++++++OOoo                XX          ooOO++++++++++++++",
"++++++++++++++OOoo                XX          ooOO++++++++++++++",
"++++++++++++++++++oo..          ..        ..oo++++++++++++++++++",
"++++++++++++++++++oo..          ..        ..oo++++++++++++++++++",
"++++++++++++++++++++++OOoo..  ..oo..XXooOO++++++++++++++++++++++",
"++++++++++++++++++++++OOoo..  ..oo..XXooOO++++++++++++++++++++++",
"++++++++++++++++++++++++++OOooXXOOooOO++++++++++++++++++++++++++",
"++++++++++++++++++++++++++OOooXXOOooOO++++++++++++++++++++++++++"
};
